<?xml version="1.0" encoding="UTF-8" standalone="no"?>
<!-- Created with Inkscape (http://www.inkscape.org/) -->

<svg
   version="1.1"
   id="svg1"
   width="131.4467"
   height="76.105034"
   viewBox="0 0 131.4467 76.105035"
   xmlns="http://www.w3.org/2000/svg"
   xmlns:svg="http://www.w3.org/2000/svg">
  <defs
     id="defs1">
    <clipPath
       clipPathUnits="userSpaceOnUse"
       id="clipPath4">
      <path
         d="m 78.125,43.75 h 418.75 v 250 H 78.125 Z"
         transform="matrix(0.46254485,0,0,0.46254485,301.90698,517.31819)"
         clip-rule="evenodd"
         id="path4" />
    </clipPath>
    <clipPath
       clipPathUnits="userSpaceOnUse"
       id="clipPath6">
      <path
         d="m 78.125,43.75 h 418.75 v 250 H 78.125 Z"
         transform="matrix(0.46254485,0,0,0.46254485,301.90698,517.31819)"
         clip-rule="evenodd"
         id="path6" />
    </clipPath>
    <clipPath
       clipPathUnits="userSpaceOnUse"
       id="clipPath8">
      <path
         d="m 78.125,43.75 h 418.75 v 250 H 78.125 Z"
         transform="matrix(0.46254485,0,0,0.46254485,301.90698,517.31819)"
         clip-rule="evenodd"
         id="path8" />
    </clipPath>
    <clipPath
       clipPathUnits="userSpaceOnUse"
       id="clipPath10">
      <path
         d="m 78.125,43.75 h 418.75 v 250 H 78.125 Z"
         transform="matrix(0.46254485,0,0,0.46254485,301.90698,517.31819)"
         clip-rule="evenodd"
         id="path10" />
    </clipPath>
    <clipPath
       clipPathUnits="userSpaceOnUse"
       id="clipPath12">
      <path
         d="m 78.125,43.75 h 418.75 v 250 H 78.125 Z"
         transform="matrix(0.46254485,0,0,0.46254485,301.90698,517.31819)"
         clip-rule="evenodd"
         id="path12" />
    </clipPath>
    <clipPath
       clipPathUnits="userSpaceOnUse"
       id="clipPath14">
      <path
         d="m 78.125,43.75 h 418.75 v 250 H 78.125 Z"
         transform="matrix(32.882668,0,0,-32.882668,-8928.5033,8952.4991)"
         clip-rule="evenodd"
         id="path14" />
    </clipPath>
    <clipPath
       clipPathUnits="userSpaceOnUse"
       id="clipPath16">
      <path
         d="m 78.125,43.75 h 418.75 v 250 H 78.125 Z"
         transform="matrix(46.510139,0,0,-46.510139,-13484.446,12874.82)"
         clip-rule="evenodd"
         id="path16" />
    </clipPath>
    <clipPath
       clipPathUnits="userSpaceOnUse"
       id="clipPath18">
      <path
         d="m 78.125,43.75 h 418.75 v 250 H 78.125 Z"
         transform="matrix(32.882668,0,0,-32.882668,-9182.8031,8949.4986)"
         clip-rule="evenodd"
         id="path18" />
    </clipPath>
    <clipPath
       clipPathUnits="userSpaceOnUse"
       id="clipPath20">
      <path
         d="m 78.125,43.75 h 418.75 v 250 H 78.125 Z"
         transform="matrix(0.46254485,0,0,0.46254485,301.90698,517.31819)"
         clip-rule="evenodd"
         id="path20" />
    </clipPath>
    <clipPath
       clipPathUnits="userSpaceOnUse"
       id="clipPath22">
      <path
         d="m 78.125,43.75 h 418.75 v 250 H 78.125 Z"
         transform="matrix(0.46254485,0,0,0.46254485,301.90698,517.31819)"
         clip-rule="evenodd"
         id="path22" />
    </clipPath>
    <clipPath
       clipPathUnits="userSpaceOnUse"
       id="clipPath24">
      <path
         d="m 78.125,43.75 h 418.75 v 250 H 78.125 Z"
         transform="matrix(0.46254485,0,0,0.46254485,301.90698,517.31819)"
         clip-rule="evenodd"
         id="path24" />
    </clipPath>
    <clipPath
       clipPathUnits="userSpaceOnUse"
       id="clipPath26">
      <path
         d="m 78.125,43.75 h 418.75 v 250 H 78.125 Z"
         transform="matrix(0.46254485,0,0,0.46254485,301.90698,517.31819)"
         clip-rule="evenodd"
         id="path26" />
    </clipPath>
    <clipPath
       clipPathUnits="userSpaceOnUse"
       id="clipPath28">
      <path
         d="m 78.125,43.75 h 418.75 v 250 H 78.125 Z"
         transform="matrix(0.46254485,0,0,0.46254485,301.90698,517.31819)"
         clip-rule="evenodd"
         id="path28" />
    </clipPath>
    <clipPath
       clipPathUnits="userSpaceOnUse"
       id="clipPath30">
      <path
         d="m 78.125,43.75 h 418.75 v 250 H 78.125 Z"
         transform="matrix(0.46254485,0,0,0.46254485,301.90698,517.31819)"
         clip-rule="evenodd"
         id="path30" />
    </clipPath>
    <clipPath
       clipPathUnits="userSpaceOnUse"
       id="clipPath32">
      <path
         d="m 78.125,43.75 h 418.75 v 250 H 78.125 Z"
         transform="matrix(0.46254485,0,0,0.46254485,301.90698,517.31819)"
         clip-rule="evenodd"
         id="path32" />
    </clipPath>
    <clipPath
       clipPathUnits="userSpaceOnUse"
       id="clipPath34">
      <path
         d="m 78.125,43.75 h 418.75 v 250 H 78.125 Z"
         transform="matrix(0.46254485,0,0,0.46254485,301.90698,517.31819)"
         clip-rule="evenodd"
         id="path34" />
    </clipPath>
    <clipPath
       clipPathUnits="userSpaceOnUse"
       id="clipPath36">
      <path
         d="m 78.125,43.75 h 418.75 v 250 H 78.125 Z"
         transform="matrix(0.46254485,0,0,0.46254485,301.90698,517.31819)"
         clip-rule="evenodd"
         id="path36" />
    </clipPath>
    <clipPath
       clipPathUnits="userSpaceOnUse"
       id="clipPath38">
      <path
         d="m 78.125,43.75 h 418.75 v 250 H 78.125 Z"
         transform="matrix(0.46254485,0,0,0.46254485,301.90698,517.31819)"
         clip-rule="evenodd"
         id="path38" />
    </clipPath>
    <clipPath
       clipPathUnits="userSpaceOnUse"
       id="clipPath40">
      <path
         d="m 78.125,43.75 h 418.75 v 250 H 78.125 Z"
         transform="matrix(0.46254485,0,0,0.46254485,301.90698,517.31819)"
         clip-rule="evenodd"
         id="path40" />
    </clipPath>
    <clipPath
       clipPathUnits="userSpaceOnUse"
       id="clipPath42">
      <path
         d="m 78.125,43.75 h 418.75 v 250 H 78.125 Z"
         transform="matrix(0.46254485,0,0,0.46254485,301.90698,517.31819)"
         clip-rule="evenodd"
         id="path42" />
    </clipPath>
    <clipPath
       clipPathUnits="userSpaceOnUse"
       id="clipPath44">
      <path
         d="m 78.125,43.75 h 418.75 v 250 H 78.125 Z"
         transform="matrix(0.46254485,0,0,0.46254485,301.90698,517.31819)"
         clip-rule="evenodd"
         id="path44" />
    </clipPath>
    <clipPath
       clipPathUnits="userSpaceOnUse"
       id="clipPath46">
      <path
         d="m 78.125,43.75 h 418.75 v 250 H 78.125 Z"
         transform="matrix(0.46254485,0,0,0.46254485,301.90698,517.31819)"
         clip-rule="evenodd"
         id="path46" />
    </clipPath>
    <clipPath
       clipPathUnits="userSpaceOnUse"
       id="clipPath48">
      <path
         d="m 78.125,43.75 h 418.75 v 250 H 78.125 Z"
         transform="matrix(0.46254485,0,0,0.46254485,301.90698,517.31819)"
         clip-rule="evenodd"
         id="path48" />
    </clipPath>
    <clipPath
       clipPathUnits="userSpaceOnUse"
       id="clipPath50">
      <path
         d="m 78.125,43.75 h 418.75 v 250 H 78.125 Z"
         transform="matrix(0.46254485,0,0,0.46254485,301.90698,517.31819)"
         clip-rule="evenodd"
         id="path50" />
    </clipPath>
    <clipPath
       clipPathUnits="userSpaceOnUse"
       id="clipPath52">
      <path
         d="m 78.125,43.75 h 418.75 v 250 H 78.125 Z"
         transform="matrix(0.46254485,0,0,0.46254485,301.90698,517.31819)"
         clip-rule="evenodd"
         id="path52" />
    </clipPath>
    <clipPath
       clipPathUnits="userSpaceOnUse"
       id="clipPath54">
      <path
         d="m 78.125,43.75 h 418.75 v 250 H 78.125 Z"
         transform="matrix(0.46254485,0,0,0.46254485,301.90698,517.31819)"
         clip-rule="evenodd"
         id="path54" />
    </clipPath>
    <clipPath
       clipPathUnits="userSpaceOnUse"
       id="clipPath56">
      <path
         d="m 78.125,43.75 h 418.75 v 250 H 78.125 Z"
         transform="matrix(0.46254485,0,0,0.46254485,301.90698,517.31819)"
         clip-rule="evenodd"
         id="path56" />
    </clipPath>
    <clipPath
       clipPathUnits="userSpaceOnUse"
       id="clipPath58">
      <path
         d="m 78.125,43.75 h 418.75 v 250 H 78.125 Z"
         transform="matrix(0.46254485,0,0,0.46254485,301.90698,517.31819)"
         clip-rule="evenodd"
         id="path58" />
    </clipPath>
    <clipPath
       clipPathUnits="userSpaceOnUse"
       id="clipPath60">
      <path
         d="m 78.125,43.75 h 418.75 v 250 H 78.125 Z"
         transform="matrix(0.46254485,0,0,0.46254485,301.90698,517.31819)"
         clip-rule="evenodd"
         id="path60" />
    </clipPath>
    <clipPath
       clipPathUnits="userSpaceOnUse"
       id="clipPath62">
      <path
         d="m 78.125,43.75 h 418.75 v 250 H 78.125 Z"
         transform="matrix(0.46254485,0,0,0.46254485,301.90698,517.31819)"
         clip-rule="evenodd"
         id="path62" />
    </clipPath>
    <clipPath
       clipPathUnits="userSpaceOnUse"
       id="clipPath64">
      <path
         d="m 78.125,43.75 h 418.75 v 250 H 78.125 Z"
         transform="matrix(0.46254485,0,0,0.46254485,301.90698,517.31819)"
         clip-rule="evenodd"
         id="path64" />
    </clipPath>
    <clipPath
       clipPathUnits="userSpaceOnUse"
       id="clipPath66">
      <path
         d="m 78.125,43.75 h 418.75 v 250 H 78.125 Z"
         transform="matrix(0.46254485,0,0,0.46254485,301.90698,517.31819)"
         clip-rule="evenodd"
         id="path66" />
    </clipPath>
    <clipPath
       clipPathUnits="userSpaceOnUse"
       id="clipPath68">
      <path
         d="m 78.125,43.75 h 418.75 v 250 H 78.125 Z"
         transform="matrix(0.46254485,0,0,0.46254485,301.90698,517.31819)"
         clip-rule="evenodd"
         id="path68" />
    </clipPath>
    <clipPath
       clipPathUnits="userSpaceOnUse"
       id="clipPath70">
      <path
         d="m 78.125,43.75 h 418.75 v 250 H 78.125 Z"
         transform="matrix(0.46254485,0,0,0.46254485,301.90698,517.31819)"
         clip-rule="evenodd"
         id="path70" />
    </clipPath>
    <clipPath
       clipPathUnits="userSpaceOnUse"
       id="clipPath72">
      <path
         d="m 78.125,43.75 h 418.75 v 250 H 78.125 Z"
         transform="matrix(0.46254485,0,0,0.46254485,301.90698,517.31819)"
         clip-rule="evenodd"
         id="path72" />
    </clipPath>
    <clipPath
       clipPathUnits="userSpaceOnUse"
       id="clipPath74">
      <path
         d="m 78.125,43.75 h 418.75 v 250 H 78.125 Z"
         transform="matrix(0.46254485,0,0,0.46254485,301.90698,517.31819)"
         clip-rule="evenodd"
         id="path74" />
    </clipPath>
    <clipPath
       clipPathUnits="userSpaceOnUse"
       id="clipPath76">
      <path
         d="m 78.125,43.75 h 418.75 v 250 H 78.125 Z"
         transform="matrix(0.46254485,0,0,0.46254485,301.90698,517.31819)"
         clip-rule="evenodd"
         id="path76" />
    </clipPath>
    <clipPath
       clipPathUnits="userSpaceOnUse"
       id="clipPath78">
      <path
         d="m 78.125,43.75 h 418.75 v 250 H 78.125 Z"
         transform="matrix(0.46254485,0,0,0.46254485,301.90698,517.31819)"
         clip-rule="evenodd"
         id="path78" />
    </clipPath>
    <clipPath
       clipPathUnits="userSpaceOnUse"
       id="clipPath80">
      <path
         d="m 78.125,43.75 h 418.75 v 250 H 78.125 Z"
         transform="matrix(0.46254485,0,0,0.46254485,301.90698,517.31819)"
         clip-rule="evenodd"
         id="path80" />
    </clipPath>
    <clipPath
       clipPathUnits="userSpaceOnUse"
       id="clipPath82">
      <path
         d="m 78.125,43.75 h 418.75 v 250 H 78.125 Z"
         transform="matrix(0.46254485,0,0,0.46254485,301.90698,517.31819)"
         clip-rule="evenodd"
         id="path82" />
    </clipPath>
    <clipPath
       clipPathUnits="userSpaceOnUse"
       id="clipPath84">
      <path
         d="m 78.125,43.75 h 418.75 v 250 H 78.125 Z"
         transform="matrix(0.46254485,0,0,0.46254485,301.90698,517.31819)"
         clip-rule="evenodd"
         id="path84" />
    </clipPath>
    <clipPath
       clipPathUnits="userSpaceOnUse"
       id="clipPath86">
      <path
         d="m 78.125,43.75 h 418.75 v 250 H 78.125 Z"
         transform="matrix(0.46254485,0,0,0.46254485,301.90698,517.31819)"
         clip-rule="evenodd"
         id="path86" />
    </clipPath>
    <clipPath
       clipPathUnits="userSpaceOnUse"
       id="clipPath88">
      <path
         d="m 78.125,43.75 h 418.75 v 250 H 78.125 Z"
         transform="matrix(0.46254485,0,0,0.46254485,301.90698,517.31819)"
         clip-rule="evenodd"
         id="path88" />
    </clipPath>
    <clipPath
       clipPathUnits="userSpaceOnUse"
       id="clipPath90">
      <path
         d="m 78.125,43.75 h 418.75 v 250 H 78.125 Z"
         transform="matrix(0.46254485,0,0,0.46254485,301.90698,517.31819)"
         clip-rule="evenodd"
         id="path90" />
    </clipPath>
    <clipPath
       clipPathUnits="userSpaceOnUse"
       id="clipPath92">
      <path
         d="m 78.125,43.75 h 418.75 v 250 H 78.125 Z"
         transform="matrix(0.46254485,0,0,0.46254485,301.90698,517.31819)"
         clip-rule="evenodd"
         id="path92" />
    </clipPath>
    <clipPath
       clipPathUnits="userSpaceOnUse"
       id="clipPath94">
      <path
         d="m 78.125,43.75 h 418.75 v 250 H 78.125 Z"
         transform="matrix(0.46254485,0,0,0.46254485,301.90698,517.31819)"
         clip-rule="evenodd"
         id="path94" />
    </clipPath>
    <clipPath
       clipPathUnits="userSpaceOnUse"
       id="clipPath96">
      <path
         d="m 78.125,43.75 h 418.75 v 250 H 78.125 Z"
         transform="matrix(0.46254485,0,0,0.46254485,301.90698,517.31819)"
         clip-rule="evenodd"
         id="path96" />
    </clipPath>
    <clipPath
       clipPathUnits="userSpaceOnUse"
       id="clipPath98">
      <path
         d="m 78.125,43.75 h 418.75 v 250 H 78.125 Z"
         transform="matrix(0.46254485,0,0,0.46254485,301.90698,517.31819)"
         clip-rule="evenodd"
         id="path98" />
    </clipPath>
    <clipPath
       clipPathUnits="userSpaceOnUse"
       id="clipPath100">
      <path
         d="m 78.125,43.75 h 418.75 v 250 H 78.125 Z"
         transform="matrix(0.46254485,0,0,0.46254485,301.90698,517.31819)"
         clip-rule="evenodd"
         id="path100" />
    </clipPath>
    <clipPath
       clipPathUnits="userSpaceOnUse"
       id="clipPath102">
      <path
         d="m 78.125,43.75 h 418.75 v 250 H 78.125 Z"
         transform="matrix(0.46254485,0,0,0.46254485,301.90698,517.31819)"
         clip-rule="evenodd"
         id="path102" />
    </clipPath>
    <clipPath
       clipPathUnits="userSpaceOnUse"
       id="clipPath104">
      <path
         d="m 78.125,43.75 h 418.75 v 250 H 78.125 Z"
         transform="matrix(0.46254485,0,0,0.46254485,301.90698,517.31819)"
         clip-rule="evenodd"
         id="path104" />
    </clipPath>
    <clipPath
       clipPathUnits="userSpaceOnUse"
       id="clipPath106">
      <path
         d="m 78.125,43.75 h 418.75 v 250 H 78.125 Z"
         transform="matrix(0.46254485,0,0,0.46254485,301.90698,517.31819)"
         clip-rule="evenodd"
         id="path106" />
    </clipPath>
    <clipPath
       clipPathUnits="userSpaceOnUse"
       id="clipPath108">
      <path
         d="m 78.125,43.75 h 418.75 v 250 H 78.125 Z"
         transform="matrix(0.46254485,0,0,0.46254485,301.90698,517.31819)"
         clip-rule="evenodd"
         id="path108" />
    </clipPath>
    <clipPath
       clipPathUnits="userSpaceOnUse"
       id="clipPath110">
      <path
         d="m 78.125,43.75 h 418.75 v 250 H 78.125 Z"
         transform="matrix(0.46254485,0,0,0.46254485,301.90698,517.31819)"
         clip-rule="evenodd"
         id="path110" />
    </clipPath>
    <clipPath
       clipPathUnits="userSpaceOnUse"
       id="clipPath112">
      <path
         d="m 78.125,43.75 h 418.75 v 250 H 78.125 Z"
         transform="matrix(0.46254485,0,0,0.46254485,301.90698,517.31819)"
         clip-rule="evenodd"
         id="path112" />
    </clipPath>
    <clipPath
       clipPathUnits="userSpaceOnUse"
       id="clipPath114">
      <path
         d="m 78.125,43.75 h 418.75 v 250 H 78.125 Z"
         transform="matrix(0.46254485,0,0,0.46254485,301.90698,517.31819)"
         clip-rule="evenodd"
         id="path114" />
    </clipPath>
    <clipPath
       clipPathUnits="userSpaceOnUse"
       id="clipPath116">
      <path
         d="m 78.125,43.75 h 418.75 v 250 H 78.125 Z"
         transform="matrix(0.46254485,0,0,0.46254485,301.90698,517.31819)"
         clip-rule="evenodd"
         id="path116" />
    </clipPath>
    <clipPath
       clipPathUnits="userSpaceOnUse"
       id="clipPath118">
      <path
         d="m 78.125,43.75 h 418.75 v 250 H 78.125 Z"
         transform="matrix(0.46254485,0,0,0.46254485,301.90698,517.31819)"
         clip-rule="evenodd"
         id="path118" />
    </clipPath>
    <clipPath
       clipPathUnits="userSpaceOnUse"
       id="clipPath120">
      <path
         d="m 78.125,43.75 h 418.75 v 250 H 78.125 Z"
         transform="matrix(0.46254485,0,0,0.46254485,301.90698,517.31819)"
         clip-rule="evenodd"
         id="path120" />
    </clipPath>
    <clipPath
       clipPathUnits="userSpaceOnUse"
       id="clipPath122">
      <path
         d="m 78.125,43.75 h 418.75 v 250 H 78.125 Z"
         transform="matrix(0.46254485,0,0,0.46254485,301.90698,517.31819)"
         clip-rule="evenodd"
         id="path122" />
    </clipPath>
    <clipPath
       clipPathUnits="userSpaceOnUse"
       id="clipPath124">
      <path
         d="m 78.125,43.75 h 418.75 v 250 H 78.125 Z"
         transform="matrix(0.46254485,0,0,0.46254485,301.90698,517.31819)"
         clip-rule="evenodd"
         id="path124" />
    </clipPath>
  </defs>
  <g
     id="g1"
     transform="translate(-26.353691,-15.687526)">
    <path
       id="path3"
       d="M 340,540 H 530 V 650 H 340 Z"
       style="fill:#ffffff;fill-opacity:1;fill-rule:nonzero;stroke:none"
       transform="matrix(0.69182477,0,0,0.69182477,-208.86673,-357.89354)"
       clip-path="url(#clipPath4)" />
    <path
       id="path5"
       d="M 350,630 V 556.37"
       style="fill:none;stroke:#000000;stroke-width:1;stroke-linecap:butt;stroke-linejoin:miter;stroke-miterlimit:10;stroke-dasharray:none;stroke-opacity:1"
       transform="matrix(0.69182477,0,0,0.69182477,-208.86673,-357.89354)"
       clip-path="url(#clipPath6)" />
    <path
       id="path7"
       d="m 350,551.12 3.5,7 -3.5,-1.75 -3.5,1.75 z"
       style="fill:#000000;fill-opacity:1;fill-rule:nonzero;stroke:#000000;stroke-width:1;stroke-linecap:butt;stroke-linejoin:miter;stroke-miterlimit:10;stroke-dasharray:none;stroke-opacity:1"
       transform="matrix(0.69182477,0,0,0.69182477,-208.86673,-357.89354)"
       clip-path="url(#clipPath8)" />
    <path
       id="path9"
       d="M 350,630 H 503.63"
       style="fill:none;stroke:#000000;stroke-width:1;stroke-linecap:butt;stroke-linejoin:miter;stroke-miterlimit:10;stroke-dasharray:none;stroke-opacity:1"
       transform="matrix(0.69182477,0,0,0.69182477,-208.86673,-357.89354)"
       clip-path="url(#clipPath10)" />
    <path
       id="path11"
       d="m 508.88,630 -7,3.5 1.75,-3.5 -1.75,-3.5 z"
       style="fill:#000000;fill-opacity:1;fill-rule:nonzero;stroke:#000000;stroke-width:1;stroke-linecap:butt;stroke-linejoin:miter;stroke-miterlimit:10;stroke-dasharray:none;stroke-opacity:1"
       transform="matrix(0.69182477,0,0,0.69182477,-208.86673,-357.89354)"
       clip-path="url(#clipPath12)" />
    <path
       id="path13"
       d="m 52,289 c 4.666668,28 22.666664,60.33334 54,97 31.33333,36.66666 70,55.33334 116,56 23.33333,0 44.66666,-6 64,-18 19.33334,-12 33.66666,-27 43,-45 28,42 61.66666,63 101,63 24.66666,0 46,-7.33334 64,-22 18,-14.66666 27.33331,-34.33334 28,-59 0,-19.33334 -4.66669,-35 -14,-47 -9.33334,-12 -18.33334,-19.33334 -27,-22 -8.66666,-2.66666 -16.33334,-4 -23,-4 -12.66666,0 -23,3.66666 -31,11 -8,7.33334 -12,17 -12,29 0,30.66666 16.66666,51.66666 50,63 -7.33334,8.66666 -20.66666,13 -40,13 -8.66666,0 -15,-0.66666 -19,-2 -25.33334,-10.66666 -44,-32.66666 -56,-66 -40,-147.33334 -60,-233.33333 -60,-258 0,-18.666668 5.33334,-32 16,-40 10.66666,-8 22.33334,-12 35,-12 24.66666,0 49,11 73,33 24,22 40.33334,49 49,81 2,6.66667 4,10.33333 6,11 2,0.66667 7.33334,1.33333 16,2 h 4 c 10,0 15,-2.66667 15,-8 0,-0.66667 -0.66666,-4.33333 -2,-11 C 491.33334,96 470.66666,62.333336 440,33 409.33334,3.666666 373.66666,-11 333,-11 286.33334,-11 251,10 227,52 199.66667,10.666664 168.33334,-10 133,-10 h -6 C 94.333328,-10 71,-1.333334 57,16 43,33.333336 35.666668,51.666664 35,71 c 0,21.333336 6.333332,38.66666 19,52 12.666664,13.33333 27.666664,20 45,20 28.66667,0 43,-14 43,-42 C 142,87.666664 138,76 130,66 122,56 114.33334,49.333332 107,46 99.666664,42.666668 95.333336,41 94,41 l -3,-1 c 0,-0.666668 2,-2 6,-4 4,-2 9.33334,-4.333334 16,-7 6.66666,-2.666666 13,-3.666666 19,-3 24,0 44.66667,15 62,45 6,10.666664 13.66667,33.33333 23,68 9.33333,34.66667 18.66667,70.66666 28,108 9.33333,37.33334 14.66666,59.33334 16,66 3.33334,18 5,31 5,39 0,18.66666 -5,32 -15,40 -10,8 -21.33333,12 -34,12 -26.66667,0 -51.66667,-10.66666 -75,-32 -23.33334,-21.33334 -39.66666,-48.66666 -49,-82 -1.333336,-6 -3,-9.33334 -5,-10 -2,-0.66666 -7.333336,-1.33334 -16,-2 H 58 c -4,4 -6,7.66666 -6,11 z"
       style="fill:#000000;fill-opacity:1;fill-rule:nonzero;stroke:#000000;stroke-width:1;stroke-linecap:butt;stroke-linejoin:miter;stroke-miterlimit:10;stroke-dasharray:none;stroke-opacity:0.0219"
       transform="matrix(0.00973157,0,0,-0.00973157,86.888355,87.121872)"
       clip-path="url(#clipPath14)" />
    <path
       id="path15"
       d="m 213,578 -13,-5 c -9.33333,-3.33331 -22.66667,-6.66669 -40,-10 -17.33333,-3.33331 -36.66666,-5.66669 -58,-7 H 83 v 46 h 19 c 31.33333,1.33331 60.33333,6.33331 87,15 26.66667,8.66669 45.33333,16.66669 56,24 10.66667,7.33331 20,14.66669 28,22 1.33334,2 5.33334,3 12,3 6,0 11.66666,-2 17,-6 V 361 l 1,-300 c 4.66666,-4.666668 8.66666,-7.666668 12,-9 3.33334,-1.333332 11.33334,-2.666668 24,-4 12.66666,-1.333332 33.33334,-2 62,-2 h 26 V 0 H 416 C 402,2 349,3 257,3 166.33333,3 114,2 100,0 H 88 v 46 h 26 c 14.66667,0 27.33333,0 38,0 10.66667,0 19,0.333332 25,1 6,0.666668 11.33333,1.666668 16,3 4.66667,1.333332 7.33333,2 8,2 0.66667,0 2.66667,1.666668 6,5 3.33333,3.333332 5.33333,4.666668 6,4 z"
       style="fill:#000000;fill-opacity:1;fill-rule:nonzero;stroke:#000000;stroke-width:1;stroke-linecap:butt;stroke-linejoin:miter;stroke-miterlimit:10;stroke-dasharray:none;stroke-opacity:0.0155"
       transform="matrix(0.00688022,0,0,-0.00688022,92.775955,88.581596)"
       clip-path="url(#clipPath16)" />
    <path
       id="path17"
       d="m 69,544 v 46 h 361 v -46 z"
       style="fill:#000000;fill-opacity:1;fill-rule:nonzero;stroke:#000000;stroke-width:1;stroke-linecap:butt;stroke-linejoin:miter;stroke-miterlimit:10;stroke-dasharray:none;stroke-opacity:0.0219"
       transform="matrix(0.00973157,0,0,-0.00973157,89.363091,87.092672)"
       clip-path="url(#clipPath18)" />
    <path
       id="path19"
       d="m 419.91,554.34003 h 1 v 1 h -1 m 2,-1 h 1 v 1 h -1 m 2,-1 h 1 v 1 h -1 m 2,-1 h 1 v 1 h -1 m 2,-1 h 1 v 1 h -1 m 2,-1 h 1 v 1 h -1 m 2,-1 h 1 v 1 h -1 m 2,-1 h 1 v 1 h -1 m 2,-1 h 1 v 1 h -1 m 2,-1 h 1 v 1 h -1 m 2,-1 h 1 v 1 h -1 m 2,-1 h 1 v 1 h -1 m 2,-1 h 1 v 1 h -1 m 2,-1 h 1 v 1 h -1 m 2,-1 h 1 v 1 h -1"
       style="fill:#999999;fill-opacity:1;fill-rule:nonzero;stroke:none"
       transform="matrix(0.69182477,0,0,0.69182477,-208.86673,-357.89354)"
       clip-path="url(#clipPath20)" />
    <path
       id="path21"
       d="m 420,574.46002 h 1 v 1 h -1 m 2,-1 h 1 v 1 h -1 m 2,-1 h 1 v 1 h -1 m 2,-1 h 1 v 1 h -1 m 2,-1 h 1 v 1 h -1 m 2,-1 h 1 v 1 h -1 m 2,-1 h 1 v 1 h -1 m 2,-1 h 1 v 1 h -1 m 2,-1 h 1 v 1 h -1 m 2,-1 h 1 v 1 h -1 m 2,-1 h 1 v 1 h -1 m 2,-1 h 1 v 1 h -1 m 2,-1 h 1 v 1 h -1 m 2,-1 h 1 v 1 h -1 m 2,-1 h 1 v 1 h -1"
       style="fill:#999999;fill-opacity:1;fill-rule:nonzero;stroke:none"
       transform="matrix(0.69182477,0,0,0.69182477,-208.86673,-357.89354)"
       clip-path="url(#clipPath22)" />
    <path
       id="path23"
       d="m 420,594.46002 h 1 v 1 h -1 m 2,-1 h 1 v 1 h -1 m 2,-1 h 1 v 1 h -1 m 2,-1 h 1 v 1 h -1 m 2,-1 h 1 v 1 h -1 m 2,-1 h 1 v 1 h -1 m 2,-1 h 1 v 1 h -1 m 2,-1 h 1 v 1 h -1 m 2,-1 h 1 v 1 h -1 m 2,-1 h 1 v 1 h -1 m 2,-1 h 1 v 1 h -1 m 2,-1 h 1 v 1 h -1 m 2,-1 h 1 v 1 h -1 m 2,-1 h 1 v 1 h -1 m 2,-1 h 1 v 1 h -1"
       style="fill:#999999;fill-opacity:1;fill-rule:nonzero;stroke:none"
       transform="matrix(0.69182477,0,0,0.69182477,-208.86673,-357.89354)"
       clip-path="url(#clipPath24)" />
    <path
       id="path25"
       d="m 420,614.46002 h 1 v 1 h -1 m 2,-1 h 1 v 1 h -1 m 2,-1 h 1 v 1 h -1 m 2,-1 h 1 v 1 h -1 m 2,-1 h 1 v 1 h -1 m 2,-1 h 1 v 1 h -1 m 2,-1 h 1 v 1 h -1 m 2,-1 h 1 v 1 h -1 m 2,-1 h 1 v 1 h -1 m 2,-1 h 1 v 1 h -1 m 2,-1 h 1 v 1 h -1 m 2,-1 h 1 v 1 h -1 m 2,-1 h 1 v 1 h -1 m 2,-1 h 1 v 1 h -1 m 2,-1 h 1 v 1 h -1"
       style="fill:#999999;fill-opacity:1;fill-rule:nonzero;stroke:none"
       transform="matrix(0.69182477,0,0,0.69182477,-208.86673,-357.89354)"
       clip-path="url(#clipPath26)" />
    <path
       id="path27"
       d="m 445.5,554.92999 h 60"
       style="fill:none;stroke:#000000;stroke-width:1;stroke-linecap:butt;stroke-linejoin:miter;stroke-miterlimit:10;stroke-dasharray:none;stroke-opacity:1"
       transform="matrix(0.69182477,0,0,0.69182477,-208.86673,-357.89354)"
       clip-path="url(#clipPath28)" />
    <path
       id="path29"
       d="m 445.5,574.85999 60,0.07"
       style="fill:none;stroke:#000000;stroke-width:1;stroke-linecap:butt;stroke-linejoin:miter;stroke-miterlimit:10;stroke-dasharray:none;stroke-opacity:1"
       transform="matrix(0.69182477,0,0,0.69182477,-208.86673,-357.89354)"
       clip-path="url(#clipPath30)" />
    <path
       id="path31"
       d="m 445.5,594.85999 60,0.07"
       style="fill:none;stroke:#000000;stroke-width:1;stroke-linecap:butt;stroke-linejoin:miter;stroke-miterlimit:10;stroke-dasharray:none;stroke-opacity:1"
       transform="matrix(0.69182477,0,0,0.69182477,-208.86673,-357.89354)"
       clip-path="url(#clipPath32)" />
    <path
       id="path33"
       d="m 445.5,614.78998 60,0.14001"
       style="fill:none;stroke:#000000;stroke-width:1;stroke-linecap:butt;stroke-linejoin:miter;stroke-miterlimit:10;stroke-dasharray:none;stroke-opacity:1"
       transform="matrix(0.69182477,0,0,0.69182477,-208.86673,-357.89354)"
       clip-path="url(#clipPath34)" />
    <path
       id="path35"
       d="m 370.23999,554.78003 59.42001,0.1"
       style="fill:none;stroke:#000000;stroke-width:1;stroke-linecap:butt;stroke-linejoin:miter;stroke-miterlimit:10;stroke-dasharray:none;stroke-opacity:1"
       transform="matrix(0.69182477,0,0,0.69182477,-208.86673,-357.89354)"
       clip-path="url(#clipPath36)" />
    <path
       id="path37"
       d="m 370,574.92999 59.92001,-0.05"
       style="fill:none;stroke:#000000;stroke-width:1;stroke-linecap:butt;stroke-linejoin:miter;stroke-miterlimit:10;stroke-dasharray:none;stroke-opacity:1"
       transform="matrix(0.69182477,0,0,0.69182477,-208.86673,-357.89354)"
       clip-path="url(#clipPath38)" />
    <path
       id="path39"
       d="m 370,594.92999 59.82999,0.03"
       style="fill:none;stroke:#000000;stroke-width:1;stroke-linecap:butt;stroke-linejoin:miter;stroke-miterlimit:10;stroke-dasharray:none;stroke-opacity:1"
       transform="matrix(0.69182477,0,0,0.69182477,-208.86673,-357.89354)"
       clip-path="url(#clipPath40)" />
    <path
       id="path41"
       d="M 370,614.85999 429.92001,614.62"
       style="fill:none;stroke:#000000;stroke-width:1;stroke-linecap:butt;stroke-linejoin:miter;stroke-miterlimit:10;stroke-dasharray:none;stroke-opacity:1"
       transform="matrix(0.69182477,0,0,0.69182477,-208.86673,-357.89354)"
       clip-path="url(#clipPath42)" />
    <path
       id="path43"
       d="M 364.72,609.95001 V 560.19"
       style="fill:none;stroke:#000000;stroke-width:1;stroke-linecap:butt;stroke-linejoin:miter;stroke-miterlimit:10;stroke-dasharray:none;stroke-opacity:1"
       transform="matrix(0.69182477,0,0,0.69182477,-208.86673,-357.89354)"
       clip-path="url(#clipPath44)" />
    <path
       id="path45"
       d="M 384.95001,610 V 560.23999"
       style="fill:none;stroke:#000000;stroke-width:1;stroke-linecap:butt;stroke-linejoin:miter;stroke-miterlimit:10;stroke-dasharray:none;stroke-opacity:1"
       transform="matrix(0.69182477,0,0,0.69182477,-208.86673,-357.89354)"
       clip-path="url(#clipPath46)" />
    <path
       id="path47"
       d="M 405,609.95001 V 560.19"
       style="fill:none;stroke:#000000;stroke-width:1;stroke-linecap:butt;stroke-linejoin:miter;stroke-miterlimit:10;stroke-dasharray:none;stroke-opacity:1"
       transform="matrix(0.69182477,0,0,0.69182477,-208.86673,-357.89354)"
       clip-path="url(#clipPath48)" />
    <path
       id="path49"
       d="M 425.23001,610 V 560.23999"
       style="fill:none;stroke:#000000;stroke-width:1;stroke-linecap:butt;stroke-linejoin:miter;stroke-miterlimit:10;stroke-dasharray:none;stroke-opacity:1"
       transform="matrix(0.69182477,0,0,0.69182477,-208.86673,-357.89354)"
       clip-path="url(#clipPath50)" />
    <path
       id="path51"
       d="M 444.95001,609.76001 V 560"
       style="fill:none;stroke:#000000;stroke-width:1;stroke-linecap:butt;stroke-linejoin:miter;stroke-miterlimit:10;stroke-dasharray:none;stroke-opacity:1"
       transform="matrix(0.69182477,0,0,0.69182477,-208.86673,-357.89354)"
       clip-path="url(#clipPath52)" />
    <path
       id="path53"
       d="M 464.95001,610 V 560.23999"
       style="fill:none;stroke:#000000;stroke-width:1;stroke-linecap:butt;stroke-linejoin:miter;stroke-miterlimit:10;stroke-dasharray:none;stroke-opacity:1"
       transform="matrix(0.69182477,0,0,0.69182477,-208.86673,-357.89354)"
       clip-path="url(#clipPath54)" />
    <path
       id="path55"
       d="M 485,609.76001 V 560"
       style="fill:none;stroke:#000000;stroke-width:1;stroke-linecap:butt;stroke-linejoin:miter;stroke-miterlimit:10;stroke-dasharray:none;stroke-opacity:1"
       transform="matrix(0.69182477,0,0,0.69182477,-208.86673,-357.89354)"
       clip-path="url(#clipPath56)" />
    <path
       id="path57"
       d="M 504.95001,609.76001 V 560"
       style="fill:none;stroke:#000000;stroke-width:1;stroke-linecap:butt;stroke-linejoin:miter;stroke-miterlimit:10;stroke-dasharray:none;stroke-opacity:1"
       transform="matrix(0.69182477,0,0,0.69182477,-208.86673,-357.89354)"
       clip-path="url(#clipPath58)" />
    <path
       id="path59"
       d="m 370,555 c -3e-5,0.66302 -0.12689,1.30078 -0.38062,1.91339 -0.25375,0.61261 -0.61502,1.15332 -1.08386,1.62213 -0.46887,0.46881 -1.00958,0.83008 -1.62213,1.0838 -0.61258,0.25373 -1.2504,0.38062 -1.91339,0.38068 -0.66306,-6e-5 -1.30087,-0.12695 -1.91345,-0.38068 -0.61258,-0.25372 -1.15326,-0.61499 -1.6221,-1.0838 -0.46884,-0.46881 -0.83014,-1.00952 -1.0839,-1.62213 C 360.12686,556.30078 360,555.66302 360,555 c 0,-0.66309 0.12686,-1.3009 0.38058,-1.91351 0.25373,-0.61261 0.61503,-1.15326 1.08387,-1.62207 0.46884,-0.46888 1.00952,-0.83014 1.6221,-1.08387 C 363.69913,550.12683 364.33694,550 365,550 c 0.66299,0 1.30078,0.12683 1.91336,0.38055 0.61258,0.25373 1.15329,0.61499 1.62216,1.08387 0.46884,0.46881 0.83011,1.00946 1.08383,1.62207 0.25376,0.61261 0.38062,1.25042 0.38065,1.91351 z"
       style="fill:#ffffff;fill-opacity:1;fill-rule:nonzero;stroke:#000000;stroke-width:1;stroke-linecap:butt;stroke-linejoin:miter;stroke-miterlimit:10;stroke-dasharray:none;stroke-opacity:1"
       transform="matrix(0.69182477,0,0,0.69182477,-208.86673,-357.89354)"
       clip-path="url(#clipPath60)" />
    <path
       id="path61"
       d="m 390,555 c -3e-5,0.66302 -0.12692,1.30078 -0.38065,1.91339 -0.25375,0.61261 -0.61502,1.15332 -1.08386,1.62213 -0.46887,0.46881 -1.00958,0.83008 -1.62213,1.0838 -0.61258,0.25373 -1.25037,0.38062 -1.91336,0.38068 -0.66309,-6e-5 -1.3009,-0.12695 -1.91348,-0.38068 -0.61258,-0.25372 -1.15326,-0.61499 -1.62207,-1.0838 -0.46884,-0.46881 -0.83014,-1.00952 -1.08387,-1.62213 C 380.12683,556.30078 379.99997,555.66302 380,555 c -3e-5,-0.66309 0.12683,-1.3009 0.38058,-1.91351 0.25373,-0.61261 0.61503,-1.15326 1.08387,-1.62207 0.46881,-0.46888 1.00949,-0.83014 1.62207,-1.08387 C 383.6991,550.12683 384.33691,550 385,550 c 0.66299,0 1.30078,0.12683 1.91336,0.38055 0.61255,0.25373 1.15326,0.61499 1.62213,1.08387 0.46884,0.46881 0.83011,1.00946 1.08386,1.62207 0.25373,0.61261 0.38062,1.25042 0.38065,1.91351 z"
       style="fill:#ffffff;fill-opacity:1;fill-rule:nonzero;stroke:#000000;stroke-width:1;stroke-linecap:butt;stroke-linejoin:miter;stroke-miterlimit:10;stroke-dasharray:none;stroke-opacity:1"
       transform="matrix(0.69182477,0,0,0.69182477,-208.86673,-357.89354)"
       clip-path="url(#clipPath62)" />
    <path
       id="path63"
       d="m 370,575 c -3e-5,0.66302 -0.12689,1.30078 -0.38062,1.91333 -0.25375,0.61261 -0.61502,1.15332 -1.08386,1.62219 -0.46887,0.46881 -1.00958,0.83014 -1.62213,1.08386 -0.61258,0.25373 -1.2504,0.38056 -1.91339,0.38062 -0.66306,-6e-5 -1.30087,-0.12689 -1.91345,-0.38062 -0.61258,-0.25372 -1.15326,-0.61505 -1.6221,-1.08386 -0.46884,-0.46887 -0.83014,-1.00958 -1.0839,-1.62219 C 360.12686,576.30078 360,575.66302 360,575 c 0,-0.66302 0.12686,-1.30084 0.38058,-1.91345 0.25373,-0.61261 0.61503,-1.15326 1.08387,-1.62207 0.46884,-0.46887 1.00952,-0.8302 1.6221,-1.08399 C 363.69913,570.12683 364.33694,570 365,570 c 0.66299,0 1.30078,0.12683 1.91336,0.38049 0.61258,0.25379 1.15329,0.61512 1.62216,1.08399 0.46884,0.46881 0.83011,1.00946 1.08383,1.62207 0.25376,0.61261 0.38062,1.25043 0.38065,1.91345 z"
       style="fill:#ffffff;fill-opacity:1;fill-rule:nonzero;stroke:#000000;stroke-width:1;stroke-linecap:butt;stroke-linejoin:miter;stroke-miterlimit:10;stroke-dasharray:none;stroke-opacity:1"
       transform="matrix(0.69182477,0,0,0.69182477,-208.86673,-357.89354)"
       clip-path="url(#clipPath64)" />
    <path
       id="path65"
       d="m 390,575 c -3e-5,0.66302 -0.12692,1.30078 -0.38065,1.91333 -0.25375,0.61261 -0.61502,1.15332 -1.08386,1.62219 -0.46887,0.46881 -1.00958,0.83014 -1.62213,1.08386 -0.61258,0.25373 -1.25037,0.38056 -1.91336,0.38062 -0.66309,-6e-5 -1.3009,-0.12689 -1.91348,-0.38062 -0.61258,-0.25372 -1.15326,-0.61505 -1.62207,-1.08386 -0.46884,-0.46887 -0.83014,-1.00958 -1.08387,-1.62219 C 380.12683,576.30078 379.99997,575.66302 380,575 c -3e-5,-0.66302 0.12683,-1.30084 0.38058,-1.91345 0.25373,-0.61261 0.61503,-1.15326 1.08387,-1.62207 0.46881,-0.46887 1.00949,-0.8302 1.62207,-1.08399 C 383.6991,570.12683 384.33691,570 385,570 c 0.66299,0 1.30078,0.12683 1.91336,0.38049 0.61255,0.25379 1.15326,0.61512 1.62213,1.08399 0.46884,0.46881 0.83011,1.00946 1.08386,1.62207 0.25373,0.61261 0.38062,1.25043 0.38065,1.91345 z"
       style="fill:#ffffff;fill-opacity:1;fill-rule:nonzero;stroke:#000000;stroke-width:1;stroke-linecap:butt;stroke-linejoin:miter;stroke-miterlimit:10;stroke-dasharray:none;stroke-opacity:1"
       transform="matrix(0.69182477,0,0,0.69182477,-208.86673,-357.89354)"
       clip-path="url(#clipPath66)" />
    <path
       id="path67"
       d="m 410,555 c 0,0.66302 -0.12686,1.30078 -0.38062,1.91339 -0.25375,0.61261 -0.61502,1.15332 -1.08386,1.62213 -0.46884,0.46881 -1.00955,0.83008 -1.62213,1.0838 -0.61258,0.25373 -1.25037,0.38062 -1.91339,0.38068 -0.66306,-6e-5 -1.30087,-0.12695 -1.91345,-0.38068 -0.61258,-0.25372 -1.15329,-0.61499 -1.6221,-1.0838 -0.46888,-0.46881 -0.83017,-1.00952 -1.0839,-1.62213 C 400.1268,556.30078 399.99997,555.66302 400,555 c -3e-5,-0.66309 0.1268,-1.3009 0.38055,-1.91351 0.25373,-0.61261 0.61502,-1.15326 1.0839,-1.62207 0.46881,-0.46888 1.00949,-0.83014 1.62207,-1.08387 C 403.6991,550.12683 404.33694,550 405,550 c 0.66302,0 1.30081,0.12683 1.91339,0.38055 0.61258,0.25373 1.15329,0.61499 1.62213,1.08387 0.46884,0.46881 0.83011,1.00946 1.08383,1.62207 C 409.87311,553.6991 410,554.33691 410,555 Z"
       style="fill:#ffffff;fill-opacity:1;fill-rule:nonzero;stroke:#000000;stroke-width:1;stroke-linecap:butt;stroke-linejoin:miter;stroke-miterlimit:10;stroke-dasharray:none;stroke-opacity:1"
       transform="matrix(0.69182477,0,0,0.69182477,-208.86673,-357.89354)"
       clip-path="url(#clipPath68)" />
    <path
       id="path69"
       d="m 430,555 c -3e-5,0.66302 -0.12689,1.30078 -0.38065,1.91339 -0.25375,0.61261 -0.61502,1.15332 -1.08386,1.62213 -0.46884,0.46881 -1.00955,0.83008 -1.62213,1.0838 -0.61255,0.25373 -1.25034,0.38062 -1.91336,0.38068 -0.66309,-6e-5 -1.3009,-0.12695 -1.91348,-0.38068 -0.61255,-0.25372 -1.15323,-0.61499 -1.62207,-1.0838 -0.46888,-0.46881 -0.83017,-1.00952 -1.0839,-1.62213 C 420.12683,556.30078 419.99997,555.66302 420,555 c -3e-5,-0.66309 0.12683,-1.3009 0.38058,-1.91351 0.2537,-0.61261 0.61499,-1.15326 1.08387,-1.62207 0.46884,-0.46888 1.00952,-0.83014 1.62207,-1.08387 C 423.6991,550.12683 424.33691,550 425,550 c 0.66302,0 1.30081,0.12683 1.91339,0.38055 0.61255,0.25373 1.15326,0.61499 1.6221,1.08387 0.46884,0.46881 0.83011,1.00946 1.08386,1.62207 0.25376,0.61261 0.38062,1.25042 0.38065,1.91351 z"
       style="fill:#ffffff;fill-opacity:1;fill-rule:nonzero;stroke:#000000;stroke-width:1;stroke-linecap:butt;stroke-linejoin:miter;stroke-miterlimit:10;stroke-dasharray:none;stroke-opacity:1"
       transform="matrix(0.69182477,0,0,0.69182477,-208.86673,-357.89354)"
       clip-path="url(#clipPath70)" />
    <path
       id="path71"
       d="m 410,575 c 0,0.66302 -0.12686,1.30078 -0.38062,1.91333 -0.25375,0.61261 -0.61502,1.15332 -1.08386,1.62219 -0.46884,0.46881 -1.00955,0.83014 -1.62213,1.08386 -0.61258,0.25373 -1.25037,0.38056 -1.91339,0.38062 -0.66306,-6e-5 -1.30087,-0.12689 -1.91345,-0.38062 -0.61258,-0.25372 -1.15329,-0.61505 -1.6221,-1.08386 -0.46888,-0.46887 -0.83017,-1.00958 -1.0839,-1.62219 C 400.1268,576.30078 399.99997,575.66302 400,575 c -3e-5,-0.66302 0.1268,-1.30084 0.38055,-1.91345 0.25373,-0.61261 0.61502,-1.15326 1.0839,-1.62207 0.46881,-0.46887 1.00949,-0.8302 1.62207,-1.08399 C 403.6991,570.12683 404.33694,570 405,570 c 0.66302,0 1.30081,0.12683 1.91339,0.38049 0.61258,0.25379 1.15329,0.61512 1.62213,1.08399 0.46884,0.46881 0.83011,1.00946 1.08383,1.62207 C 409.87311,573.69916 410,574.33698 410,575 Z"
       style="fill:#ffffff;fill-opacity:1;fill-rule:nonzero;stroke:#000000;stroke-width:1;stroke-linecap:butt;stroke-linejoin:miter;stroke-miterlimit:10;stroke-dasharray:none;stroke-opacity:1"
       transform="matrix(0.69182477,0,0,0.69182477,-208.86673,-357.89354)"
       clip-path="url(#clipPath72)" />
    <path
       id="path73"
       d="m 430,575 c -3e-5,0.66302 -0.12689,1.30078 -0.38065,1.91333 -0.25375,0.61261 -0.61502,1.15332 -1.08386,1.62219 -0.46884,0.46881 -1.00955,0.83014 -1.62213,1.08386 -0.61255,0.25373 -1.25034,0.38056 -1.91336,0.38062 -0.66309,-6e-5 -1.3009,-0.12689 -1.91348,-0.38062 -0.61255,-0.25372 -1.15323,-0.61505 -1.62207,-1.08386 -0.46888,-0.46887 -0.83017,-1.00958 -1.0839,-1.62219 C 420.12683,576.30078 419.99997,575.66302 420,575 c -3e-5,-0.66302 0.12683,-1.30084 0.38058,-1.91345 0.2537,-0.61261 0.61499,-1.15326 1.08387,-1.62207 0.46884,-0.46887 1.00952,-0.8302 1.62207,-1.08399 C 423.6991,570.12683 424.33691,570 425,570 c 0.66302,0 1.30081,0.12683 1.91339,0.38049 0.61255,0.25379 1.15326,0.61512 1.6221,1.08399 0.46884,0.46881 0.83011,1.00946 1.08386,1.62207 0.25376,0.61261 0.38062,1.25043 0.38065,1.91345 z"
       style="fill:#ffffff;fill-opacity:1;fill-rule:nonzero;stroke:#000000;stroke-width:1;stroke-linecap:butt;stroke-linejoin:miter;stroke-miterlimit:10;stroke-dasharray:none;stroke-opacity:1"
       transform="matrix(0.69182477,0,0,0.69182477,-208.86673,-357.89354)"
       clip-path="url(#clipPath74)" />
    <path
       id="path75"
       d="m 370,595 c -3e-5,0.66302 -0.12689,1.30078 -0.38062,1.91333 -0.25375,0.61261 -0.61502,1.15332 -1.08386,1.62213 -0.46887,0.46881 -1.00958,0.83014 -1.62213,1.08386 -0.61258,0.25373 -1.2504,0.38062 -1.91339,0.38068 -0.66306,-6e-5 -1.30087,-0.12695 -1.91345,-0.38068 -0.61258,-0.25372 -1.15326,-0.61505 -1.6221,-1.08386 -0.46884,-0.46881 -0.83014,-1.00952 -1.0839,-1.62213 C 360.12686,596.30078 360,595.66302 360,595 c 0,-0.66309 0.12686,-1.3009 0.38058,-1.91351 0.25373,-0.61261 0.61503,-1.15326 1.08387,-1.62207 0.46884,-0.46888 1.00952,-0.83014 1.6221,-1.08387 C 363.69913,590.12683 364.33694,590 365,590 c 0.66299,0 1.30078,0.12683 1.91336,0.38055 0.61258,0.25373 1.15329,0.61499 1.62216,1.08387 0.46884,0.46881 0.83011,1.00946 1.08383,1.62207 0.25376,0.61261 0.38062,1.25042 0.38065,1.91351 z"
       style="fill:#ffffff;fill-opacity:1;fill-rule:nonzero;stroke:#000000;stroke-width:1;stroke-linecap:butt;stroke-linejoin:miter;stroke-miterlimit:10;stroke-dasharray:none;stroke-opacity:1"
       transform="matrix(0.69182477,0,0,0.69182477,-208.86673,-357.89354)"
       clip-path="url(#clipPath76)" />
    <path
       id="path77"
       d="m 390,595 c -3e-5,0.66302 -0.12692,1.30078 -0.38065,1.91333 -0.25375,0.61261 -0.61502,1.15332 -1.08386,1.62213 -0.46887,0.46881 -1.00958,0.83014 -1.62213,1.08386 -0.61258,0.25373 -1.25037,0.38062 -1.91336,0.38068 -0.66309,-6e-5 -1.3009,-0.12695 -1.91348,-0.38068 -0.61258,-0.25372 -1.15326,-0.61505 -1.62207,-1.08386 -0.46884,-0.46881 -0.83014,-1.00952 -1.08387,-1.62213 C 380.12683,596.30078 379.99997,595.66302 380,595 c -3e-5,-0.66309 0.12683,-1.3009 0.38058,-1.91351 0.25373,-0.61261 0.61503,-1.15326 1.08387,-1.62207 0.46881,-0.46888 1.00949,-0.83014 1.62207,-1.08387 C 383.6991,590.12683 384.33691,590 385,590 c 0.66299,0 1.30078,0.12683 1.91336,0.38055 0.61255,0.25373 1.15326,0.61499 1.62213,1.08387 0.46884,0.46881 0.83011,1.00946 1.08386,1.62207 0.25373,0.61261 0.38062,1.25042 0.38065,1.91351 z"
       style="fill:#ffffff;fill-opacity:1;fill-rule:nonzero;stroke:#000000;stroke-width:1;stroke-linecap:butt;stroke-linejoin:miter;stroke-miterlimit:10;stroke-dasharray:none;stroke-opacity:1"
       transform="matrix(0.69182477,0,0,0.69182477,-208.86673,-357.89354)"
       clip-path="url(#clipPath78)" />
    <path
       id="path79"
       d="m 370,615 c -3e-5,0.66302 -0.12689,1.30078 -0.38062,1.91333 -0.25375,0.61255 -0.61502,1.15326 -1.08386,1.62219 -0.46887,0.46881 -1.00958,0.83008 -1.62213,1.08386 C 366.30081,619.87311 365.66299,620 365,620 c -0.66306,0 -1.30087,-0.12689 -1.91345,-0.38062 -0.61258,-0.25378 -1.15326,-0.61505 -1.6221,-1.08386 -0.46884,-0.46893 -0.83014,-1.00964 -1.0839,-1.62219 C 360.12686,616.30078 360,615.66302 360,615 c 0,-0.66309 0.12686,-1.3009 0.38058,-1.91345 0.25373,-0.61255 0.61503,-1.15326 1.08387,-1.62207 0.46884,-0.46887 1.00952,-0.83014 1.6221,-1.08386 C 363.69913,610.12689 364.33694,610 365,610 c 0.66299,0 1.30078,0.12689 1.91336,0.38062 0.61258,0.25372 1.15329,0.61499 1.62216,1.08386 0.46884,0.46881 0.83011,1.00952 1.08383,1.62207 0.25376,0.61255 0.38062,1.25036 0.38065,1.91345 z"
       style="fill:#ffffff;fill-opacity:1;fill-rule:nonzero;stroke:#000000;stroke-width:1;stroke-linecap:butt;stroke-linejoin:miter;stroke-miterlimit:10;stroke-dasharray:none;stroke-opacity:1"
       transform="matrix(0.69182477,0,0,0.69182477,-208.86673,-357.89354)"
       clip-path="url(#clipPath80)" />
    <path
       id="path81"
       d="m 390,615 c -3e-5,0.66302 -0.12692,1.30078 -0.38065,1.91333 -0.25375,0.61255 -0.61502,1.15326 -1.08386,1.62219 -0.46887,0.46881 -1.00958,0.83008 -1.62213,1.08386 C 386.30078,619.87311 385.66299,620 385,620 c -0.66309,0 -1.3009,-0.12689 -1.91348,-0.38062 -0.61258,-0.25378 -1.15326,-0.61505 -1.62207,-1.08386 -0.46884,-0.46893 -0.83014,-1.00964 -1.08387,-1.62219 C 380.12683,616.30078 379.99997,615.66302 380,615 c -3e-5,-0.66309 0.12683,-1.3009 0.38058,-1.91345 0.25373,-0.61255 0.61503,-1.15326 1.08387,-1.62207 0.46881,-0.46887 1.00949,-0.83014 1.62207,-1.08386 C 383.6991,610.12689 384.33691,610 385,610 c 0.66299,0 1.30078,0.12689 1.91336,0.38062 0.61255,0.25372 1.15326,0.61499 1.62213,1.08386 0.46884,0.46881 0.83011,1.00952 1.08386,1.62207 0.25373,0.61255 0.38062,1.25036 0.38065,1.91345 z"
       style="fill:#ffffff;fill-opacity:1;fill-rule:nonzero;stroke:#000000;stroke-width:1;stroke-linecap:butt;stroke-linejoin:miter;stroke-miterlimit:10;stroke-dasharray:none;stroke-opacity:1"
       transform="matrix(0.69182477,0,0,0.69182477,-208.86673,-357.89354)"
       clip-path="url(#clipPath82)" />
    <path
       id="path83"
       d="m 410,595 c 0,0.66302 -0.12686,1.30078 -0.38062,1.91333 -0.25375,0.61261 -0.61502,1.15332 -1.08386,1.62213 -0.46884,0.46881 -1.00955,0.83014 -1.62213,1.08386 -0.61258,0.25373 -1.25037,0.38062 -1.91339,0.38068 -0.66306,-6e-5 -1.30087,-0.12695 -1.91345,-0.38068 -0.61258,-0.25372 -1.15329,-0.61505 -1.6221,-1.08386 -0.46888,-0.46881 -0.83017,-1.00952 -1.0839,-1.62213 C 400.1268,596.30078 399.99997,595.66302 400,595 c -3e-5,-0.66309 0.1268,-1.3009 0.38055,-1.91351 0.25373,-0.61261 0.61502,-1.15326 1.0839,-1.62207 0.46881,-0.46888 1.00949,-0.83014 1.62207,-1.08387 C 403.6991,590.12683 404.33694,590 405,590 c 0.66302,0 1.30081,0.12683 1.91339,0.38055 0.61258,0.25373 1.15329,0.61499 1.62213,1.08387 0.46884,0.46881 0.83011,1.00946 1.08383,1.62207 C 409.87311,593.6991 410,594.33691 410,595 Z"
       style="fill:#ffffff;fill-opacity:1;fill-rule:nonzero;stroke:#000000;stroke-width:1;stroke-linecap:butt;stroke-linejoin:miter;stroke-miterlimit:10;stroke-dasharray:none;stroke-opacity:1"
       transform="matrix(0.69182477,0,0,0.69182477,-208.86673,-357.89354)"
       clip-path="url(#clipPath84)" />
    <path
       id="path85"
       d="m 430,595 c -3e-5,0.66302 -0.12689,1.30078 -0.38065,1.91333 -0.25375,0.61261 -0.61502,1.15332 -1.08386,1.62213 -0.46884,0.46881 -1.00955,0.83014 -1.62213,1.08386 -0.61255,0.25373 -1.25034,0.38062 -1.91336,0.38068 -0.66309,-6e-5 -1.3009,-0.12695 -1.91348,-0.38068 -0.61255,-0.25372 -1.15323,-0.61505 -1.62207,-1.08386 -0.46888,-0.46881 -0.83017,-1.00952 -1.0839,-1.62213 C 420.12683,596.30078 419.99997,595.66302 420,595 c -3e-5,-0.66309 0.12683,-1.3009 0.38058,-1.91351 0.2537,-0.61261 0.61499,-1.15326 1.08387,-1.62207 0.46884,-0.46888 1.00952,-0.83014 1.62207,-1.08387 C 423.6991,590.12683 424.33691,590 425,590 c 0.66302,0 1.30081,0.12683 1.91339,0.38055 0.61255,0.25373 1.15326,0.61499 1.6221,1.08387 0.46884,0.46881 0.83011,1.00946 1.08386,1.62207 0.25376,0.61261 0.38062,1.25042 0.38065,1.91351 z"
       style="fill:#ffffff;fill-opacity:1;fill-rule:nonzero;stroke:#000000;stroke-width:1;stroke-linecap:butt;stroke-linejoin:miter;stroke-miterlimit:10;stroke-dasharray:none;stroke-opacity:1"
       transform="matrix(0.69182477,0,0,0.69182477,-208.86673,-357.89354)"
       clip-path="url(#clipPath86)" />
    <path
       id="path87"
       d="m 410,615 c 0,0.66302 -0.12686,1.30078 -0.38062,1.91333 -0.25375,0.61255 -0.61502,1.15326 -1.08386,1.62219 -0.46884,0.46881 -1.00955,0.83008 -1.62213,1.08386 C 406.30081,619.87311 405.66302,620 405,620 c -0.66306,0 -1.30087,-0.12689 -1.91345,-0.38062 -0.61258,-0.25378 -1.15329,-0.61505 -1.6221,-1.08386 -0.46888,-0.46893 -0.83017,-1.00964 -1.0839,-1.62219 C 400.1268,616.30078 399.99997,615.66302 400,615 c -3e-5,-0.66309 0.1268,-1.3009 0.38055,-1.91345 0.25373,-0.61255 0.61502,-1.15326 1.0839,-1.62207 0.46881,-0.46887 1.00949,-0.83014 1.62207,-1.08386 C 403.6991,610.12689 404.33694,610 405,610 c 0.66302,0 1.30081,0.12689 1.91339,0.38062 0.61258,0.25372 1.15329,0.61499 1.62213,1.08386 0.46884,0.46881 0.83011,1.00952 1.08383,1.62207 C 409.87311,613.6991 410,614.33691 410,615 Z"
       style="fill:#ffffff;fill-opacity:1;fill-rule:nonzero;stroke:#000000;stroke-width:1;stroke-linecap:butt;stroke-linejoin:miter;stroke-miterlimit:10;stroke-dasharray:none;stroke-opacity:1"
       transform="matrix(0.69182477,0,0,0.69182477,-208.86673,-357.89354)"
       clip-path="url(#clipPath88)" />
    <path
       id="path89"
       d="m 430,615 c -3e-5,0.66302 -0.12689,1.30078 -0.38065,1.91333 -0.25375,0.61255 -0.61502,1.15326 -1.08386,1.62219 -0.46884,0.46881 -1.00955,0.83008 -1.62213,1.08386 C 426.30081,619.87311 425.66302,620 425,620 c -0.66309,0 -1.3009,-0.12689 -1.91348,-0.38062 -0.61255,-0.25378 -1.15323,-0.61505 -1.62207,-1.08386 -0.46888,-0.46893 -0.83017,-1.00964 -1.0839,-1.62219 C 420.12683,616.30078 419.99997,615.66302 420,615 c -3e-5,-0.66309 0.12683,-1.3009 0.38058,-1.91345 0.2537,-0.61255 0.61499,-1.15326 1.08387,-1.62207 0.46884,-0.46887 1.00952,-0.83014 1.62207,-1.08386 C 423.6991,610.12689 424.33691,610 425,610 c 0.66302,0 1.30081,0.12689 1.91339,0.38062 0.61255,0.25372 1.15326,0.61499 1.6221,1.08386 0.46884,0.46881 0.83011,1.00952 1.08386,1.62207 0.25376,0.61255 0.38062,1.25036 0.38065,1.91345 z"
       style="fill:#ffffff;fill-opacity:1;fill-rule:nonzero;stroke:#000000;stroke-width:1;stroke-linecap:butt;stroke-linejoin:miter;stroke-miterlimit:10;stroke-dasharray:none;stroke-opacity:1"
       transform="matrix(0.69182477,0,0,0.69182477,-208.86673,-357.89354)"
       clip-path="url(#clipPath90)" />
    <path
       id="path91"
       d="m 450,555 c -3e-5,0.66302 -0.12689,1.30078 -0.38065,1.91339 -0.25375,0.61261 -0.61502,1.15332 -1.08383,1.62213 -0.46887,0.46881 -1.00958,0.83008 -1.62216,1.0838 -0.61258,0.25373 -1.25037,0.38062 -1.91336,0.38068 -0.66306,-6e-5 -1.30087,-0.12695 -1.91345,-0.38068 -0.61258,-0.25372 -1.15329,-0.61499 -1.62213,-1.0838 -0.46885,-0.46881 -0.83014,-1.00952 -1.08387,-1.62213 C 440.1268,556.30078 439.99997,555.66302 440,555 c -3e-5,-0.66309 0.1268,-1.3009 0.38052,-1.91351 0.25376,-0.61261 0.61505,-1.15326 1.0839,-1.62207 0.46884,-0.46888 1.00955,-0.83014 1.62213,-1.08387 C 443.69913,550.12683 444.33694,550 445,550 c 0.66299,0 1.30078,0.12683 1.91336,0.38055 0.61258,0.25373 1.15329,0.61499 1.62216,1.08387 0.46881,0.46881 0.83008,1.00946 1.08383,1.62207 0.25376,0.61261 0.38062,1.25042 0.38065,1.91351 z"
       style="fill:#ffffff;fill-opacity:1;fill-rule:nonzero;stroke:#000000;stroke-width:1;stroke-linecap:butt;stroke-linejoin:miter;stroke-miterlimit:10;stroke-dasharray:none;stroke-opacity:1"
       transform="matrix(0.69182477,0,0,0.69182477,-208.86673,-357.89354)"
       clip-path="url(#clipPath92)" />
    <path
       id="path93"
       d="m 470,555 c -3e-5,0.66302 -0.12689,1.30078 -0.38065,1.91339 -0.25375,0.61261 -0.61502,1.15332 -1.08383,1.62213 -0.46887,0.46881 -1.00958,0.83008 -1.62216,1.0838 -0.61258,0.25373 -1.25037,0.38062 -1.91336,0.38068 -0.66306,-6e-5 -1.3009,-0.12695 -1.91348,-0.38068 -0.61258,-0.25372 -1.15326,-0.61499 -1.6221,-1.0838 -0.46885,-0.46881 -0.83014,-1.00952 -1.08387,-1.62213 C 460.1268,556.30078 459.99997,555.66302 460,555 c -3e-5,-0.66309 0.1268,-1.3009 0.38055,-1.91351 0.25373,-0.61261 0.61502,-1.15326 1.08387,-1.62207 0.46884,-0.46888 1.00952,-0.83014 1.6221,-1.08387 C 463.6991,550.12683 464.33694,550 465,550 c 0.66299,0 1.30078,0.12683 1.91336,0.38055 0.61258,0.25373 1.15329,0.61499 1.62216,1.08387 0.46881,0.46881 0.83008,1.00946 1.08383,1.62207 0.25376,0.61261 0.38062,1.25042 0.38065,1.91351 z"
       style="fill:#ffffff;fill-opacity:1;fill-rule:nonzero;stroke:#000000;stroke-width:1;stroke-linecap:butt;stroke-linejoin:miter;stroke-miterlimit:10;stroke-dasharray:none;stroke-opacity:1"
       transform="matrix(0.69182477,0,0,0.69182477,-208.86673,-357.89354)"
       clip-path="url(#clipPath94)" />
    <path
       id="path95"
       d="m 450,575 c -3e-5,0.66302 -0.12689,1.30078 -0.38065,1.91333 -0.25375,0.61261 -0.61502,1.15332 -1.08383,1.62219 -0.46887,0.46881 -1.00958,0.83014 -1.62216,1.08386 -0.61258,0.25373 -1.25037,0.38056 -1.91336,0.38062 -0.66306,-6e-5 -1.30087,-0.12689 -1.91345,-0.38062 -0.61258,-0.25372 -1.15329,-0.61505 -1.62213,-1.08386 -0.46885,-0.46887 -0.83014,-1.00958 -1.08387,-1.62219 C 440.1268,576.30078 439.99997,575.66302 440,575 c -3e-5,-0.66302 0.1268,-1.30084 0.38052,-1.91345 0.25376,-0.61261 0.61505,-1.15326 1.0839,-1.62207 0.46884,-0.46887 1.00955,-0.8302 1.62213,-1.08399 C 443.69913,570.12683 444.33694,570 445,570 c 0.66299,0 1.30078,0.12683 1.91336,0.38049 0.61258,0.25379 1.15329,0.61512 1.62216,1.08399 0.46881,0.46881 0.83008,1.00946 1.08383,1.62207 0.25376,0.61261 0.38062,1.25043 0.38065,1.91345 z"
       style="fill:#ffffff;fill-opacity:1;fill-rule:nonzero;stroke:#000000;stroke-width:1;stroke-linecap:butt;stroke-linejoin:miter;stroke-miterlimit:10;stroke-dasharray:none;stroke-opacity:1"
       transform="matrix(0.69182477,0,0,0.69182477,-208.86673,-357.89354)"
       clip-path="url(#clipPath96)" />
    <path
       id="path97"
       d="m 470,575 c -3e-5,0.66302 -0.12689,1.30078 -0.38065,1.91333 -0.25375,0.61261 -0.61502,1.15332 -1.08383,1.62219 -0.46887,0.46881 -1.00958,0.83014 -1.62216,1.08386 -0.61258,0.25373 -1.25037,0.38056 -1.91336,0.38062 -0.66306,-6e-5 -1.3009,-0.12689 -1.91348,-0.38062 -0.61258,-0.25372 -1.15326,-0.61505 -1.6221,-1.08386 -0.46885,-0.46887 -0.83014,-1.00958 -1.08387,-1.62219 C 460.1268,576.30078 459.99997,575.66302 460,575 c -3e-5,-0.66302 0.1268,-1.30084 0.38055,-1.91345 0.25373,-0.61261 0.61502,-1.15326 1.08387,-1.62207 0.46884,-0.46887 1.00952,-0.8302 1.6221,-1.08399 C 463.6991,570.12683 464.33694,570 465,570 c 0.66299,0 1.30078,0.12683 1.91336,0.38049 0.61258,0.25379 1.15329,0.61512 1.62216,1.08399 0.46881,0.46881 0.83008,1.00946 1.08383,1.62207 0.25376,0.61261 0.38062,1.25043 0.38065,1.91345 z"
       style="fill:#ffffff;fill-opacity:1;fill-rule:nonzero;stroke:#000000;stroke-width:1;stroke-linecap:butt;stroke-linejoin:miter;stroke-miterlimit:10;stroke-dasharray:none;stroke-opacity:1"
       transform="matrix(0.69182477,0,0,0.69182477,-208.86673,-357.89354)"
       clip-path="url(#clipPath98)" />
    <path
       id="path99"
       d="m 490,555 c -3e-5,0.66302 -0.12692,1.30078 -0.38068,1.91339 -0.25372,0.61261 -0.61499,1.15332 -1.08383,1.62213 -0.46887,0.46881 -1.00958,0.83008 -1.62216,1.0838 -0.61252,0.25373 -1.25031,0.38062 -1.91333,0.38068 -0.66309,-6e-5 -1.3009,-0.12695 -1.91348,-0.38068 -0.61258,-0.25372 -1.15326,-0.61499 -1.62207,-1.0838 -0.46884,-0.46881 -0.83014,-1.00952 -1.0839,-1.62213 C 480.1268,556.30078 479.99997,555.66302 480,555 c -3e-5,-0.66309 0.1268,-1.3009 0.38055,-1.91351 0.25376,-0.61261 0.61506,-1.15326 1.0839,-1.62207 0.46881,-0.46888 1.00949,-0.83014 1.62207,-1.08387 C 483.6991,550.12683 484.33691,550 485,550 c 0.66302,0 1.30081,0.12683 1.91336,0.38055 0.61255,0.25373 1.15326,0.61499 1.62213,1.08387 0.46884,0.46881 0.83011,1.00946 1.08383,1.62207 0.25376,0.61261 0.38065,1.25042 0.38068,1.91351 z"
       style="fill:#ffffff;fill-opacity:1;fill-rule:nonzero;stroke:#000000;stroke-width:1;stroke-linecap:butt;stroke-linejoin:miter;stroke-miterlimit:10;stroke-dasharray:none;stroke-opacity:1"
       transform="matrix(0.69182477,0,0,0.69182477,-208.86673,-357.89354)"
       clip-path="url(#clipPath100)" />
    <path
       id="path101"
       d="m 510,555 c -3e-5,0.66302 -0.12689,1.30078 -0.38065,1.91339 -0.25375,0.61261 -0.61502,1.15332 -1.08386,1.62213 -0.46887,0.46881 -1.00958,0.83008 -1.62213,1.0838 -0.61258,0.25373 -1.25037,0.38062 -1.91336,0.38068 -0.66309,-6e-5 -1.3009,-0.12695 -1.91348,-0.38068 -0.61258,-0.25372 -1.15329,-0.61499 -1.6221,-1.0838 -0.46885,-0.46881 -0.83014,-1.00952 -1.0839,-1.62213 C 500.12677,556.30078 499.99994,555.66302 500,555 c -6e-5,-0.66309 0.12677,-1.3009 0.38049,-1.91351 0.25376,-0.61261 0.61508,-1.15326 1.08393,-1.62207 0.46881,-0.46888 1.00952,-0.83014 1.6221,-1.08387 C 503.6991,550.12683 504.33691,550 505,550 c 0.66299,0 1.30078,0.12683 1.91336,0.38055 0.61255,0.25373 1.15326,0.61499 1.62213,1.08387 0.46884,0.46881 0.83011,1.00946 1.08383,1.62207 0.25376,0.61261 0.38065,1.25042 0.38068,1.91351 z"
       style="fill:#ffffff;fill-opacity:1;fill-rule:nonzero;stroke:#000000;stroke-width:1;stroke-linecap:butt;stroke-linejoin:miter;stroke-miterlimit:10;stroke-dasharray:none;stroke-opacity:1"
       transform="matrix(0.69182477,0,0,0.69182477,-208.86673,-357.89354)"
       clip-path="url(#clipPath102)" />
    <path
       id="path103"
       d="m 490,575 c -3e-5,0.66302 -0.12692,1.30078 -0.38068,1.91333 -0.25372,0.61261 -0.61499,1.15332 -1.08383,1.62219 -0.46887,0.46881 -1.00958,0.83014 -1.62216,1.08386 -0.61252,0.25373 -1.25031,0.38056 -1.91333,0.38062 -0.66309,-6e-5 -1.3009,-0.12689 -1.91348,-0.38062 -0.61258,-0.25372 -1.15326,-0.61505 -1.62207,-1.08386 -0.46884,-0.46887 -0.83014,-1.00958 -1.0839,-1.62219 C 480.1268,576.30078 479.99997,575.66302 480,575 c -3e-5,-0.66302 0.1268,-1.30084 0.38055,-1.91345 0.25376,-0.61261 0.61506,-1.15326 1.0839,-1.62207 0.46881,-0.46887 1.00949,-0.8302 1.62207,-1.08399 C 483.6991,570.12683 484.33691,570 485,570 c 0.66302,0 1.30081,0.12683 1.91336,0.38049 0.61255,0.25379 1.15326,0.61512 1.62213,1.08399 0.46884,0.46881 0.83011,1.00946 1.08383,1.62207 0.25376,0.61261 0.38065,1.25043 0.38068,1.91345 z"
       style="fill:#ffffff;fill-opacity:1;fill-rule:nonzero;stroke:#000000;stroke-width:1;stroke-linecap:butt;stroke-linejoin:miter;stroke-miterlimit:10;stroke-dasharray:none;stroke-opacity:1"
       transform="matrix(0.69182477,0,0,0.69182477,-208.86673,-357.89354)"
       clip-path="url(#clipPath104)" />
    <path
       id="path105"
       d="m 510,575 c -3e-5,0.66302 -0.12689,1.30078 -0.38065,1.91333 -0.25375,0.61261 -0.61502,1.15332 -1.08386,1.62219 -0.46887,0.46881 -1.00958,0.83014 -1.62213,1.08386 -0.61258,0.25373 -1.25037,0.38056 -1.91336,0.38062 -0.66309,-6e-5 -1.3009,-0.12689 -1.91348,-0.38062 -0.61258,-0.25372 -1.15329,-0.61505 -1.6221,-1.08386 -0.46885,-0.46887 -0.83014,-1.00958 -1.0839,-1.62219 C 500.12677,576.30078 499.99994,575.66302 500,575 c -6e-5,-0.66302 0.12677,-1.30084 0.38049,-1.91345 0.25376,-0.61261 0.61508,-1.15326 1.08393,-1.62207 0.46881,-0.46887 1.00952,-0.8302 1.6221,-1.08399 C 503.6991,570.12683 504.33691,570 505,570 c 0.66299,0 1.30078,0.12683 1.91336,0.38049 0.61255,0.25379 1.15326,0.61512 1.62213,1.08399 0.46884,0.46881 0.83011,1.00946 1.08383,1.62207 0.25376,0.61261 0.38065,1.25043 0.38068,1.91345 z"
       style="fill:#ffffff;fill-opacity:1;fill-rule:nonzero;stroke:#000000;stroke-width:1;stroke-linecap:butt;stroke-linejoin:miter;stroke-miterlimit:10;stroke-dasharray:none;stroke-opacity:1"
       transform="matrix(0.69182477,0,0,0.69182477,-208.86673,-357.89354)"
       clip-path="url(#clipPath106)" />
    <path
       id="path107"
       d="m 450,595 c -3e-5,0.66302 -0.12689,1.30078 -0.38065,1.91333 -0.25375,0.61261 -0.61502,1.15332 -1.08383,1.62213 -0.46887,0.46881 -1.00958,0.83014 -1.62216,1.08386 -0.61258,0.25373 -1.25037,0.38062 -1.91336,0.38068 -0.66306,-6e-5 -1.30087,-0.12695 -1.91345,-0.38068 -0.61258,-0.25372 -1.15329,-0.61505 -1.62213,-1.08386 -0.46885,-0.46881 -0.83014,-1.00952 -1.08387,-1.62213 C 440.1268,596.30078 439.99997,595.66302 440,595 c -3e-5,-0.66309 0.1268,-1.3009 0.38052,-1.91351 0.25376,-0.61261 0.61505,-1.15326 1.0839,-1.62207 0.46884,-0.46888 1.00955,-0.83014 1.62213,-1.08387 C 443.69913,590.12683 444.33694,590 445,590 c 0.66299,0 1.30078,0.12683 1.91336,0.38055 0.61258,0.25373 1.15329,0.61499 1.62216,1.08387 0.46881,0.46881 0.83008,1.00946 1.08383,1.62207 0.25376,0.61261 0.38062,1.25042 0.38065,1.91351 z"
       style="fill:#ffffff;fill-opacity:1;fill-rule:nonzero;stroke:#000000;stroke-width:1;stroke-linecap:butt;stroke-linejoin:miter;stroke-miterlimit:10;stroke-dasharray:none;stroke-opacity:1"
       transform="matrix(0.69182477,0,0,0.69182477,-208.86673,-357.89354)"
       clip-path="url(#clipPath108)" />
    <path
       id="path109"
       d="m 470,595 c -3e-5,0.66302 -0.12689,1.30078 -0.38065,1.91333 -0.25375,0.61261 -0.61502,1.15332 -1.08383,1.62213 -0.46887,0.46881 -1.00958,0.83014 -1.62216,1.08386 -0.61258,0.25373 -1.25037,0.38062 -1.91336,0.38068 -0.66306,-6e-5 -1.3009,-0.12695 -1.91348,-0.38068 -0.61258,-0.25372 -1.15326,-0.61505 -1.6221,-1.08386 -0.46885,-0.46881 -0.83014,-1.00952 -1.08387,-1.62213 C 460.1268,596.30078 459.99997,595.66302 460,595 c -3e-5,-0.66309 0.1268,-1.3009 0.38055,-1.91351 0.25373,-0.61261 0.61502,-1.15326 1.08387,-1.62207 0.46884,-0.46888 1.00952,-0.83014 1.6221,-1.08387 C 463.6991,590.12683 464.33694,590 465,590 c 0.66299,0 1.30078,0.12683 1.91336,0.38055 0.61258,0.25373 1.15329,0.61499 1.62216,1.08387 0.46881,0.46881 0.83008,1.00946 1.08383,1.62207 0.25376,0.61261 0.38062,1.25042 0.38065,1.91351 z"
       style="fill:#ffffff;fill-opacity:1;fill-rule:nonzero;stroke:#000000;stroke-width:1;stroke-linecap:butt;stroke-linejoin:miter;stroke-miterlimit:10;stroke-dasharray:none;stroke-opacity:1"
       transform="matrix(0.69182477,0,0,0.69182477,-208.86673,-357.89354)"
       clip-path="url(#clipPath110)" />
    <path
       id="path111"
       d="m 450,615 c -3e-5,0.66302 -0.12689,1.30078 -0.38065,1.91333 -0.25375,0.61255 -0.61502,1.15326 -1.08383,1.62219 -0.46887,0.46881 -1.00958,0.83008 -1.62216,1.08386 C 446.30078,619.87311 445.66299,620 445,620 c -0.66306,0 -1.30087,-0.12689 -1.91345,-0.38062 -0.61258,-0.25378 -1.15329,-0.61505 -1.62213,-1.08386 -0.46885,-0.46893 -0.83014,-1.00964 -1.08387,-1.62219 C 440.1268,616.30078 439.99997,615.66302 440,615 c -3e-5,-0.66309 0.1268,-1.3009 0.38052,-1.91345 0.25376,-0.61255 0.61505,-1.15326 1.0839,-1.62207 0.46884,-0.46887 1.00955,-0.83014 1.62213,-1.08386 C 443.69913,610.12689 444.33694,610 445,610 c 0.66299,0 1.30078,0.12689 1.91336,0.38062 0.61258,0.25372 1.15329,0.61499 1.62216,1.08386 0.46881,0.46881 0.83008,1.00952 1.08383,1.62207 0.25376,0.61255 0.38062,1.25036 0.38065,1.91345 z"
       style="fill:#ffffff;fill-opacity:1;fill-rule:nonzero;stroke:#000000;stroke-width:1;stroke-linecap:butt;stroke-linejoin:miter;stroke-miterlimit:10;stroke-dasharray:none;stroke-opacity:1"
       transform="matrix(0.69182477,0,0,0.69182477,-208.86673,-357.89354)"
       clip-path="url(#clipPath112)" />
    <path
       id="path113"
       d="m 470,615 c -3e-5,0.66302 -0.12689,1.30078 -0.38065,1.91333 -0.25375,0.61255 -0.61502,1.15326 -1.08383,1.62219 -0.46887,0.46881 -1.00958,0.83008 -1.62216,1.08386 C 466.30078,619.87311 465.66299,620 465,620 c -0.66306,0 -1.3009,-0.12689 -1.91348,-0.38062 -0.61258,-0.25378 -1.15326,-0.61505 -1.6221,-1.08386 -0.46885,-0.46893 -0.83014,-1.00964 -1.08387,-1.62219 C 460.1268,616.30078 459.99997,615.66302 460,615 c -3e-5,-0.66309 0.1268,-1.3009 0.38055,-1.91345 0.25373,-0.61255 0.61502,-1.15326 1.08387,-1.62207 0.46884,-0.46887 1.00952,-0.83014 1.6221,-1.08386 C 463.6991,610.12689 464.33694,610 465,610 c 0.66299,0 1.30078,0.12689 1.91336,0.38062 0.61258,0.25372 1.15329,0.61499 1.62216,1.08386 0.46881,0.46881 0.83008,1.00952 1.08383,1.62207 0.25376,0.61255 0.38062,1.25036 0.38065,1.91345 z"
       style="fill:#ffffff;fill-opacity:1;fill-rule:nonzero;stroke:#000000;stroke-width:1;stroke-linecap:butt;stroke-linejoin:miter;stroke-miterlimit:10;stroke-dasharray:none;stroke-opacity:1"
       transform="matrix(0.69182477,0,0,0.69182477,-208.86673,-357.89354)"
       clip-path="url(#clipPath114)" />
    <path
       id="path115"
       d="m 490,595 c -3e-5,0.66302 -0.12692,1.30078 -0.38068,1.91333 -0.25372,0.61261 -0.61499,1.15332 -1.08383,1.62213 -0.46887,0.46881 -1.00958,0.83014 -1.62216,1.08386 -0.61252,0.25373 -1.25031,0.38062 -1.91333,0.38068 -0.66309,-6e-5 -1.3009,-0.12695 -1.91348,-0.38068 -0.61258,-0.25372 -1.15326,-0.61505 -1.62207,-1.08386 -0.46884,-0.46881 -0.83014,-1.00952 -1.0839,-1.62213 C 480.1268,596.30078 479.99997,595.66302 480,595 c -3e-5,-0.66309 0.1268,-1.3009 0.38055,-1.91351 0.25376,-0.61261 0.61506,-1.15326 1.0839,-1.62207 0.46881,-0.46888 1.00949,-0.83014 1.62207,-1.08387 C 483.6991,590.12683 484.33691,590 485,590 c 0.66302,0 1.30081,0.12683 1.91336,0.38055 0.61255,0.25373 1.15326,0.61499 1.62213,1.08387 0.46884,0.46881 0.83011,1.00946 1.08383,1.62207 0.25376,0.61261 0.38065,1.25042 0.38068,1.91351 z"
       style="fill:#ffffff;fill-opacity:1;fill-rule:nonzero;stroke:#000000;stroke-width:1;stroke-linecap:butt;stroke-linejoin:miter;stroke-miterlimit:10;stroke-dasharray:none;stroke-opacity:1"
       transform="matrix(0.69182477,0,0,0.69182477,-208.86673,-357.89354)"
       clip-path="url(#clipPath116)" />
    <path
       id="path117"
       d="m 510,595 c -3e-5,0.66302 -0.12689,1.30078 -0.38065,1.91333 -0.25375,0.61261 -0.61502,1.15332 -1.08386,1.62213 -0.46887,0.46881 -1.00958,0.83014 -1.62213,1.08386 -0.61258,0.25373 -1.25037,0.38062 -1.91336,0.38068 -0.66309,-6e-5 -1.3009,-0.12695 -1.91348,-0.38068 -0.61258,-0.25372 -1.15329,-0.61505 -1.6221,-1.08386 -0.46885,-0.46881 -0.83014,-1.00952 -1.0839,-1.62213 C 500.12677,596.30078 499.99994,595.66302 500,595 c -6e-5,-0.66309 0.12677,-1.3009 0.38049,-1.91351 0.25376,-0.61261 0.61508,-1.15326 1.08393,-1.62207 0.46881,-0.46888 1.00952,-0.83014 1.6221,-1.08387 C 503.6991,590.12683 504.33691,590 505,590 c 0.66299,0 1.30078,0.12683 1.91336,0.38055 0.61255,0.25373 1.15326,0.61499 1.62213,1.08387 0.46884,0.46881 0.83011,1.00946 1.08383,1.62207 0.25376,0.61261 0.38065,1.25042 0.38068,1.91351 z"
       style="fill:#ffffff;fill-opacity:1;fill-rule:nonzero;stroke:#000000;stroke-width:1;stroke-linecap:butt;stroke-linejoin:miter;stroke-miterlimit:10;stroke-dasharray:none;stroke-opacity:1"
       transform="matrix(0.69182477,0,0,0.69182477,-208.86673,-357.89354)"
       clip-path="url(#clipPath118)" />
    <path
       id="path119"
       d="m 490,615 c -3e-5,0.66302 -0.12692,1.30078 -0.38068,1.91333 -0.25372,0.61255 -0.61499,1.15326 -1.08383,1.62219 -0.46887,0.46881 -1.00958,0.83008 -1.62216,1.08386 C 486.30081,619.87311 485.66302,620 485,620 c -0.66309,0 -1.3009,-0.12689 -1.91348,-0.38062 -0.61258,-0.25378 -1.15326,-0.61505 -1.62207,-1.08386 -0.46884,-0.46893 -0.83014,-1.00964 -1.0839,-1.62219 C 480.1268,616.30078 479.99997,615.66302 480,615 c -3e-5,-0.66309 0.1268,-1.3009 0.38055,-1.91345 0.25376,-0.61255 0.61506,-1.15326 1.0839,-1.62207 0.46881,-0.46887 1.00949,-0.83014 1.62207,-1.08386 C 483.6991,610.12689 484.33691,610 485,610 c 0.66302,0 1.30081,0.12689 1.91336,0.38062 0.61255,0.25372 1.15326,0.61499 1.62213,1.08386 0.46884,0.46881 0.83011,1.00952 1.08383,1.62207 0.25376,0.61255 0.38065,1.25036 0.38068,1.91345 z"
       style="fill:#ffffff;fill-opacity:1;fill-rule:nonzero;stroke:#000000;stroke-width:1;stroke-linecap:butt;stroke-linejoin:miter;stroke-miterlimit:10;stroke-dasharray:none;stroke-opacity:1"
       transform="matrix(0.69182477,0,0,0.69182477,-208.86673,-357.89354)"
       clip-path="url(#clipPath120)" />
    <path
       id="path121"
       d="m 510,615 c -3e-5,0.66302 -0.12689,1.30078 -0.38065,1.91333 -0.25375,0.61255 -0.61502,1.15326 -1.08386,1.62219 -0.46887,0.46881 -1.00958,0.83008 -1.62213,1.08386 C 506.30078,619.87311 505.66299,620 505,620 c -0.66309,0 -1.3009,-0.12689 -1.91348,-0.38062 -0.61258,-0.25378 -1.15329,-0.61505 -1.6221,-1.08386 -0.46885,-0.46893 -0.83014,-1.00964 -1.0839,-1.62219 C 500.12677,616.30078 499.99994,615.66302 500,615 c -6e-5,-0.66309 0.12677,-1.3009 0.38049,-1.91345 0.25376,-0.61255 0.61508,-1.15326 1.08393,-1.62207 0.46881,-0.46887 1.00952,-0.83014 1.6221,-1.08386 C 503.6991,610.12689 504.33691,610 505,610 c 0.66299,0 1.30078,0.12689 1.91336,0.38062 0.61255,0.25372 1.15326,0.61499 1.62213,1.08386 0.46884,0.46881 0.83011,1.00952 1.08383,1.62207 0.25376,0.61255 0.38065,1.25036 0.38068,1.91345 z"
       style="fill:#ffffff;fill-opacity:1;fill-rule:nonzero;stroke:#000000;stroke-width:1;stroke-linecap:butt;stroke-linejoin:miter;stroke-miterlimit:10;stroke-dasharray:none;stroke-opacity:1"
       transform="matrix(0.69182477,0,0,0.69182477,-208.86673,-357.89354)"
       clip-path="url(#clipPath122)" />
    <path
       id="path123"
       d="m 434.31,629.99786 0.013,-3 1,0.004 -0.013,3 m -0.974,-6.00422 0.013,-3 1,0.004 -0.013,3 m -0.974,-6.00421 0.013,-3 1,0.004 -0.013,3 m -0.974,-6.00421 0.013,-3 1,0.004 -0.013,3 m -0.974,-6.00421 0.013,-3 1,0.004 -0.013,3 m -0.974,-6.00421 0.013,-3 1,0.004 -0.013,3 m -0.974,-6.00421 0.013,-3 1,0.004 -0.013,3 m -0.974,-6.00427 0.013,-2.99994 1,0.004 -0.013,2.99994 m -0.97399,-6.00421 0.013,-2.99994 1,0.004 -0.013,2.99994 m -0.974,-6.00421 0.013,-2.99994 1,0.004 -0.013,2.99993 m -0.974,-6.00421 0.013,-2.99994 1,0.004 -0.013,2.99994 m -0.974,-6.00422 0.013,-2.99993 1,0.004 -0.013,2.99994 m -0.974,-6.00421 0.013,-2.99994 1,0.004 -0.013,2.99994 m -0.974,-6.00421 0.013,-3 1,0.004 -0.013,3 m -0.974,-6.00421 0.013,-3 1,0.004 -0.013,3 m -0.974,-6.00421 v -8.6e-4 l 1,0.004 v 8.5e-4"
       style="fill:#e03c31;fill-opacity:1;fill-rule:nonzero;stroke:none"
       transform="matrix(0.69182477,0,0,0.69182477,-208.86673,-357.89354)"
       clip-path="url(#clipPath124)" />
  </g>
</svg>
