<?xml version="1.0" encoding="UTF-8" standalone="no"?>
<!-- Created with Inkscape (http://www.inkscape.org/) -->

<svg
   version="1.1"
   id="svg1"
   width="136.69563"
   height="79.139572"
   viewBox="0 0 136.69563 79.139574"
   xmlns="http://www.w3.org/2000/svg"
   xmlns:svg="http://www.w3.org/2000/svg">
  <defs
     id="defs1">
    <clipPath
       clipPathUnits="userSpaceOnUse"
       id="clipPath4">
      <path
         d="m 78.125,37.5 h 493.75 V 293.75 H 78.125 Z"
         transform="matrix(0.44478378,0,0,0.44478378,471.34778,521.43064)"
         clip-rule="evenodd"
         id="path4" />
    </clipPath>
    <clipPath
       clipPathUnits="userSpaceOnUse"
       id="clipPath6">
      <path
         d="m 78.125,37.5 h 493.75 V 293.75 H 78.125 Z"
         transform="matrix(0.44478378,0,0,0.44478378,471.34778,521.43064)"
         clip-rule="evenodd"
         id="path6" />
    </clipPath>
    <clipPath
       clipPathUnits="userSpaceOnUse"
       id="clipPath8">
      <path
         d="m 78.125,37.5 h 493.75 V 293.75 H 78.125 Z"
         transform="matrix(0.44478378,0,0,0.44478378,471.34778,521.43064)"
         clip-rule="evenodd"
         id="path8" />
    </clipPath>
    <clipPath
       clipPathUnits="userSpaceOnUse"
       id="clipPath10">
      <path
         d="m 78.125,37.5 h 493.75 V 293.75 H 78.125 Z"
         transform="matrix(0.44478378,0,0,0.44478378,471.34778,521.43064)"
         clip-rule="evenodd"
         id="path10" />
    </clipPath>
    <clipPath
       clipPathUnits="userSpaceOnUse"
       id="clipPath12">
      <path
         d="m 78.125,37.5 h 493.75 V 293.75 H 78.125 Z"
         transform="matrix(0.44478378,0,0,0.44478378,471.34778,521.43064)"
         clip-rule="evenodd"
         id="path12" />
    </clipPath>
    <clipPath
       clipPathUnits="userSpaceOnUse"
       id="clipPath14">
      <path
         d="m 78.125,37.5 h 493.75 V 293.75 H 78.125 Z"
         transform="matrix(0.44478378,0,0,0.44478378,471.34778,521.43064)"
         clip-rule="evenodd"
         id="path14" />
    </clipPath>
    <clipPath
       clipPathUnits="userSpaceOnUse"
       id="clipPath16">
      <path
         d="m 78.125,37.5 h 493.75 V 293.75 H 78.125 Z"
         transform="matrix(0.44478378,0,0,0.44478378,471.34778,521.43064)"
         clip-rule="evenodd"
         id="path16" />
    </clipPath>
    <clipPath
       clipPathUnits="userSpaceOnUse"
       id="clipPath18">
      <path
         d="m 78.125,37.5 h 493.75 V 293.75 H 78.125 Z"
         transform="matrix(0.44478378,0,0,0.44478378,471.34778,521.43064)"
         clip-rule="evenodd"
         id="path18" />
    </clipPath>
    <clipPath
       clipPathUnits="userSpaceOnUse"
       id="clipPath20">
      <path
         d="m 78.125,37.5 h 493.75 V 293.75 H 78.125 Z"
         transform="matrix(0.44478378,0,0,0.44478378,471.34778,521.43064)"
         clip-rule="evenodd"
         id="path20" />
    </clipPath>
    <clipPath
       clipPathUnits="userSpaceOnUse"
       id="clipPath22">
      <path
         d="m 78.125,37.5 h 493.75 V 293.75 H 78.125 Z"
         transform="matrix(0.44478378,0,0,0.44478378,471.34778,521.43064)"
         clip-rule="evenodd"
         id="path22" />
    </clipPath>
    <clipPath
       clipPathUnits="userSpaceOnUse"
       id="clipPath24">
      <path
         d="m 78.125,37.5 h 493.75 V 293.75 H 78.125 Z"
         transform="matrix(0.44478378,0,0,0.44478378,471.34778,521.43064)"
         clip-rule="evenodd"
         id="path24" />
    </clipPath>
    <clipPath
       clipPathUnits="userSpaceOnUse"
       id="clipPath26">
      <path
         d="m 78.125,37.5 h 493.75 V 293.75 H 78.125 Z"
         transform="matrix(0.44478378,0,0,0.44478378,471.34778,521.43064)"
         clip-rule="evenodd"
         id="path26" />
    </clipPath>
    <clipPath
       clipPathUnits="userSpaceOnUse"
       id="clipPath28">
      <path
         d="m 78.125,37.5 h 493.75 V 293.75 H 78.125 Z"
         transform="matrix(0.44478378,0,0,0.44478378,471.34778,521.43064)"
         clip-rule="evenodd"
         id="path28" />
    </clipPath>
    <clipPath
       clipPathUnits="userSpaceOnUse"
       id="clipPath30">
      <path
         d="m 78.125,37.5 h 493.75 V 293.75 H 78.125 Z"
         transform="matrix(0.44478378,0,0,0.44478378,471.34778,521.43064)"
         clip-rule="evenodd"
         id="path30" />
    </clipPath>
    <clipPath
       clipPathUnits="userSpaceOnUse"
       id="clipPath32">
      <path
         d="m 78.125,37.5 h 493.75 V 293.75 H 78.125 Z"
         transform="matrix(0.44478378,0,0,0.44478378,471.34778,521.43064)"
         clip-rule="evenodd"
         id="path32" />
    </clipPath>
    <clipPath
       clipPathUnits="userSpaceOnUse"
       id="clipPath34">
      <path
         d="m 78.125,37.5 h 493.75 V 293.75 H 78.125 Z"
         transform="matrix(0.44478378,0,0,0.44478378,471.34778,521.43064)"
         clip-rule="evenodd"
         id="path34" />
    </clipPath>
    <clipPath
       clipPathUnits="userSpaceOnUse"
       id="clipPath36">
      <path
         d="m 78.125,37.5 h 493.75 V 293.75 H 78.125 Z"
         transform="matrix(0.44478378,0,0,0.44478378,471.34778,521.43064)"
         clip-rule="evenodd"
         id="path36" />
    </clipPath>
    <clipPath
       clipPathUnits="userSpaceOnUse"
       id="clipPath38">
      <path
         d="m 78.125,37.5 h 493.75 V 293.75 H 78.125 Z"
         transform="matrix(0.44478378,0,0,0.44478378,471.34778,521.43064)"
         clip-rule="evenodd"
         id="path38" />
    </clipPath>
    <clipPath
       clipPathUnits="userSpaceOnUse"
       id="clipPath40">
      <path
         d="m 78.125,37.5 h 493.75 V 293.75 H 78.125 Z"
         transform="matrix(0.44478378,0,0,0.44478378,471.34778,521.43064)"
         clip-rule="evenodd"
         id="path40" />
    </clipPath>
    <clipPath
       clipPathUnits="userSpaceOnUse"
       id="clipPath42">
      <path
         d="m 78.125,37.5 h 493.75 V 293.75 H 78.125 Z"
         transform="matrix(0.44478378,0,0,0.44478378,471.34778,521.43064)"
         clip-rule="evenodd"
         id="path42" />
    </clipPath>
    <clipPath
       clipPathUnits="userSpaceOnUse"
       id="clipPath44">
      <path
         d="m 78.125,37.5 h 493.75 V 293.75 H 78.125 Z"
         transform="matrix(0.44478378,0,0,0.44478378,471.34778,521.43064)"
         clip-rule="evenodd"
         id="path44" />
    </clipPath>
    <clipPath
       clipPathUnits="userSpaceOnUse"
       id="clipPath46">
      <path
         d="m 78.125,37.5 h 493.75 V 293.75 H 78.125 Z"
         transform="matrix(0.44478378,0,0,0.44478378,471.34778,521.43064)"
         clip-rule="evenodd"
         id="path46" />
    </clipPath>
    <clipPath
       clipPathUnits="userSpaceOnUse"
       id="clipPath48">
      <path
         d="m 78.125,37.5 h 493.75 V 293.75 H 78.125 Z"
         transform="matrix(0.44478378,0,0,0.44478378,471.34778,521.43064)"
         clip-rule="evenodd"
         id="path48" />
    </clipPath>
    <clipPath
       clipPathUnits="userSpaceOnUse"
       id="clipPath50">
      <path
         d="m 78.125,37.5 h 493.75 V 293.75 H 78.125 Z"
         transform="matrix(0.44478378,0,0,0.44478378,471.34778,521.43064)"
         clip-rule="evenodd"
         id="path50" />
    </clipPath>
    <clipPath
       clipPathUnits="userSpaceOnUse"
       id="clipPath52">
      <path
         d="m 78.125,37.5 h 493.75 V 293.75 H 78.125 Z"
         transform="matrix(0.44478378,0,0,0.44478378,471.34778,521.43064)"
         clip-rule="evenodd"
         id="path52" />
    </clipPath>
    <clipPath
       clipPathUnits="userSpaceOnUse"
       id="clipPath54">
      <path
         d="m 78.125,37.5 h 493.75 V 293.75 H 78.125 Z"
         transform="matrix(0.44478378,0,0,0.44478378,471.34778,521.43064)"
         clip-rule="evenodd"
         id="path54" />
    </clipPath>
    <clipPath
       clipPathUnits="userSpaceOnUse"
       id="clipPath56">
      <path
         d="m 78.125,37.5 h 493.75 V 293.75 H 78.125 Z"
         transform="matrix(0.44478378,0,0,0.44478378,471.34778,521.43064)"
         clip-rule="evenodd"
         id="path56" />
    </clipPath>
    <clipPath
       clipPathUnits="userSpaceOnUse"
       id="clipPath58">
      <path
         d="m 78.125,37.5 h 493.75 V 293.75 H 78.125 Z"
         transform="matrix(0.44478378,0,0,0.44478378,471.34778,521.43064)"
         clip-rule="evenodd"
         id="path58" />
    </clipPath>
    <clipPath
       clipPathUnits="userSpaceOnUse"
       id="clipPath60">
      <path
         d="m 78.125,37.5 h 493.75 V 293.75 H 78.125 Z"
         transform="matrix(0.44478378,0,0,0.44478378,471.34778,521.43064)"
         clip-rule="evenodd"
         id="path60" />
    </clipPath>
    <clipPath
       clipPathUnits="userSpaceOnUse"
       id="clipPath62">
      <path
         d="m 78.125,37.5 h 493.75 V 293.75 H 78.125 Z"
         transform="matrix(31.620021,0,0,-31.620021,-4702.8123,4821.2398)"
         clip-rule="evenodd"
         id="path62" />
    </clipPath>
    <clipPath
       clipPathUnits="userSpaceOnUse"
       id="clipPath64">
      <path
         d="m 78.125,37.5 h 493.75 V 293.75 H 78.125 Z"
         transform="matrix(44.724217,0,0,-44.724217,-7507.5145,7031.4576)"
         clip-rule="evenodd"
         id="path64" />
    </clipPath>
    <clipPath
       clipPathUnits="userSpaceOnUse"
       id="clipPath66">
      <path
         d="m 78.125,37.5 h 493.75 V 293.75 H 78.125 Z"
         transform="matrix(31.620021,0,0,-31.620021,-4957.1118,4818.2396)"
         clip-rule="evenodd"
         id="path66" />
    </clipPath>
    <clipPath
       clipPathUnits="userSpaceOnUse"
       id="clipPath68">
      <path
         d="m 78.125,37.5 h 493.75 V 293.75 H 78.125 Z"
         transform="matrix(0.44478378,0,0,0.44478378,471.34778,521.43064)"
         clip-rule="evenodd"
         id="path68" />
    </clipPath>
    <clipPath
       clipPathUnits="userSpaceOnUse"
       id="clipPath70">
      <path
         d="m 78.125,37.5 h 493.75 V 293.75 H 78.125 Z"
         transform="matrix(0.44478378,0,0,0.44478378,471.34778,521.43064)"
         clip-rule="evenodd"
         id="path70" />
    </clipPath>
    <clipPath
       clipPathUnits="userSpaceOnUse"
       id="clipPath72">
      <path
         d="m 78.125,37.5 h 493.75 V 293.75 H 78.125 Z"
         transform="matrix(0.44478378,0,0,0.44478378,471.34778,521.43064)"
         clip-rule="evenodd"
         id="path72" />
    </clipPath>
    <clipPath
       clipPathUnits="userSpaceOnUse"
       id="clipPath74">
      <path
         d="m 78.125,37.5 h 493.75 V 293.75 H 78.125 Z"
         transform="matrix(0.44478378,0,0,0.44478378,471.34778,521.43064)"
         clip-rule="evenodd"
         id="path74" />
    </clipPath>
    <clipPath
       clipPathUnits="userSpaceOnUse"
       id="clipPath76">
      <path
         d="m 78.125,37.5 h 493.75 V 293.75 H 78.125 Z"
         transform="matrix(0.44478378,0,0,0.44478378,471.34778,521.43064)"
         clip-rule="evenodd"
         id="path76" />
    </clipPath>
    <clipPath
       clipPathUnits="userSpaceOnUse"
       id="clipPath78">
      <path
         d="m 78.125,37.5 h 493.75 V 293.75 H 78.125 Z"
         transform="matrix(0.44478378,0,0,0.44478378,471.34778,521.43064)"
         clip-rule="evenodd"
         id="path78" />
    </clipPath>
    <clipPath
       clipPathUnits="userSpaceOnUse"
       id="clipPath80">
      <path
         d="m 78.125,37.5 h 493.75 V 293.75 H 78.125 Z"
         transform="matrix(0.44478378,0,0,0.44478378,471.34778,521.43064)"
         clip-rule="evenodd"
         id="path80" />
    </clipPath>
    <clipPath
       clipPathUnits="userSpaceOnUse"
       id="clipPath82">
      <path
         d="m 78.125,37.5 h 493.75 V 293.75 H 78.125 Z"
         transform="matrix(0.44478378,0,0,0.44478378,471.34778,521.43064)"
         clip-rule="evenodd"
         id="path82" />
    </clipPath>
    <clipPath
       clipPathUnits="userSpaceOnUse"
       id="clipPath84">
      <path
         d="m 78.125,37.5 h 493.75 V 293.75 H 78.125 Z"
         transform="matrix(0.44478378,0,0,0.44478378,471.34778,521.43064)"
         clip-rule="evenodd"
         id="path84" />
    </clipPath>
    <clipPath
       clipPathUnits="userSpaceOnUse"
       id="clipPath86">
      <path
         d="m 78.125,37.5 h 493.75 V 293.75 H 78.125 Z"
         transform="matrix(0.44478378,0,0,0.44478378,471.34778,521.43064)"
         clip-rule="evenodd"
         id="path86" />
    </clipPath>
    <clipPath
       clipPathUnits="userSpaceOnUse"
       id="clipPath88">
      <path
         d="m 78.125,37.5 h 493.75 V 293.75 H 78.125 Z"
         transform="matrix(0.44478378,0,0,0.44478378,471.34778,521.43064)"
         clip-rule="evenodd"
         id="path88" />
    </clipPath>
    <clipPath
       clipPathUnits="userSpaceOnUse"
       id="clipPath90">
      <path
         d="m 78.125,37.5 h 493.75 V 293.75 H 78.125 Z"
         transform="matrix(0.44478378,0,0,0.44478378,471.34778,521.43064)"
         clip-rule="evenodd"
         id="path90" />
    </clipPath>
    <clipPath
       clipPathUnits="userSpaceOnUse"
       id="clipPath92">
      <path
         d="m 78.125,37.5 h 493.75 V 293.75 H 78.125 Z"
         transform="matrix(0.44478378,0,0,0.44478378,471.34778,521.43064)"
         clip-rule="evenodd"
         id="path92" />
    </clipPath>
    <clipPath
       clipPathUnits="userSpaceOnUse"
       id="clipPath94">
      <path
         d="m 78.125,37.5 h 493.75 V 293.75 H 78.125 Z"
         transform="matrix(0.44478378,0,0,0.44478378,471.34778,521.43064)"
         clip-rule="evenodd"
         id="path94" />
    </clipPath>
    <clipPath
       clipPathUnits="userSpaceOnUse"
       id="clipPath96">
      <path
         d="m 78.125,37.5 h 493.75 V 293.75 H 78.125 Z"
         transform="matrix(0.44478378,0,0,0.44478378,471.34778,521.43064)"
         clip-rule="evenodd"
         id="path96" />
    </clipPath>
    <clipPath
       clipPathUnits="userSpaceOnUse"
       id="clipPath98">
      <path
         d="m 78.125,37.5 h 493.75 V 293.75 H 78.125 Z"
         transform="matrix(0.44478378,0,0,0.44478378,471.34778,521.43064)"
         clip-rule="evenodd"
         id="path98" />
    </clipPath>
    <clipPath
       clipPathUnits="userSpaceOnUse"
       id="clipPath100">
      <path
         d="m 78.125,37.5 h 493.75 V 293.75 H 78.125 Z"
         transform="matrix(0.44478378,0,0,0.44478378,471.34778,521.43064)"
         clip-rule="evenodd"
         id="path100" />
    </clipPath>
    <clipPath
       clipPathUnits="userSpaceOnUse"
       id="clipPath102">
      <path
         d="m 78.125,37.5 h 493.75 V 293.75 H 78.125 Z"
         transform="matrix(0.44478378,0,0,0.44478378,471.34778,521.43064)"
         clip-rule="evenodd"
         id="path102" />
    </clipPath>
    <clipPath
       clipPathUnits="userSpaceOnUse"
       id="clipPath104">
      <path
         d="m 78.125,37.5 h 493.75 V 293.75 H 78.125 Z"
         transform="matrix(0.44478378,0,0,0.44478378,471.34778,521.43064)"
         clip-rule="evenodd"
         id="path104" />
    </clipPath>
    <clipPath
       clipPathUnits="userSpaceOnUse"
       id="clipPath106">
      <path
         d="m 78.125,37.5 h 493.75 V 293.75 H 78.125 Z"
         transform="matrix(0.44478378,0,0,0.44478378,471.34778,521.43064)"
         clip-rule="evenodd"
         id="path106" />
    </clipPath>
    <clipPath
       clipPathUnits="userSpaceOnUse"
       id="clipPath108">
      <path
         d="m 78.125,37.5 h 493.75 V 293.75 H 78.125 Z"
         transform="matrix(0.44478378,0,0,0.44478378,471.34778,521.43064)"
         clip-rule="evenodd"
         id="path108" />
    </clipPath>
    <clipPath
       clipPathUnits="userSpaceOnUse"
       id="clipPath110">
      <path
         d="m 78.125,37.5 h 493.75 V 293.75 H 78.125 Z"
         transform="matrix(0.44478378,0,0,0.44478378,471.34778,521.43064)"
         clip-rule="evenodd"
         id="path110" />
    </clipPath>
    <clipPath
       clipPathUnits="userSpaceOnUse"
       id="clipPath112">
      <path
         d="m 78.125,37.5 h 493.75 V 293.75 H 78.125 Z"
         transform="matrix(0.44478378,0,0,0.44478378,471.34778,521.43064)"
         clip-rule="evenodd"
         id="path112" />
    </clipPath>
    <clipPath
       clipPathUnits="userSpaceOnUse"
       id="clipPath114">
      <path
         d="m 78.125,37.5 h 493.75 V 293.75 H 78.125 Z"
         transform="matrix(0.44478378,0,0,0.44478378,471.34778,521.43064)"
         clip-rule="evenodd"
         id="path114" />
    </clipPath>
    <clipPath
       clipPathUnits="userSpaceOnUse"
       id="clipPath116">
      <path
         d="m 78.125,37.5 h 493.75 V 293.75 H 78.125 Z"
         transform="matrix(0.44478378,0,0,0.44478378,471.34778,521.43064)"
         clip-rule="evenodd"
         id="path116" />
    </clipPath>
    <clipPath
       clipPathUnits="userSpaceOnUse"
       id="clipPath118">
      <path
         d="m 78.125,37.5 h 493.75 V 293.75 H 78.125 Z"
         transform="matrix(0.44478378,0,0,0.44478378,471.34778,521.43064)"
         clip-rule="evenodd"
         id="path118" />
    </clipPath>
    <clipPath
       clipPathUnits="userSpaceOnUse"
       id="clipPath120">
      <path
         d="m 78.125,37.5 h 493.75 V 293.75 H 78.125 Z"
         transform="matrix(0.44478378,0,0,0.44478378,471.34778,521.43064)"
         clip-rule="evenodd"
         id="path120" />
    </clipPath>
    <clipPath
       clipPathUnits="userSpaceOnUse"
       id="clipPath122">
      <path
         d="m 78.125,37.5 h 493.75 V 293.75 H 78.125 Z"
         transform="matrix(0.44478378,0,0,0.44478378,471.34778,521.43064)"
         clip-rule="evenodd"
         id="path122" />
    </clipPath>
    <clipPath
       clipPathUnits="userSpaceOnUse"
       id="clipPath124">
      <path
         d="m 78.125,37.5 h 493.75 V 293.75 H 78.125 Z"
         transform="matrix(0.44478378,0,0,0.44478378,471.34778,521.43064)"
         clip-rule="evenodd"
         id="path124" />
    </clipPath>
    <clipPath
       clipPathUnits="userSpaceOnUse"
       id="clipPath126">
      <path
         d="m 78.125,37.5 h 493.75 V 293.75 H 78.125 Z"
         transform="matrix(0.44478378,0,0,0.44478378,471.34778,521.43064)"
         clip-rule="evenodd"
         id="path126" />
    </clipPath>
    <clipPath
       clipPathUnits="userSpaceOnUse"
       id="clipPath128">
      <path
         d="m 78.125,37.5 h 493.75 V 293.75 H 78.125 Z"
         transform="matrix(0.44478378,0,0,0.44478378,471.34778,521.43064)"
         clip-rule="evenodd"
         id="path128" />
    </clipPath>
    <clipPath
       clipPathUnits="userSpaceOnUse"
       id="clipPath130">
      <path
         d="m 78.125,37.5 h 493.75 V 293.75 H 78.125 Z"
         transform="matrix(0.44478378,0,0,0.44478378,471.34778,521.43064)"
         clip-rule="evenodd"
         id="path130" />
    </clipPath>
    <clipPath
       clipPathUnits="userSpaceOnUse"
       id="clipPath132">
      <path
         d="m 78.125,37.5 h 493.75 V 293.75 H 78.125 Z"
         transform="matrix(0.44478378,0,0,0.44478378,471.34778,521.43064)"
         clip-rule="evenodd"
         id="path132" />
    </clipPath>
    <clipPath
       clipPathUnits="userSpaceOnUse"
       id="clipPath134">
      <path
         d="m 78.125,37.5 h 493.75 V 293.75 H 78.125 Z"
         transform="matrix(0.44478378,0,0,0.44478378,471.34778,521.43064)"
         clip-rule="evenodd"
         id="path134" />
    </clipPath>
    <clipPath
       clipPathUnits="userSpaceOnUse"
       id="clipPath136">
      <path
         d="m 78.125,37.5 h 493.75 V 293.75 H 78.125 Z"
         transform="matrix(0.44478378,0,0,0.44478378,471.34778,521.43064)"
         clip-rule="evenodd"
         id="path136" />
    </clipPath>
    <clipPath
       clipPathUnits="userSpaceOnUse"
       id="clipPath138">
      <path
         d="m 78.125,37.5 h 493.75 V 293.75 H 78.125 Z"
         transform="matrix(0.44478378,0,0,0.44478378,471.34778,521.43064)"
         clip-rule="evenodd"
         id="path138" />
    </clipPath>
    <clipPath
       clipPathUnits="userSpaceOnUse"
       id="clipPath140">
      <path
         d="m 78.125,37.5 h 493.75 V 293.75 H 78.125 Z"
         transform="matrix(0.44478378,0,0,0.44478378,471.34778,521.43064)"
         clip-rule="evenodd"
         id="path140" />
    </clipPath>
    <clipPath
       clipPathUnits="userSpaceOnUse"
       id="clipPath142">
      <path
         d="m 78.125,37.5 h 493.75 V 293.75 H 78.125 Z"
         transform="matrix(0.44478378,0,0,0.44478378,471.34778,521.43064)"
         clip-rule="evenodd"
         id="path142" />
    </clipPath>
    <clipPath
       clipPathUnits="userSpaceOnUse"
       id="clipPath144">
      <path
         d="m 78.125,37.5 h 493.75 V 293.75 H 78.125 Z"
         transform="matrix(0.44478378,0,0,0.44478378,471.34778,521.43064)"
         clip-rule="evenodd"
         id="path144" />
    </clipPath>
    <clipPath
       clipPathUnits="userSpaceOnUse"
       id="clipPath146">
      <path
         d="m 78.125,37.5 h 493.75 V 293.75 H 78.125 Z"
         transform="matrix(0.44478378,0,0,0.44478378,471.34778,521.43064)"
         clip-rule="evenodd"
         id="path146" />
    </clipPath>
    <clipPath
       clipPathUnits="userSpaceOnUse"
       id="clipPath148">
      <path
         d="m 78.125,37.5 h 493.75 V 293.75 H 78.125 Z"
         transform="matrix(0.44478378,0,0,0.44478378,471.34778,521.43064)"
         clip-rule="evenodd"
         id="path148" />
    </clipPath>
    <clipPath
       clipPathUnits="userSpaceOnUse"
       id="clipPath150">
      <path
         d="m 78.125,37.5 h 493.75 V 293.75 H 78.125 Z"
         transform="matrix(0.44478378,0,0,0.44478378,471.34778,521.43064)"
         clip-rule="evenodd"
         id="path150" />
    </clipPath>
    <clipPath
       clipPathUnits="userSpaceOnUse"
       id="clipPath152">
      <path
         d="m 78.125,37.5 h 493.75 V 293.75 H 78.125 Z"
         transform="matrix(0.44478378,0,0,0.44478378,471.34778,521.43064)"
         clip-rule="evenodd"
         id="path152" />
    </clipPath>
    <clipPath
       clipPathUnits="userSpaceOnUse"
       id="clipPath154">
      <path
         d="m 78.125,37.5 h 493.75 V 293.75 H 78.125 Z"
         transform="matrix(0.44478378,0,0,0.44478378,471.34778,521.43064)"
         clip-rule="evenodd"
         id="path154" />
    </clipPath>
    <clipPath
       clipPathUnits="userSpaceOnUse"
       id="clipPath156">
      <path
         d="m 78.125,37.5 h 493.75 V 293.75 H 78.125 Z"
         transform="matrix(0.44478378,0,0,0.44478378,471.34778,521.43064)"
         clip-rule="evenodd"
         id="path156" />
    </clipPath>
  </defs>
  <g
     id="g1"
     transform="translate(-45.075184,-13.359736)">
    <path
       id="path3"
       d="M 534,540 H 724 V 650 H 534 Z"
       style="fill:#ffffff;fill-opacity:1;fill-rule:nonzero;stroke:none"
       transform="matrix(0.71945066,0,0,0.71945066,-339.11147,-375.14362)"
       clip-path="url(#clipPath4)" />
    <path
       id="path5"
       d="m 568.42999,594.97998 v -1 h 1 v 1 m -1,-2 v -1 h 1 v 1 m -1,-2 v -1 h 1 v 1 m -1,-2 v -1 h 1 v 1 m -1,-2 v -1 h 1 v 1 m -1,-2 v -1 h 1 v 1 m -1,-2 v -1 h 1 v 1 m -1,-2 v -1 h 1 v 1 m -1,-2 v -1 h 1 v 1 m -1,-2 v -1 h 1 v 1"
       style="fill:#999999;fill-opacity:1;fill-rule:nonzero;stroke:none"
       transform="matrix(0.71945066,0,0,0.71945066,-339.11147,-375.14362)"
       clip-path="url(#clipPath6)" />
    <path
       id="path7"
       d="m 588.65997,595 v -1 h 1 v 1 m -1,-2 v -1 h 1 v 1 m -1,-2 v -1 h 1 v 1 m -1,-2 v -1 h 1 v 1 m -1,-2 v -1 h 1 v 1 m -1,-2 v -1 h 1 v 1 m -1,-2 v -1 h 1 v 1 m -1,-2 v -1 h 1 v 1 m -1,-2 v -1 h 1 v 1 m -1,-2 v -1 h 1 v 1"
       style="fill:#999999;fill-opacity:1;fill-rule:nonzero;stroke:none"
       transform="matrix(0.71945066,0,0,0.71945066,-339.11147,-375.14362)"
       clip-path="url(#clipPath8)" />
    <path
       id="path9"
       d="m 608.71002,594.97998 v -1 h 1 v 1 m -1,-2 v -1 h 1 v 1 m -1,-2 v -1 h 1 v 1 m -1,-2 v -1 h 1 v 1 m -1,-2 v -1 h 1 v 1 m -1,-2 v -1 h 1 v 1 m -1,-2 v -1 h 1 v 1 m -1,-2 v -1 h 1 v 1 m -1,-2 v -1 h 1 v 1 m -1,-2 v -1 h 1 v 1"
       style="fill:#999999;fill-opacity:1;fill-rule:nonzero;stroke:none"
       transform="matrix(0.71945066,0,0,0.71945066,-339.11147,-375.14362)"
       clip-path="url(#clipPath10)" />
    <path
       id="path11"
       d="m 628.94,595 v -1 h 1 v 1 m -1,-2 v -1 h 1 v 1 m -1,-2 v -1 h 1 v 1 m -1,-2 v -1 h 1 v 1 m -1,-2 v -1 h 1 v 1 m -1,-2 v -1 h 1 v 1 m -1,-2 v -1 h 1 v 1 m -1,-2 v -1 h 1 v 1 m -1,-2 v -1 h 1 v 1 m -1,-2 v -1 h 1 v 1"
       style="fill:#999999;fill-opacity:1;fill-rule:nonzero;stroke:none"
       transform="matrix(0.71945066,0,0,0.71945066,-339.11147,-375.14362)"
       clip-path="url(#clipPath12)" />
    <path
       id="path13"
       d="m 648.65997,594.90002 v -1 h 1 v 1 m -1,-2 v -1 h 1 v 1 m -1,-2 v -1 h 1 v 1 m -1,-2 v -1 h 1 v 1 m -1,-2 v -1 h 1 v 1 m -1,-2 v -1 h 1 v 1 m -1,-2 v -1 h 1 v 1 m -1,-2 v -1 h 1 v 1 m -1,-2 v -1 h 1 v 1 m -1,-2 v -1 h 1 v 1"
       style="fill:#999999;fill-opacity:1;fill-rule:nonzero;stroke:none"
       transform="matrix(0.71945066,0,0,0.71945066,-339.11147,-375.14362)"
       clip-path="url(#clipPath14)" />
    <path
       id="path15"
       d="m 668.65997,595 v -1 h 1 v 1 m -1,-2 v -1 h 1 v 1 m -1,-2 v -1 h 1 v 1 m -1,-2 v -1 h 1 v 1 m -1,-2 v -1 h 1 v 1 m -1,-2 v -1 h 1 v 1 m -1,-2 v -1 h 1 v 1 m -1,-2 v -1 h 1 v 1 m -1,-2 v -1 h 1 v 1 m -1,-2 v -1 h 1 v 1"
       style="fill:#999999;fill-opacity:1;fill-rule:nonzero;stroke:none"
       transform="matrix(0.71945066,0,0,0.71945066,-339.11147,-375.14362)"
       clip-path="url(#clipPath16)" />
    <path
       id="path17"
       d="m 688.71002,594.90002 v -1 h 1 v 1 m -1,-2 v -1 h 1 v 1 m -1,-2 v -1 h 1 v 1 m -1,-2 v -1 h 1 v 1 m -1,-2 v -1 h 1 v 1 m -1,-2 v -1 h 1 v 1 m -1,-2 v -1 h 1 v 1 m -1,-2 v -1 h 1 v 1 m -1,-2 v -1 h 1 v 1 m -1,-2 v -1 h 1 v 1"
       style="fill:#999999;fill-opacity:1;fill-rule:nonzero;stroke:none"
       transform="matrix(0.71945066,0,0,0.71945066,-339.11147,-375.14362)"
       clip-path="url(#clipPath18)" />
    <path
       id="path19"
       d="m 708.65997,594.90002 v -1 h 1 v 1 m -1,-2 v -1 h 1 v 1 m -1,-2 v -1 h 1 v 1 m -1,-2 v -1 h 1 v 1 m -1,-2 v -1 h 1 v 1 m -1,-2 v -1 h 1 v 1 m -1,-2 v -1 h 1 v 1 m -1,-2 v -1 h 1 v 1 m -1,-2 v -1 h 1 v 1 m -1,-2 v -1 h 1 v 1"
       style="fill:#999999;fill-opacity:1;fill-rule:nonzero;stroke:none"
       transform="matrix(0.71945066,0,0,0.71945066,-339.11147,-375.14362)"
       clip-path="url(#clipPath20)" />
    <path
       id="path21"
       d="M 568.71997,609.97998 V 590.08002"
       style="fill:none;stroke:#000000;stroke-width:1;stroke-linecap:butt;stroke-linejoin:miter;stroke-miterlimit:10;stroke-dasharray:none;stroke-opacity:1"
       transform="matrix(0.71945066,0,0,0.71945066,-339.11147,-375.14362)"
       clip-path="url(#clipPath22)" />
    <path
       id="path23"
       d="M 588.95001,610 V 590.09998"
       style="fill:none;stroke:#000000;stroke-width:1;stroke-linecap:butt;stroke-linejoin:miter;stroke-miterlimit:10;stroke-dasharray:none;stroke-opacity:1"
       transform="matrix(0.71945066,0,0,0.71945066,-339.11147,-375.14362)"
       clip-path="url(#clipPath24)" />
    <path
       id="path25"
       d="M 609,609.97998 V 590.08002"
       style="fill:none;stroke:#000000;stroke-width:1;stroke-linecap:butt;stroke-linejoin:miter;stroke-miterlimit:10;stroke-dasharray:none;stroke-opacity:1"
       transform="matrix(0.71945066,0,0,0.71945066,-339.11147,-375.14362)"
       clip-path="url(#clipPath26)" />
    <path
       id="path27"
       d="M 629.22998,610 V 590.09998"
       style="fill:none;stroke:#000000;stroke-width:1;stroke-linecap:butt;stroke-linejoin:miter;stroke-miterlimit:10;stroke-dasharray:none;stroke-opacity:1"
       transform="matrix(0.71945066,0,0,0.71945066,-339.11147,-375.14362)"
       clip-path="url(#clipPath28)" />
    <path
       id="path29"
       d="M 648.95001,609.90002 V 590"
       style="fill:none;stroke:#000000;stroke-width:1;stroke-linecap:butt;stroke-linejoin:miter;stroke-miterlimit:10;stroke-dasharray:none;stroke-opacity:1"
       transform="matrix(0.71945066,0,0,0.71945066,-339.11147,-375.14362)"
       clip-path="url(#clipPath30)" />
    <path
       id="path31"
       d="M 668.95001,610 V 590.09998"
       style="fill:none;stroke:#000000;stroke-width:1;stroke-linecap:butt;stroke-linejoin:miter;stroke-miterlimit:10;stroke-dasharray:none;stroke-opacity:1"
       transform="matrix(0.71945066,0,0,0.71945066,-339.11147,-375.14362)"
       clip-path="url(#clipPath32)" />
    <path
       id="path33"
       d="M 689,609.90002 V 590"
       style="fill:none;stroke:#000000;stroke-width:1;stroke-linecap:butt;stroke-linejoin:miter;stroke-miterlimit:10;stroke-dasharray:none;stroke-opacity:1"
       transform="matrix(0.71945066,0,0,0.71945066,-339.11147,-375.14362)"
       clip-path="url(#clipPath34)" />
    <path
       id="path35"
       d="m 708.95001,609.90002 0.21997,-18.83001"
       style="fill:none;stroke:#000000;stroke-width:1;stroke-linecap:butt;stroke-linejoin:miter;stroke-miterlimit:10;stroke-dasharray:none;stroke-opacity:1"
       transform="matrix(0.71945066,0,0,0.71945066,-339.11147,-375.14362)"
       clip-path="url(#clipPath36)" />
    <path
       id="path37"
       d="M 569,574.97998 V 555.08002"
       style="fill:none;stroke:#000000;stroke-width:1;stroke-linecap:butt;stroke-linejoin:miter;stroke-miterlimit:10;stroke-dasharray:none;stroke-opacity:1"
       transform="matrix(0.71945066,0,0,0.71945066,-339.11147,-375.14362)"
       clip-path="url(#clipPath38)" />
    <path
       id="path39"
       d="M 589.22998,575 V 555.09998"
       style="fill:none;stroke:#000000;stroke-width:1;stroke-linecap:butt;stroke-linejoin:miter;stroke-miterlimit:10;stroke-dasharray:none;stroke-opacity:1"
       transform="matrix(0.71945066,0,0,0.71945066,-339.11147,-375.14362)"
       clip-path="url(#clipPath40)" />
    <path
       id="path41"
       d="M 609.28003,574.97998 V 555.08002"
       style="fill:none;stroke:#000000;stroke-width:1;stroke-linecap:butt;stroke-linejoin:miter;stroke-miterlimit:10;stroke-dasharray:none;stroke-opacity:1"
       transform="matrix(0.71945066,0,0,0.71945066,-339.11147,-375.14362)"
       clip-path="url(#clipPath42)" />
    <path
       id="path43"
       d="M 629.51001,575 V 555.09998"
       style="fill:none;stroke:#000000;stroke-width:1;stroke-linecap:butt;stroke-linejoin:miter;stroke-miterlimit:10;stroke-dasharray:none;stroke-opacity:1"
       transform="matrix(0.71945066,0,0,0.71945066,-339.11147,-375.14362)"
       clip-path="url(#clipPath44)" />
    <path
       id="path45"
       d="M 649.22998,574.90002 V 555"
       style="fill:none;stroke:#000000;stroke-width:1;stroke-linecap:butt;stroke-linejoin:miter;stroke-miterlimit:10;stroke-dasharray:none;stroke-opacity:1"
       transform="matrix(0.71945066,0,0,0.71945066,-339.11147,-375.14362)"
       clip-path="url(#clipPath46)" />
    <path
       id="path47"
       d="M 669.22998,575 V 555.09998"
       style="fill:none;stroke:#000000;stroke-width:1;stroke-linecap:butt;stroke-linejoin:miter;stroke-miterlimit:10;stroke-dasharray:none;stroke-opacity:1"
       transform="matrix(0.71945066,0,0,0.71945066,-339.11147,-375.14362)"
       clip-path="url(#clipPath48)" />
    <path
       id="path49"
       d="M 689.28003,574.90002 V 555"
       style="fill:none;stroke:#000000;stroke-width:1;stroke-linecap:butt;stroke-linejoin:miter;stroke-miterlimit:10;stroke-dasharray:none;stroke-opacity:1"
       transform="matrix(0.71945066,0,0,0.71945066,-339.11147,-375.14362)"
       clip-path="url(#clipPath50)" />
    <path
       id="path51"
       d="M 709.22998,574.90002 V 555"
       style="fill:none;stroke:#000000;stroke-width:1;stroke-linecap:butt;stroke-linejoin:miter;stroke-miterlimit:10;stroke-dasharray:none;stroke-opacity:1"
       transform="matrix(0.71945066,0,0,0.71945066,-339.11147,-375.14362)"
       clip-path="url(#clipPath52)" />
    <path
       id="path53"
       d="M 554,630 V 556.37"
       style="fill:none;stroke:#000000;stroke-width:1;stroke-linecap:butt;stroke-linejoin:miter;stroke-miterlimit:10;stroke-dasharray:none;stroke-opacity:1"
       transform="matrix(0.71945066,0,0,0.71945066,-339.11147,-375.14362)"
       clip-path="url(#clipPath54)" />
    <path
       id="path55"
       d="m 554,551.12 3.5,7 -3.5,-1.75 -3.5,1.75 z"
       style="fill:#000000;fill-opacity:1;fill-rule:nonzero;stroke:#000000;stroke-width:1;stroke-linecap:butt;stroke-linejoin:miter;stroke-miterlimit:10;stroke-dasharray:none;stroke-opacity:1"
       transform="matrix(0.71945066,0,0,0.71945066,-339.11147,-375.14362)"
       clip-path="url(#clipPath56)" />
    <path
       id="path57"
       d="M 554,630 H 707.63"
       style="fill:none;stroke:#000000;stroke-width:1;stroke-linecap:butt;stroke-linejoin:miter;stroke-miterlimit:10;stroke-dasharray:none;stroke-opacity:1"
       transform="matrix(0.71945066,0,0,0.71945066,-339.11147,-375.14362)"
       clip-path="url(#clipPath58)" />
    <path
       id="path59"
       d="m 712.88,630 -7,3.5 1.75,-3.5 -1.75,-3.5 z"
       style="fill:#000000;fill-opacity:1;fill-rule:nonzero;stroke:#000000;stroke-width:1;stroke-linecap:butt;stroke-linejoin:miter;stroke-miterlimit:10;stroke-dasharray:none;stroke-opacity:1"
       transform="matrix(0.71945066,0,0,0.71945066,-339.11147,-375.14362)"
       clip-path="url(#clipPath60)" />
    <path
       id="path61"
       d="m 52,289 c 4.666668,28 22.666664,60.33334 54,97 31.33333,36.66666 70,55.33334 116,56 23.33333,0 44.66666,-6 64,-18 19.33334,-12 33.66666,-27 43,-45 28,42 61.66666,63 101,63 24.66666,0 46,-7.33334 64,-22 18,-14.66666 27.33331,-34.33334 28,-59 0,-19.33334 -4.66669,-35 -14,-47 -9.33334,-12 -18.33334,-19.33334 -27,-22 -8.66666,-2.66666 -16.33334,-4 -23,-4 -12.66666,0 -23,3.66666 -31,11 -8,7.33334 -12,17 -12,29 0,30.66666 16.66666,51.66666 50,63 -7.33334,8.66666 -20.66666,13 -40,13 -8.66666,0 -15,-0.66666 -19,-2 -25.33334,-10.66666 -44,-32.66666 -56,-66 -40,-147.33334 -60,-233.33333 -60,-258 0,-18.666668 5.33334,-32 16,-40 10.66666,-8 22.33334,-12 35,-12 24.66666,0 49,11 73,33 24,22 40.33334,49 49,81 2,6.66667 4,10.33333 6,11 2,0.66667 7.33334,1.33333 16,2 h 4 c 10,0 15,-2.66667 15,-8 0,-0.66667 -0.66666,-4.33333 -2,-11 C 491.33334,96 470.66666,62.333336 440,33 409.33334,3.666666 373.66666,-11 333,-11 286.33334,-11 251,10 227,52 199.66667,10.666664 168.33334,-10 133,-10 h -6 C 94.333328,-10 71,-1.333334 57,16 43,33.333336 35.666668,51.666664 35,71 c 0,21.333336 6.333332,38.66666 19,52 12.666664,13.33333 27.666664,20 45,20 28.66667,0 43,-14 43,-42 C 142,87.666664 138,76 130,66 122,56 114.33334,49.333332 107,46 99.666664,42.666668 95.333336,41 94,41 l -3,-1 c 0,-0.666668 2,-2 6,-4 4,-2 9.33334,-4.333334 16,-7 6.66666,-2.666666 13,-3.666666 19,-3 24,0 44.66667,15 62,45 6,10.666664 13.66667,33.33333 23,68 9.33333,34.66667 18.66667,70.66666 28,108 9.33333,37.33334 14.66666,59.33334 16,66 3.33334,18 5,31 5,39 0,18.66666 -5,32 -15,40 -10,8 -21.33333,12 -34,12 -26.66667,0 -51.66667,-10.66666 -75,-32 -23.33334,-21.33334 -39.66666,-48.66666 -49,-82 -1.333336,-6 -3,-9.33334 -5,-10 -2,-0.66666 -7.333336,-1.33334 -16,-2 H 58 c -4,4 -6,7.66666 -6,11 z"
       style="fill:#000000;fill-opacity:1;fill-rule:nonzero;stroke:#000000;stroke-width:1;stroke-linecap:butt;stroke-linejoin:miter;stroke-miterlimit:10;stroke-dasharray:none;stroke-opacity:0.0228"
       transform="matrix(0.01012017,0,0,-0.01012017,47.59326,48.791766)"
       clip-path="url(#clipPath62)" />
    <path
       id="path63"
       d="m 109,429 c -18,0 -32.333336,6 -43,18 -10.666668,12 -16,26.66666 -16,44 0,47.33331 17.666664,88.33331 53,123 35.33334,34.66669 79.33333,52 132,52 60.66666,0 111.33334,-18.66669 152,-56 40.66666,-37.33331 61.33334,-85.66669 62,-145 0,-28.66666 -6.66666,-56 -20,-82 -13.33334,-26 -29.33334,-48.66666 -48,-68 -18.66666,-19.33334 -45.33334,-44 -80,-74 -24,-20.66667 -57.33333,-51.33333 -100,-92 l -59,-56 76,-1 c 104.66669,0 160.33334,1.666664 167,5 4.66666,1.333336 12.66666,31 24,89 v 3 h 40 v -3 C 448.33334,184 444,153.66667 436,95 428,36.333332 423,5.666667 421,3 V 0 H 50 v 19 12 c 0,4.666668 2,9.666668 6,15 4,5.333332 14,17 30,35 19.33334,21.33334 36,40 50,56 6,6.66667 17.33333,19 34,37 16.66667,18 28,30.33333 34,37 6,6.66667 15.66667,17.66667 29,33 13.33333,15.33334 22.66667,26.66666 28,34 5.33334,7.33334 13,17.33334 23,30 10,12.66666 17,23.33334 21,32 4,8.66666 9,18.33334 15,29 6,10.66666 10.33334,21.33334 13,32 2.66666,10.66666 5,20.66666 7,30 2,9.33334 3,20.33334 3,33 0,42 -11.33334,78.33331 -34,109 -22.66666,30.66669 -55,46 -97,46 -22,0 -41.33333,-5.66669 -58,-17 -16.66667,-11.33331 -28.33334,-22.33331 -35,-33 -6.66666,-10.66669 -10,-17 -10,-19 0,-0.66669 1.66666,-1 5,-1 12,0 24.33333,-4.66669 37,-14 12.66667,-9.33331 19,-24.66666 19,-46 0,-16.66666 -5.33333,-30.66666 -16,-42 -10.66667,-11.33334 -25.66667,-17.33334 -45,-18 z"
       style="fill:#000000;fill-opacity:1;fill-rule:nonzero;stroke:#000000;stroke-width:1;stroke-linecap:butt;stroke-linejoin:miter;stroke-miterlimit:10;stroke-dasharray:none;stroke-opacity:0.0161"
       transform="matrix(0.00715496,0,0,-0.00715496,53.715966,50.309798)"
       clip-path="url(#clipPath64)" />
    <path
       id="path65"
       d="m 69,544 v 46 h 361 v -46 z"
       style="fill:#000000;fill-opacity:1;fill-rule:nonzero;stroke:#000000;stroke-width:1;stroke-linecap:butt;stroke-linejoin:miter;stroke-miterlimit:10;stroke-dasharray:none;stroke-opacity:0.0228"
       transform="matrix(0.01012017,0,0,-0.01012017,50.166814,48.761404)"
       clip-path="url(#clipPath66)" />
    <path
       id="path67"
       d="m 623.90997,554.84003 h 30"
       style="fill:none;stroke:#000000;stroke-width:1;stroke-linecap:butt;stroke-linejoin:miter;stroke-miterlimit:10;stroke-dasharray:none;stroke-opacity:1"
       transform="matrix(0.71945066,0,0,0.71945066,-339.11147,-375.14362)"
       clip-path="url(#clipPath68)" />
    <path
       id="path69"
       d="m 624,574.96002 h 30"
       style="fill:none;stroke:#000000;stroke-width:1;stroke-linecap:butt;stroke-linejoin:miter;stroke-miterlimit:10;stroke-dasharray:none;stroke-opacity:1"
       transform="matrix(0.71945066,0,0,0.71945066,-339.11147,-375.14362)"
       clip-path="url(#clipPath70)" />
    <path
       id="path71"
       d="m 624,594.96002 h 30"
       style="fill:none;stroke:#000000;stroke-width:1;stroke-linecap:butt;stroke-linejoin:miter;stroke-miterlimit:10;stroke-dasharray:none;stroke-opacity:1"
       transform="matrix(0.71945066,0,0,0.71945066,-339.11147,-375.14362)"
       clip-path="url(#clipPath72)" />
    <path
       id="path73"
       d="m 624,614.96002 h 30"
       style="fill:none;stroke:#000000;stroke-width:1;stroke-linecap:butt;stroke-linejoin:miter;stroke-miterlimit:10;stroke-dasharray:none;stroke-opacity:1"
       transform="matrix(0.71945066,0,0,0.71945066,-339.11147,-375.14362)"
       clip-path="url(#clipPath74)" />
    <path
       id="path75"
       d="m 649.5,554.92999 h 60"
       style="fill:none;stroke:#000000;stroke-width:1;stroke-linecap:butt;stroke-linejoin:miter;stroke-miterlimit:10;stroke-dasharray:none;stroke-opacity:1"
       transform="matrix(0.71945066,0,0,0.71945066,-339.11147,-375.14362)"
       clip-path="url(#clipPath76)" />
    <path
       id="path77"
       d="m 649.5,574.85999 60,0.07"
       style="fill:none;stroke:#000000;stroke-width:1;stroke-linecap:butt;stroke-linejoin:miter;stroke-miterlimit:10;stroke-dasharray:none;stroke-opacity:1"
       transform="matrix(0.71945066,0,0,0.71945066,-339.11147,-375.14362)"
       clip-path="url(#clipPath78)" />
    <path
       id="path79"
       d="m 649.5,594.85999 60,0.07"
       style="fill:none;stroke:#000000;stroke-width:1;stroke-linecap:butt;stroke-linejoin:miter;stroke-miterlimit:10;stroke-dasharray:none;stroke-opacity:1"
       transform="matrix(0.71945066,0,0,0.71945066,-339.11147,-375.14362)"
       clip-path="url(#clipPath80)" />
    <path
       id="path81"
       d="m 649.5,614.78998 60,0.14001"
       style="fill:none;stroke:#000000;stroke-width:1;stroke-linecap:butt;stroke-linejoin:miter;stroke-miterlimit:10;stroke-dasharray:none;stroke-opacity:1"
       transform="matrix(0.71945066,0,0,0.71945066,-339.11147,-375.14362)"
       clip-path="url(#clipPath82)" />
    <path
       id="path83"
       d="m 574.23999,554.78003 59.41998,0.1"
       style="fill:none;stroke:#000000;stroke-width:1;stroke-linecap:butt;stroke-linejoin:miter;stroke-miterlimit:10;stroke-dasharray:none;stroke-opacity:1"
       transform="matrix(0.71945066,0,0,0.71945066,-339.11147,-375.14362)"
       clip-path="url(#clipPath84)" />
    <path
       id="path85"
       d="m 574,574.92999 59.91998,-0.05"
       style="fill:none;stroke:#000000;stroke-width:1;stroke-linecap:butt;stroke-linejoin:miter;stroke-miterlimit:10;stroke-dasharray:none;stroke-opacity:1"
       transform="matrix(0.71945066,0,0,0.71945066,-339.11147,-375.14362)"
       clip-path="url(#clipPath86)" />
    <path
       id="path87"
       d="m 574,594.92999 59.83002,0.03"
       style="fill:none;stroke:#000000;stroke-width:1;stroke-linecap:butt;stroke-linejoin:miter;stroke-miterlimit:10;stroke-dasharray:none;stroke-opacity:1"
       transform="matrix(0.71945066,0,0,0.71945066,-339.11147,-375.14362)"
       clip-path="url(#clipPath88)" />
    <path
       id="path89"
       d="M 574,614.85999 633.91998,614.62"
       style="fill:none;stroke:#000000;stroke-width:1;stroke-linecap:butt;stroke-linejoin:miter;stroke-miterlimit:10;stroke-dasharray:none;stroke-opacity:1"
       transform="matrix(0.71945066,0,0,0.71945066,-339.11147,-375.14362)"
       clip-path="url(#clipPath90)" />
    <path
       id="path91"
       d="m 574,555 c -6e-5,0.66302 -0.12695,1.30078 -0.38068,1.91339 -0.25372,0.61261 -0.61505,1.15332 -1.08386,1.62213 -0.46881,0.46881 -1.00952,0.83008 -1.62207,1.0838 -0.61261,0.25373 -1.25037,0.38062 -1.91339,0.38068 -0.66309,-6e-5 -1.3009,-0.12695 -1.91351,-0.38068 -0.61255,-0.25372 -1.15326,-0.61499 -1.62207,-1.0838 -0.46888,-0.46881 -0.8302,-1.00952 -1.08393,-1.62213 C 564.12677,556.30078 563.99994,555.66302 564,555 c -6e-5,-0.66309 0.12677,-1.3009 0.38049,-1.91351 0.25373,-0.61261 0.61505,-1.15326 1.08393,-1.62207 0.46881,-0.46888 1.00952,-0.83014 1.62207,-1.08387 C 567.6991,550.12683 568.33691,550 569,550 c 0.66302,0 1.30078,0.12683 1.91339,0.38055 0.61255,0.25373 1.15326,0.61499 1.62207,1.08387 0.46881,0.46881 0.83014,1.00946 1.08386,1.62207 0.25373,0.61261 0.38062,1.25042 0.38068,1.91351 z"
       style="fill:#ffffff;fill-opacity:1;fill-rule:nonzero;stroke:#000000;stroke-width:1;stroke-linecap:butt;stroke-linejoin:miter;stroke-miterlimit:10;stroke-dasharray:none;stroke-opacity:1"
       transform="matrix(0.71945066,0,0,0.71945066,-339.11147,-375.14362)"
       clip-path="url(#clipPath92)" />
    <path
       id="path93"
       d="m 594,555 c -6e-5,0.66302 -0.12689,1.30078 -0.38062,1.91339 -0.25378,0.61261 -0.61505,1.15332 -1.08386,1.62213 -0.46887,0.46881 -1.00958,0.83008 -1.62219,1.0838 -0.61261,0.25373 -1.25037,0.38062 -1.91333,0.38068 -0.66309,-6e-5 -1.3009,-0.12695 -1.91351,-0.38068 -0.61255,-0.25372 -1.15326,-0.61499 -1.62207,-1.0838 -0.46888,-0.46881 -0.83014,-1.00952 -1.08387,-1.62213 C 584.12683,556.30078 583.99994,555.66302 584,555 c -6e-5,-0.66309 0.12683,-1.3009 0.38055,-1.91351 0.25373,-0.61261 0.61499,-1.15326 1.08387,-1.62207 0.46881,-0.46888 1.00952,-0.83014 1.62207,-1.08387 C 587.6991,550.12683 588.33691,550 589,550 c 0.66296,0 1.30072,0.12683 1.91333,0.38055 0.61261,0.25373 1.15332,0.61499 1.62219,1.08387 0.46881,0.46881 0.83008,1.00946 1.08386,1.62207 0.25373,0.61261 0.38056,1.25042 0.38062,1.91351 z"
       style="fill:#ffffff;fill-opacity:1;fill-rule:nonzero;stroke:#000000;stroke-width:1;stroke-linecap:butt;stroke-linejoin:miter;stroke-miterlimit:10;stroke-dasharray:none;stroke-opacity:1"
       transform="matrix(0.71945066,0,0,0.71945066,-339.11147,-375.14362)"
       clip-path="url(#clipPath94)" />
    <path
       id="path95"
       d="m 574,575 c -6e-5,0.66302 -0.12695,1.30078 -0.38068,1.91333 -0.25372,0.61261 -0.61505,1.15332 -1.08386,1.62219 -0.46881,0.46881 -1.00952,0.83014 -1.62207,1.08386 -0.61261,0.25373 -1.25037,0.38056 -1.91339,0.38062 -0.66309,-6e-5 -1.3009,-0.12689 -1.91351,-0.38062 -0.61255,-0.25372 -1.15326,-0.61505 -1.62207,-1.08386 -0.46888,-0.46887 -0.8302,-1.00958 -1.08393,-1.62219 C 564.12677,576.30078 563.99994,575.66302 564,575 c -6e-5,-0.66302 0.12677,-1.30084 0.38049,-1.91345 0.25373,-0.61261 0.61505,-1.15326 1.08393,-1.62207 0.46881,-0.46887 1.00952,-0.8302 1.62207,-1.08399 C 567.6991,570.12683 568.33691,570 569,570 c 0.66302,0 1.30078,0.12683 1.91339,0.38049 0.61255,0.25379 1.15326,0.61512 1.62207,1.08399 0.46881,0.46881 0.83014,1.00946 1.08386,1.62207 0.25373,0.61261 0.38062,1.25043 0.38068,1.91345 z"
       style="fill:#ffffff;fill-opacity:1;fill-rule:nonzero;stroke:#000000;stroke-width:1;stroke-linecap:butt;stroke-linejoin:miter;stroke-miterlimit:10;stroke-dasharray:none;stroke-opacity:1"
       transform="matrix(0.71945066,0,0,0.71945066,-339.11147,-375.14362)"
       clip-path="url(#clipPath96)" />
    <path
       id="path97"
       d="m 594,575 c -6e-5,0.66302 -0.12689,1.30078 -0.38062,1.91333 -0.25378,0.61261 -0.61505,1.15332 -1.08386,1.62219 -0.46887,0.46881 -1.00958,0.83014 -1.62219,1.08386 -0.61261,0.25373 -1.25037,0.38056 -1.91333,0.38062 -0.66309,-6e-5 -1.3009,-0.12689 -1.91351,-0.38062 -0.61255,-0.25372 -1.15326,-0.61505 -1.62207,-1.08386 -0.46888,-0.46887 -0.83014,-1.00958 -1.08387,-1.62219 C 584.12683,576.30078 583.99994,575.66302 584,575 c -6e-5,-0.66302 0.12683,-1.30084 0.38055,-1.91345 0.25373,-0.61261 0.61499,-1.15326 1.08387,-1.62207 0.46881,-0.46887 1.00952,-0.8302 1.62207,-1.08399 C 587.6991,570.12683 588.33691,570 589,570 c 0.66296,0 1.30072,0.12683 1.91333,0.38049 0.61261,0.25379 1.15332,0.61512 1.62219,1.08399 0.46881,0.46881 0.83008,1.00946 1.08386,1.62207 0.25373,0.61261 0.38056,1.25043 0.38062,1.91345 z"
       style="fill:#ffffff;fill-opacity:1;fill-rule:nonzero;stroke:#000000;stroke-width:1;stroke-linecap:butt;stroke-linejoin:miter;stroke-miterlimit:10;stroke-dasharray:none;stroke-opacity:1"
       transform="matrix(0.71945066,0,0,0.71945066,-339.11147,-375.14362)"
       clip-path="url(#clipPath98)" />
    <path
       id="path99"
       d="m 614,555 c -6e-5,0.66302 -0.12695,1.30078 -0.38068,1.91339 -0.25372,0.61261 -0.61499,1.15332 -1.0838,1.62213 -0.46887,0.46881 -1.00958,0.83008 -1.62219,1.0838 -0.61255,0.25373 -1.25031,0.38062 -1.91333,0.38068 -0.66309,-6e-5 -1.3009,-0.12695 -1.91351,-0.38068 -0.61255,-0.25372 -1.1532,-0.61499 -1.62201,-1.0838 -0.46887,-0.46881 -0.8302,-1.00952 -1.08393,-1.62213 C 604.12683,556.30078 603.99994,555.66302 604,555 c -6e-5,-0.66309 0.12683,-1.3009 0.38055,-1.91351 0.25373,-0.61261 0.61506,-1.15326 1.08393,-1.62207 0.46881,-0.46888 1.00946,-0.83014 1.62201,-1.08387 C 607.6991,550.12683 608.33691,550 609,550 c 0.66302,0 1.30078,0.12683 1.91333,0.38055 0.61261,0.25373 1.15332,0.61499 1.62219,1.08387 0.46881,0.46881 0.83008,1.00946 1.0838,1.62207 0.25373,0.61261 0.38062,1.25042 0.38068,1.91351 z"
       style="fill:#ffffff;fill-opacity:1;fill-rule:nonzero;stroke:#000000;stroke-width:1;stroke-linecap:butt;stroke-linejoin:miter;stroke-miterlimit:10;stroke-dasharray:none;stroke-opacity:1"
       transform="matrix(0.71945066,0,0,0.71945066,-339.11147,-375.14362)"
       clip-path="url(#clipPath100)" />
    <path
       id="path101"
       d="m 634,555 c -6e-5,0.66302 -0.12695,1.30078 -0.38068,1.91339 -0.25378,0.61261 -0.61505,1.15332 -1.08386,1.62213 -0.46887,0.46881 -1.00958,0.83008 -1.62219,1.0838 -0.61255,0.25373 -1.25031,0.38062 -1.91327,0.38068 -0.66309,-6e-5 -1.3009,-0.12695 -1.91351,-0.38068 -0.61261,-0.25372 -1.15326,-0.61499 -1.62207,-1.0838 -0.46888,-0.46881 -0.83014,-1.00952 -1.08387,-1.62213 C 624.12677,556.30078 623.99994,555.66302 624,555 c -6e-5,-0.66309 0.12677,-1.3009 0.38055,-1.91351 0.25373,-0.61261 0.61499,-1.15326 1.08387,-1.62207 0.46881,-0.46888 1.00946,-0.83014 1.62207,-1.08387 C 627.6991,550.12683 628.33691,550 629,550 c 0.66296,0 1.30072,0.12683 1.91327,0.38055 0.61261,0.25373 1.15332,0.61499 1.62219,1.08387 0.46881,0.46881 0.83008,1.00946 1.08386,1.62207 0.25373,0.61261 0.38062,1.25042 0.38068,1.91351 z"
       style="fill:#ffffff;fill-opacity:1;fill-rule:nonzero;stroke:#000000;stroke-width:1;stroke-linecap:butt;stroke-linejoin:miter;stroke-miterlimit:10;stroke-dasharray:none;stroke-opacity:1"
       transform="matrix(0.71945066,0,0,0.71945066,-339.11147,-375.14362)"
       clip-path="url(#clipPath102)" />
    <path
       id="path103"
       d="m 614,575 c -6e-5,0.66302 -0.12695,1.30078 -0.38068,1.91333 -0.25372,0.61261 -0.61499,1.15332 -1.0838,1.62219 -0.46887,0.46881 -1.00958,0.83014 -1.62219,1.08386 -0.61255,0.25373 -1.25031,0.38056 -1.91333,0.38062 -0.66309,-6e-5 -1.3009,-0.12689 -1.91351,-0.38062 -0.61255,-0.25372 -1.1532,-0.61505 -1.62201,-1.08386 -0.46887,-0.46887 -0.8302,-1.00958 -1.08393,-1.62219 C 604.12683,576.30078 603.99994,575.66302 604,575 c -6e-5,-0.66302 0.12683,-1.30084 0.38055,-1.91345 0.25373,-0.61261 0.61506,-1.15326 1.08393,-1.62207 0.46881,-0.46887 1.00946,-0.8302 1.62201,-1.08399 C 607.6991,570.12683 608.33691,570 609,570 c 0.66302,0 1.30078,0.12683 1.91333,0.38049 0.61261,0.25379 1.15332,0.61512 1.62219,1.08399 0.46881,0.46881 0.83008,1.00946 1.0838,1.62207 0.25373,0.61261 0.38062,1.25043 0.38068,1.91345 z"
       style="fill:#ffffff;fill-opacity:1;fill-rule:nonzero;stroke:#000000;stroke-width:1;stroke-linecap:butt;stroke-linejoin:miter;stroke-miterlimit:10;stroke-dasharray:none;stroke-opacity:1"
       transform="matrix(0.71945066,0,0,0.71945066,-339.11147,-375.14362)"
       clip-path="url(#clipPath104)" />
    <path
       id="path105"
       d="m 634,575 c -6e-5,0.66302 -0.12695,1.30078 -0.38068,1.91333 -0.25378,0.61261 -0.61505,1.15332 -1.08386,1.62219 -0.46887,0.46881 -1.00958,0.83014 -1.62219,1.08386 -0.61255,0.25373 -1.25031,0.38056 -1.91327,0.38062 -0.66309,-6e-5 -1.3009,-0.12689 -1.91351,-0.38062 -0.61261,-0.25372 -1.15326,-0.61505 -1.62207,-1.08386 -0.46888,-0.46887 -0.83014,-1.00958 -1.08387,-1.62219 C 624.12677,576.30078 623.99994,575.66302 624,575 c -6e-5,-0.66302 0.12677,-1.30084 0.38055,-1.91345 0.25373,-0.61261 0.61499,-1.15326 1.08387,-1.62207 0.46881,-0.46887 1.00946,-0.8302 1.62207,-1.08399 C 627.6991,570.12683 628.33691,570 629,570 c 0.66296,0 1.30072,0.12683 1.91327,0.38049 0.61261,0.25379 1.15332,0.61512 1.62219,1.08399 0.46881,0.46881 0.83008,1.00946 1.08386,1.62207 0.25373,0.61261 0.38062,1.25043 0.38068,1.91345 z"
       style="fill:#ffffff;fill-opacity:1;fill-rule:nonzero;stroke:#000000;stroke-width:1;stroke-linecap:butt;stroke-linejoin:miter;stroke-miterlimit:10;stroke-dasharray:none;stroke-opacity:1"
       transform="matrix(0.71945066,0,0,0.71945066,-339.11147,-375.14362)"
       clip-path="url(#clipPath106)" />
    <path
       id="path107"
       d="m 574,595 c -6e-5,0.66302 -0.12695,1.30078 -0.38068,1.91333 -0.25372,0.61261 -0.61505,1.15332 -1.08386,1.62213 -0.46881,0.46881 -1.00952,0.83014 -1.62207,1.08386 -0.61261,0.25373 -1.25037,0.38062 -1.91339,0.38068 -0.66309,-6e-5 -1.3009,-0.12695 -1.91351,-0.38068 -0.61255,-0.25372 -1.15326,-0.61505 -1.62207,-1.08386 -0.46888,-0.46881 -0.8302,-1.00952 -1.08393,-1.62213 C 564.12677,596.30078 563.99994,595.66302 564,595 c -6e-5,-0.66309 0.12677,-1.3009 0.38049,-1.91351 0.25373,-0.61261 0.61505,-1.15326 1.08393,-1.62207 0.46881,-0.46888 1.00952,-0.83014 1.62207,-1.08387 C 567.6991,590.12683 568.33691,590 569,590 c 0.66302,0 1.30078,0.12683 1.91339,0.38055 0.61255,0.25373 1.15326,0.61499 1.62207,1.08387 0.46881,0.46881 0.83014,1.00946 1.08386,1.62207 0.25373,0.61261 0.38062,1.25042 0.38068,1.91351 z"
       style="fill:#ffffff;fill-opacity:1;fill-rule:nonzero;stroke:#000000;stroke-width:1;stroke-linecap:butt;stroke-linejoin:miter;stroke-miterlimit:10;stroke-dasharray:none;stroke-opacity:1"
       transform="matrix(0.71945066,0,0,0.71945066,-339.11147,-375.14362)"
       clip-path="url(#clipPath108)" />
    <path
       id="path109"
       d="m 594,595 c -6e-5,0.66302 -0.12689,1.30078 -0.38062,1.91333 -0.25378,0.61261 -0.61505,1.15332 -1.08386,1.62213 -0.46887,0.46881 -1.00958,0.83014 -1.62219,1.08386 -0.61261,0.25373 -1.25037,0.38062 -1.91333,0.38068 -0.66309,-6e-5 -1.3009,-0.12695 -1.91351,-0.38068 -0.61255,-0.25372 -1.15326,-0.61505 -1.62207,-1.08386 -0.46888,-0.46881 -0.83014,-1.00952 -1.08387,-1.62213 C 584.12683,596.30078 583.99994,595.66302 584,595 c -6e-5,-0.66309 0.12683,-1.3009 0.38055,-1.91351 0.25373,-0.61261 0.61499,-1.15326 1.08387,-1.62207 0.46881,-0.46888 1.00952,-0.83014 1.62207,-1.08387 C 587.6991,590.12683 588.33691,590 589,590 c 0.66296,0 1.30072,0.12683 1.91333,0.38055 0.61261,0.25373 1.15332,0.61499 1.62219,1.08387 0.46881,0.46881 0.83008,1.00946 1.08386,1.62207 0.25373,0.61261 0.38056,1.25042 0.38062,1.91351 z"
       style="fill:#ffffff;fill-opacity:1;fill-rule:nonzero;stroke:#000000;stroke-width:1;stroke-linecap:butt;stroke-linejoin:miter;stroke-miterlimit:10;stroke-dasharray:none;stroke-opacity:1"
       transform="matrix(0.71945066,0,0,0.71945066,-339.11147,-375.14362)"
       clip-path="url(#clipPath110)" />
    <path
       id="path111"
       d="m 574,615 c -6e-5,0.66302 -0.12695,1.30078 -0.38068,1.91333 -0.25372,0.61255 -0.61505,1.15326 -1.08386,1.62219 -0.46881,0.46881 -1.00952,0.83008 -1.62207,1.08386 C 570.30078,619.87311 569.66302,620 569,620 c -0.66309,0 -1.3009,-0.12689 -1.91351,-0.38062 -0.61255,-0.25378 -1.15326,-0.61505 -1.62207,-1.08386 -0.46888,-0.46893 -0.8302,-1.00964 -1.08393,-1.62219 C 564.12677,616.30078 563.99994,615.66302 564,615 c -6e-5,-0.66309 0.12677,-1.3009 0.38049,-1.91345 0.25373,-0.61255 0.61505,-1.15326 1.08393,-1.62207 0.46881,-0.46887 1.00952,-0.83014 1.62207,-1.08386 C 567.6991,610.12689 568.33691,610 569,610 c 0.66302,0 1.30078,0.12689 1.91339,0.38062 0.61255,0.25372 1.15326,0.61499 1.62207,1.08386 0.46881,0.46881 0.83014,1.00952 1.08386,1.62207 0.25373,0.61255 0.38062,1.25036 0.38068,1.91345 z"
       style="fill:#ffffff;fill-opacity:1;fill-rule:nonzero;stroke:#000000;stroke-width:1;stroke-linecap:butt;stroke-linejoin:miter;stroke-miterlimit:10;stroke-dasharray:none;stroke-opacity:1"
       transform="matrix(0.71945066,0,0,0.71945066,-339.11147,-375.14362)"
       clip-path="url(#clipPath112)" />
    <path
       id="path113"
       d="m 594,615 c -6e-5,0.66302 -0.12689,1.30078 -0.38062,1.91333 -0.25378,0.61255 -0.61505,1.15326 -1.08386,1.62219 -0.46887,0.46881 -1.00958,0.83008 -1.62219,1.08386 C 590.30072,619.87311 589.66296,620 589,620 c -0.66309,0 -1.3009,-0.12689 -1.91351,-0.38062 -0.61255,-0.25378 -1.15326,-0.61505 -1.62207,-1.08386 -0.46888,-0.46893 -0.83014,-1.00964 -1.08387,-1.62219 C 584.12683,616.30078 583.99994,615.66302 584,615 c -6e-5,-0.66309 0.12683,-1.3009 0.38055,-1.91345 0.25373,-0.61255 0.61499,-1.15326 1.08387,-1.62207 0.46881,-0.46887 1.00952,-0.83014 1.62207,-1.08386 C 587.6991,610.12689 588.33691,610 589,610 c 0.66296,0 1.30072,0.12689 1.91333,0.38062 0.61261,0.25372 1.15332,0.61499 1.62219,1.08386 0.46881,0.46881 0.83008,1.00952 1.08386,1.62207 0.25373,0.61255 0.38056,1.25036 0.38062,1.91345 z"
       style="fill:#ffffff;fill-opacity:1;fill-rule:nonzero;stroke:#000000;stroke-width:1;stroke-linecap:butt;stroke-linejoin:miter;stroke-miterlimit:10;stroke-dasharray:none;stroke-opacity:1"
       transform="matrix(0.71945066,0,0,0.71945066,-339.11147,-375.14362)"
       clip-path="url(#clipPath114)" />
    <path
       id="path115"
       d="m 614,595 c -6e-5,0.66302 -0.12695,1.30078 -0.38068,1.91333 -0.25372,0.61261 -0.61499,1.15332 -1.0838,1.62213 -0.46887,0.46881 -1.00958,0.83014 -1.62219,1.08386 -0.61255,0.25373 -1.25031,0.38062 -1.91333,0.38068 -0.66309,-6e-5 -1.3009,-0.12695 -1.91351,-0.38068 -0.61255,-0.25372 -1.1532,-0.61505 -1.62201,-1.08386 -0.46887,-0.46881 -0.8302,-1.00952 -1.08393,-1.62213 C 604.12683,596.30078 603.99994,595.66302 604,595 c -6e-5,-0.66309 0.12683,-1.3009 0.38055,-1.91351 0.25373,-0.61261 0.61506,-1.15326 1.08393,-1.62207 0.46881,-0.46888 1.00946,-0.83014 1.62201,-1.08387 C 607.6991,590.12683 608.33691,590 609,590 c 0.66302,0 1.30078,0.12683 1.91333,0.38055 0.61261,0.25373 1.15332,0.61499 1.62219,1.08387 0.46881,0.46881 0.83008,1.00946 1.0838,1.62207 0.25373,0.61261 0.38062,1.25042 0.38068,1.91351 z"
       style="fill:#ffffff;fill-opacity:1;fill-rule:nonzero;stroke:#000000;stroke-width:1;stroke-linecap:butt;stroke-linejoin:miter;stroke-miterlimit:10;stroke-dasharray:none;stroke-opacity:1"
       transform="matrix(0.71945066,0,0,0.71945066,-339.11147,-375.14362)"
       clip-path="url(#clipPath116)" />
    <path
       id="path117"
       d="m 634,595 c -6e-5,0.66302 -0.12695,1.30078 -0.38068,1.91333 -0.25378,0.61261 -0.61505,1.15332 -1.08386,1.62213 -0.46887,0.46881 -1.00958,0.83014 -1.62219,1.08386 -0.61255,0.25373 -1.25031,0.38062 -1.91327,0.38068 -0.66309,-6e-5 -1.3009,-0.12695 -1.91351,-0.38068 -0.61261,-0.25372 -1.15326,-0.61505 -1.62207,-1.08386 -0.46888,-0.46881 -0.83014,-1.00952 -1.08387,-1.62213 C 624.12677,596.30078 623.99994,595.66302 624,595 c -6e-5,-0.66309 0.12677,-1.3009 0.38055,-1.91351 0.25373,-0.61261 0.61499,-1.15326 1.08387,-1.62207 0.46881,-0.46888 1.00946,-0.83014 1.62207,-1.08387 C 627.6991,590.12683 628.33691,590 629,590 c 0.66296,0 1.30072,0.12683 1.91327,0.38055 0.61261,0.25373 1.15332,0.61499 1.62219,1.08387 0.46881,0.46881 0.83008,1.00946 1.08386,1.62207 0.25373,0.61261 0.38062,1.25042 0.38068,1.91351 z"
       style="fill:#ffffff;fill-opacity:1;fill-rule:nonzero;stroke:#000000;stroke-width:1;stroke-linecap:butt;stroke-linejoin:miter;stroke-miterlimit:10;stroke-dasharray:none;stroke-opacity:1"
       transform="matrix(0.71945066,0,0,0.71945066,-339.11147,-375.14362)"
       clip-path="url(#clipPath118)" />
    <path
       id="path119"
       d="m 614,615 c -6e-5,0.66302 -0.12695,1.30078 -0.38068,1.91333 -0.25372,0.61255 -0.61499,1.15326 -1.0838,1.62219 -0.46887,0.46881 -1.00958,0.83008 -1.62219,1.08386 C 610.30078,619.87311 609.66302,620 609,620 c -0.66309,0 -1.3009,-0.12689 -1.91351,-0.38062 -0.61255,-0.25378 -1.1532,-0.61505 -1.62201,-1.08386 -0.46887,-0.46893 -0.8302,-1.00964 -1.08393,-1.62219 C 604.12683,616.30078 603.99994,615.66302 604,615 c -6e-5,-0.66309 0.12683,-1.3009 0.38055,-1.91345 0.25373,-0.61255 0.61506,-1.15326 1.08393,-1.62207 0.46881,-0.46887 1.00946,-0.83014 1.62201,-1.08386 C 607.6991,610.12689 608.33691,610 609,610 c 0.66302,0 1.30078,0.12689 1.91333,0.38062 0.61261,0.25372 1.15332,0.61499 1.62219,1.08386 0.46881,0.46881 0.83008,1.00952 1.0838,1.62207 0.25373,0.61255 0.38062,1.25036 0.38068,1.91345 z"
       style="fill:#ffffff;fill-opacity:1;fill-rule:nonzero;stroke:#000000;stroke-width:1;stroke-linecap:butt;stroke-linejoin:miter;stroke-miterlimit:10;stroke-dasharray:none;stroke-opacity:1"
       transform="matrix(0.71945066,0,0,0.71945066,-339.11147,-375.14362)"
       clip-path="url(#clipPath120)" />
    <path
       id="path121"
       d="m 634,615 c -6e-5,0.66302 -0.12695,1.30078 -0.38068,1.91333 -0.25378,0.61255 -0.61505,1.15326 -1.08386,1.62219 -0.46887,0.46881 -1.00958,0.83008 -1.62219,1.08386 C 630.30072,619.87311 629.66296,620 629,620 c -0.66309,0 -1.3009,-0.12689 -1.91351,-0.38062 -0.61261,-0.25378 -1.15326,-0.61505 -1.62207,-1.08386 -0.46888,-0.46893 -0.83014,-1.00964 -1.08387,-1.62219 C 624.12677,616.30078 623.99994,615.66302 624,615 c -6e-5,-0.66309 0.12677,-1.3009 0.38055,-1.91345 0.25373,-0.61255 0.61499,-1.15326 1.08387,-1.62207 0.46881,-0.46887 1.00946,-0.83014 1.62207,-1.08386 C 627.6991,610.12689 628.33691,610 629,610 c 0.66296,0 1.30072,0.12689 1.91327,0.38062 0.61261,0.25372 1.15332,0.61499 1.62219,1.08386 0.46881,0.46881 0.83008,1.00952 1.08386,1.62207 0.25373,0.61255 0.38062,1.25036 0.38068,1.91345 z"
       style="fill:#ffffff;fill-opacity:1;fill-rule:nonzero;stroke:#000000;stroke-width:1;stroke-linecap:butt;stroke-linejoin:miter;stroke-miterlimit:10;stroke-dasharray:none;stroke-opacity:1"
       transform="matrix(0.71945066,0,0,0.71945066,-339.11147,-375.14362)"
       clip-path="url(#clipPath122)" />
    <path
       id="path123"
       d="m 654,555 c -6e-5,0.66302 -0.12695,1.30078 -0.38074,1.91339 -0.25372,0.61261 -0.61499,1.15332 -1.0838,1.62213 -0.46887,0.46881 -1.00958,0.83008 -1.62213,1.0838 -0.61255,0.25373 -1.25031,0.38062 -1.91333,0.38068 -0.66309,-6e-5 -1.3009,-0.12695 -1.91351,-0.38068 -0.61261,-0.25372 -1.15326,-0.61499 -1.62207,-1.0838 -0.46881,-0.46881 -0.83014,-1.00952 -1.08393,-1.62213 C 644.12677,556.30078 643.99994,555.66302 644,555 c -6e-5,-0.66309 0.12677,-1.3009 0.38049,-1.91351 0.25379,-0.61261 0.61512,-1.15326 1.08393,-1.62207 0.46881,-0.46888 1.00946,-0.83014 1.62207,-1.08387 C 647.6991,550.12683 648.33691,550 649,550 c 0.66302,0 1.30078,0.12683 1.91333,0.38055 0.61255,0.25373 1.15326,0.61499 1.62213,1.08387 0.46881,0.46881 0.83008,1.00946 1.0838,1.62207 0.25379,0.61261 0.38068,1.25042 0.38074,1.91351 z"
       style="fill:#ffffff;fill-opacity:1;fill-rule:nonzero;stroke:#000000;stroke-width:1;stroke-linecap:butt;stroke-linejoin:miter;stroke-miterlimit:10;stroke-dasharray:none;stroke-opacity:1"
       transform="matrix(0.71945066,0,0,0.71945066,-339.11147,-375.14362)"
       clip-path="url(#clipPath124)" />
    <path
       id="path125"
       d="m 674,555 c -6e-5,0.66302 -0.12695,1.30078 -0.38068,1.91339 -0.25378,0.61261 -0.61505,1.15332 -1.08386,1.62213 -0.46887,0.46881 -1.00958,0.83008 -1.62213,1.0838 -0.61261,0.25373 -1.25037,0.38062 -1.91333,0.38068 -0.66309,-6e-5 -1.3009,-0.12695 -1.91351,-0.38068 -0.61255,-0.25372 -1.15326,-0.61499 -1.62207,-1.0838 -0.46888,-0.46881 -0.83014,-1.00952 -1.08387,-1.62213 C 664.12683,556.30078 663.99994,555.66302 664,555 c -6e-5,-0.66309 0.12683,-1.3009 0.38055,-1.91351 0.25373,-0.61261 0.61499,-1.15326 1.08387,-1.62207 0.46881,-0.46888 1.00952,-0.83014 1.62207,-1.08387 C 667.6991,550.12683 668.33691,550 669,550 c 0.66296,0 1.30072,0.12683 1.91333,0.38055 0.61255,0.25373 1.15326,0.61499 1.62213,1.08387 0.46881,0.46881 0.83008,1.00946 1.08386,1.62207 0.25373,0.61261 0.38062,1.25042 0.38068,1.91351 z"
       style="fill:#ffffff;fill-opacity:1;fill-rule:nonzero;stroke:#000000;stroke-width:1;stroke-linecap:butt;stroke-linejoin:miter;stroke-miterlimit:10;stroke-dasharray:none;stroke-opacity:1"
       transform="matrix(0.71945066,0,0,0.71945066,-339.11147,-375.14362)"
       clip-path="url(#clipPath126)" />
    <path
       id="path127"
       d="m 654,575 c -6e-5,0.66302 -0.12695,1.30078 -0.38074,1.91333 -0.25372,0.61261 -0.61499,1.15332 -1.0838,1.62219 -0.46887,0.46881 -1.00958,0.83014 -1.62213,1.08386 -0.61255,0.25373 -1.25031,0.38056 -1.91333,0.38062 -0.66309,-6e-5 -1.3009,-0.12689 -1.91351,-0.38062 -0.61261,-0.25372 -1.15326,-0.61505 -1.62207,-1.08386 -0.46881,-0.46887 -0.83014,-1.00958 -1.08393,-1.62219 C 644.12677,576.30078 643.99994,575.66302 644,575 c -6e-5,-0.66302 0.12677,-1.30084 0.38049,-1.91345 0.25379,-0.61261 0.61512,-1.15326 1.08393,-1.62207 0.46881,-0.46887 1.00946,-0.8302 1.62207,-1.08399 C 647.6991,570.12683 648.33691,570 649,570 c 0.66302,0 1.30078,0.12683 1.91333,0.38049 0.61255,0.25379 1.15326,0.61512 1.62213,1.08399 0.46881,0.46881 0.83008,1.00946 1.0838,1.62207 0.25379,0.61261 0.38068,1.25043 0.38074,1.91345 z"
       style="fill:#ffffff;fill-opacity:1;fill-rule:nonzero;stroke:#000000;stroke-width:1;stroke-linecap:butt;stroke-linejoin:miter;stroke-miterlimit:10;stroke-dasharray:none;stroke-opacity:1"
       transform="matrix(0.71945066,0,0,0.71945066,-339.11147,-375.14362)"
       clip-path="url(#clipPath128)" />
    <path
       id="path129"
       d="m 674,575 c -6e-5,0.66302 -0.12695,1.30078 -0.38068,1.91333 -0.25378,0.61261 -0.61505,1.15332 -1.08386,1.62219 -0.46887,0.46881 -1.00958,0.83014 -1.62213,1.08386 -0.61261,0.25373 -1.25037,0.38056 -1.91333,0.38062 -0.66309,-6e-5 -1.3009,-0.12689 -1.91351,-0.38062 -0.61255,-0.25372 -1.15326,-0.61505 -1.62207,-1.08386 -0.46888,-0.46887 -0.83014,-1.00958 -1.08387,-1.62219 C 664.12683,576.30078 663.99994,575.66302 664,575 c -6e-5,-0.66302 0.12683,-1.30084 0.38055,-1.91345 0.25373,-0.61261 0.61499,-1.15326 1.08387,-1.62207 0.46881,-0.46887 1.00952,-0.8302 1.62207,-1.08399 C 667.6991,570.12683 668.33691,570 669,570 c 0.66296,0 1.30072,0.12683 1.91333,0.38049 0.61255,0.25379 1.15326,0.61512 1.62213,1.08399 0.46881,0.46881 0.83008,1.00946 1.08386,1.62207 0.25373,0.61261 0.38062,1.25043 0.38068,1.91345 z"
       style="fill:#ffffff;fill-opacity:1;fill-rule:nonzero;stroke:#000000;stroke-width:1;stroke-linecap:butt;stroke-linejoin:miter;stroke-miterlimit:10;stroke-dasharray:none;stroke-opacity:1"
       transform="matrix(0.71945066,0,0,0.71945066,-339.11147,-375.14362)"
       clip-path="url(#clipPath130)" />
    <path
       id="path131"
       d="m 694,555 c -6e-5,0.66302 -0.12695,1.30078 -0.38074,1.91339 -0.25372,0.61261 -0.61499,1.15332 -1.0838,1.62213 -0.46887,0.46881 -1.00958,0.83008 -1.62213,1.0838 -0.61261,0.25373 -1.25037,0.38062 -1.91333,0.38068 -0.66302,-6e-5 -1.30084,-0.12695 -1.91345,-0.38068 -0.61261,-0.25372 -1.15332,-0.61499 -1.62213,-1.0838 -0.46888,-0.46881 -0.8302,-1.00952 -1.08393,-1.62213 C 684.12677,556.30078 683.99994,555.66302 684,555 c -6e-5,-0.66309 0.12677,-1.3009 0.38049,-1.91351 0.25373,-0.61261 0.61505,-1.15326 1.08393,-1.62207 0.46881,-0.46888 1.00952,-0.83014 1.62213,-1.08387 C 687.69916,550.12683 688.33698,550 689,550 c 0.66296,0 1.30072,0.12683 1.91333,0.38055 0.61255,0.25373 1.15326,0.61499 1.62213,1.08387 0.46881,0.46881 0.83008,1.00946 1.0838,1.62207 0.25379,0.61261 0.38068,1.25042 0.38074,1.91351 z"
       style="fill:#ffffff;fill-opacity:1;fill-rule:nonzero;stroke:#000000;stroke-width:1;stroke-linecap:butt;stroke-linejoin:miter;stroke-miterlimit:10;stroke-dasharray:none;stroke-opacity:1"
       transform="matrix(0.71945066,0,0,0.71945066,-339.11147,-375.14362)"
       clip-path="url(#clipPath132)" />
    <path
       id="path133"
       d="m 714,555 c -6e-5,0.66302 -0.12695,1.30078 -0.38068,1.91339 -0.25372,0.61261 -0.61499,1.15332 -1.0838,1.62213 -0.46887,0.46881 -1.00958,0.83008 -1.62213,1.0838 -0.61255,0.25373 -1.25037,0.38062 -1.91339,0.38068 -0.66309,-6e-5 -1.3009,-0.12695 -1.91351,-0.38068 -0.61255,-0.25372 -1.1532,-0.61499 -1.62201,-1.0838 -0.46887,-0.46881 -0.8302,-1.00952 -1.08393,-1.62213 C 704.12683,556.30078 703.99994,555.66302 704,555 c -6e-5,-0.66309 0.12683,-1.3009 0.38055,-1.91351 0.25373,-0.61261 0.61506,-1.15326 1.08393,-1.62207 0.46881,-0.46888 1.00946,-0.83014 1.62201,-1.08387 C 707.6991,550.12683 708.33691,550 709,550 c 0.66302,0 1.30084,0.12683 1.91339,0.38055 0.61255,0.25373 1.15326,0.61499 1.62213,1.08387 0.46881,0.46881 0.83008,1.00946 1.0838,1.62207 0.25373,0.61261 0.38062,1.25042 0.38068,1.91351 z"
       style="fill:#ffffff;fill-opacity:1;fill-rule:nonzero;stroke:#000000;stroke-width:1;stroke-linecap:butt;stroke-linejoin:miter;stroke-miterlimit:10;stroke-dasharray:none;stroke-opacity:1"
       transform="matrix(0.71945066,0,0,0.71945066,-339.11147,-375.14362)"
       clip-path="url(#clipPath134)" />
    <path
       id="path135"
       d="m 694,575 c -6e-5,0.66302 -0.12695,1.30078 -0.38074,1.91333 -0.25372,0.61261 -0.61499,1.15332 -1.0838,1.62219 -0.46887,0.46881 -1.00958,0.83014 -1.62213,1.08386 -0.61261,0.25373 -1.25037,0.38056 -1.91333,0.38062 -0.66302,-6e-5 -1.30084,-0.12689 -1.91345,-0.38062 -0.61261,-0.25372 -1.15332,-0.61505 -1.62213,-1.08386 -0.46888,-0.46887 -0.8302,-1.00958 -1.08393,-1.62219 C 684.12677,576.30078 683.99994,575.66302 684,575 c -6e-5,-0.66302 0.12677,-1.30084 0.38049,-1.91345 0.25373,-0.61261 0.61505,-1.15326 1.08393,-1.62207 0.46881,-0.46887 1.00952,-0.8302 1.62213,-1.08399 C 687.69916,570.12683 688.33698,570 689,570 c 0.66296,0 1.30072,0.12683 1.91333,0.38049 0.61255,0.25379 1.15326,0.61512 1.62213,1.08399 0.46881,0.46881 0.83008,1.00946 1.0838,1.62207 0.25379,0.61261 0.38068,1.25043 0.38074,1.91345 z"
       style="fill:#ffffff;fill-opacity:1;fill-rule:nonzero;stroke:#000000;stroke-width:1;stroke-linecap:butt;stroke-linejoin:miter;stroke-miterlimit:10;stroke-dasharray:none;stroke-opacity:1"
       transform="matrix(0.71945066,0,0,0.71945066,-339.11147,-375.14362)"
       clip-path="url(#clipPath136)" />
    <path
       id="path137"
       d="m 714,575 c -6e-5,0.66302 -0.12695,1.30078 -0.38068,1.91333 -0.25372,0.61261 -0.61499,1.15332 -1.0838,1.62219 -0.46887,0.46881 -1.00958,0.83014 -1.62213,1.08386 -0.61255,0.25373 -1.25037,0.38056 -1.91339,0.38062 -0.66309,-6e-5 -1.3009,-0.12689 -1.91351,-0.38062 -0.61255,-0.25372 -1.1532,-0.61505 -1.62201,-1.08386 -0.46887,-0.46887 -0.8302,-1.00958 -1.08393,-1.62219 C 704.12683,576.30078 703.99994,575.66302 704,575 c -6e-5,-0.66302 0.12683,-1.30084 0.38055,-1.91345 0.25373,-0.61261 0.61506,-1.15326 1.08393,-1.62207 0.46881,-0.46887 1.00946,-0.8302 1.62201,-1.08399 C 707.6991,570.12683 708.33691,570 709,570 c 0.66302,0 1.30084,0.12683 1.91339,0.38049 0.61255,0.25379 1.15326,0.61512 1.62213,1.08399 0.46881,0.46881 0.83008,1.00946 1.0838,1.62207 0.25373,0.61261 0.38062,1.25043 0.38068,1.91345 z"
       style="fill:#ffffff;fill-opacity:1;fill-rule:nonzero;stroke:#000000;stroke-width:1;stroke-linecap:butt;stroke-linejoin:miter;stroke-miterlimit:10;stroke-dasharray:none;stroke-opacity:1"
       transform="matrix(0.71945066,0,0,0.71945066,-339.11147,-375.14362)"
       clip-path="url(#clipPath138)" />
    <path
       id="path139"
       d="m 654,595 c -6e-5,0.66302 -0.12695,1.30078 -0.38074,1.91333 -0.25372,0.61261 -0.61499,1.15332 -1.0838,1.62213 -0.46887,0.46881 -1.00958,0.83014 -1.62213,1.08386 -0.61255,0.25373 -1.25031,0.38062 -1.91333,0.38068 -0.66309,-6e-5 -1.3009,-0.12695 -1.91351,-0.38068 -0.61261,-0.25372 -1.15326,-0.61505 -1.62207,-1.08386 -0.46881,-0.46881 -0.83014,-1.00952 -1.08393,-1.62213 C 644.12677,596.30078 643.99994,595.66302 644,595 c -6e-5,-0.66309 0.12677,-1.3009 0.38049,-1.91351 0.25379,-0.61261 0.61512,-1.15326 1.08393,-1.62207 0.46881,-0.46888 1.00946,-0.83014 1.62207,-1.08387 C 647.6991,590.12683 648.33691,590 649,590 c 0.66302,0 1.30078,0.12683 1.91333,0.38055 0.61255,0.25373 1.15326,0.61499 1.62213,1.08387 0.46881,0.46881 0.83008,1.00946 1.0838,1.62207 0.25379,0.61261 0.38068,1.25042 0.38074,1.91351 z"
       style="fill:#ffffff;fill-opacity:1;fill-rule:nonzero;stroke:#000000;stroke-width:1;stroke-linecap:butt;stroke-linejoin:miter;stroke-miterlimit:10;stroke-dasharray:none;stroke-opacity:1"
       transform="matrix(0.71945066,0,0,0.71945066,-339.11147,-375.14362)"
       clip-path="url(#clipPath140)" />
    <path
       id="path141"
       d="m 674,595 c -6e-5,0.66302 -0.12695,1.30078 -0.38068,1.91333 -0.25378,0.61261 -0.61505,1.15332 -1.08386,1.62213 -0.46887,0.46881 -1.00958,0.83014 -1.62213,1.08386 -0.61261,0.25373 -1.25037,0.38062 -1.91333,0.38068 -0.66309,-6e-5 -1.3009,-0.12695 -1.91351,-0.38068 -0.61255,-0.25372 -1.15326,-0.61505 -1.62207,-1.08386 -0.46888,-0.46881 -0.83014,-1.00952 -1.08387,-1.62213 C 664.12683,596.30078 663.99994,595.66302 664,595 c -6e-5,-0.66309 0.12683,-1.3009 0.38055,-1.91351 0.25373,-0.61261 0.61499,-1.15326 1.08387,-1.62207 0.46881,-0.46888 1.00952,-0.83014 1.62207,-1.08387 C 667.6991,590.12683 668.33691,590 669,590 c 0.66296,0 1.30072,0.12683 1.91333,0.38055 0.61255,0.25373 1.15326,0.61499 1.62213,1.08387 0.46881,0.46881 0.83008,1.00946 1.08386,1.62207 0.25373,0.61261 0.38062,1.25042 0.38068,1.91351 z"
       style="fill:#ffffff;fill-opacity:1;fill-rule:nonzero;stroke:#000000;stroke-width:1;stroke-linecap:butt;stroke-linejoin:miter;stroke-miterlimit:10;stroke-dasharray:none;stroke-opacity:1"
       transform="matrix(0.71945066,0,0,0.71945066,-339.11147,-375.14362)"
       clip-path="url(#clipPath142)" />
    <path
       id="path143"
       d="m 654,615 c -6e-5,0.66302 -0.12695,1.30078 -0.38074,1.91333 -0.25372,0.61255 -0.61499,1.15326 -1.0838,1.62219 -0.46887,0.46881 -1.00958,0.83008 -1.62213,1.08386 C 650.30078,619.87311 649.66302,620 649,620 c -0.66309,0 -1.3009,-0.12689 -1.91351,-0.38062 -0.61261,-0.25378 -1.15326,-0.61505 -1.62207,-1.08386 -0.46881,-0.46893 -0.83014,-1.00964 -1.08393,-1.62219 C 644.12677,616.30078 643.99994,615.66302 644,615 c -6e-5,-0.66309 0.12677,-1.3009 0.38049,-1.91345 0.25379,-0.61255 0.61512,-1.15326 1.08393,-1.62207 0.46881,-0.46887 1.00946,-0.83014 1.62207,-1.08386 C 647.6991,610.12689 648.33691,610 649,610 c 0.66302,0 1.30078,0.12689 1.91333,0.38062 0.61255,0.25372 1.15326,0.61499 1.62213,1.08386 0.46881,0.46881 0.83008,1.00952 1.0838,1.62207 0.25379,0.61255 0.38068,1.25036 0.38074,1.91345 z"
       style="fill:#ffffff;fill-opacity:1;fill-rule:nonzero;stroke:#000000;stroke-width:1;stroke-linecap:butt;stroke-linejoin:miter;stroke-miterlimit:10;stroke-dasharray:none;stroke-opacity:1"
       transform="matrix(0.71945066,0,0,0.71945066,-339.11147,-375.14362)"
       clip-path="url(#clipPath144)" />
    <path
       id="path145"
       d="m 674,615 c -6e-5,0.66302 -0.12695,1.30078 -0.38068,1.91333 -0.25378,0.61255 -0.61505,1.15326 -1.08386,1.62219 -0.46887,0.46881 -1.00958,0.83008 -1.62213,1.08386 C 670.30072,619.87311 669.66296,620 669,620 c -0.66309,0 -1.3009,-0.12689 -1.91351,-0.38062 -0.61255,-0.25378 -1.15326,-0.61505 -1.62207,-1.08386 -0.46888,-0.46893 -0.83014,-1.00964 -1.08387,-1.62219 C 664.12683,616.30078 663.99994,615.66302 664,615 c -6e-5,-0.66309 0.12683,-1.3009 0.38055,-1.91345 0.25373,-0.61255 0.61499,-1.15326 1.08387,-1.62207 0.46881,-0.46887 1.00952,-0.83014 1.62207,-1.08386 C 667.6991,610.12689 668.33691,610 669,610 c 0.66296,0 1.30072,0.12689 1.91333,0.38062 0.61255,0.25372 1.15326,0.61499 1.62213,1.08386 0.46881,0.46881 0.83008,1.00952 1.08386,1.62207 0.25373,0.61255 0.38062,1.25036 0.38068,1.91345 z"
       style="fill:#ffffff;fill-opacity:1;fill-rule:nonzero;stroke:#000000;stroke-width:1;stroke-linecap:butt;stroke-linejoin:miter;stroke-miterlimit:10;stroke-dasharray:none;stroke-opacity:1"
       transform="matrix(0.71945066,0,0,0.71945066,-339.11147,-375.14362)"
       clip-path="url(#clipPath146)" />
    <path
       id="path147"
       d="m 694,595 c -6e-5,0.66302 -0.12695,1.30078 -0.38074,1.91333 -0.25372,0.61261 -0.61499,1.15332 -1.0838,1.62213 -0.46887,0.46881 -1.00958,0.83014 -1.62213,1.08386 -0.61261,0.25373 -1.25037,0.38062 -1.91333,0.38068 -0.66302,-6e-5 -1.30084,-0.12695 -1.91345,-0.38068 -0.61261,-0.25372 -1.15332,-0.61505 -1.62213,-1.08386 -0.46888,-0.46881 -0.8302,-1.00952 -1.08393,-1.62213 C 684.12677,596.30078 683.99994,595.66302 684,595 c -6e-5,-0.66309 0.12677,-1.3009 0.38049,-1.91351 0.25373,-0.61261 0.61505,-1.15326 1.08393,-1.62207 0.46881,-0.46888 1.00952,-0.83014 1.62213,-1.08387 C 687.69916,590.12683 688.33698,590 689,590 c 0.66296,0 1.30072,0.12683 1.91333,0.38055 0.61255,0.25373 1.15326,0.61499 1.62213,1.08387 0.46881,0.46881 0.83008,1.00946 1.0838,1.62207 0.25379,0.61261 0.38068,1.25042 0.38074,1.91351 z"
       style="fill:#ffffff;fill-opacity:1;fill-rule:nonzero;stroke:#000000;stroke-width:1;stroke-linecap:butt;stroke-linejoin:miter;stroke-miterlimit:10;stroke-dasharray:none;stroke-opacity:1"
       transform="matrix(0.71945066,0,0,0.71945066,-339.11147,-375.14362)"
       clip-path="url(#clipPath148)" />
    <path
       id="path149"
       d="m 714,595 c -6e-5,0.66302 -0.12695,1.30078 -0.38068,1.91333 -0.25372,0.61261 -0.61499,1.15332 -1.0838,1.62213 -0.46887,0.46881 -1.00958,0.83014 -1.62213,1.08386 -0.61255,0.25373 -1.25037,0.38062 -1.91339,0.38068 -0.66309,-6e-5 -1.3009,-0.12695 -1.91351,-0.38068 -0.61255,-0.25372 -1.1532,-0.61505 -1.62201,-1.08386 -0.46887,-0.46881 -0.8302,-1.00952 -1.08393,-1.62213 C 704.12683,596.30078 703.99994,595.66302 704,595 c -6e-5,-0.66309 0.12683,-1.3009 0.38055,-1.91351 0.25373,-0.61261 0.61506,-1.15326 1.08393,-1.62207 0.46881,-0.46888 1.00946,-0.83014 1.62201,-1.08387 C 707.6991,590.12683 708.33691,590 709,590 c 0.66302,0 1.30084,0.12683 1.91339,0.38055 0.61255,0.25373 1.15326,0.61499 1.62213,1.08387 0.46881,0.46881 0.83008,1.00946 1.0838,1.62207 0.25373,0.61261 0.38062,1.25042 0.38068,1.91351 z"
       style="fill:#ffffff;fill-opacity:1;fill-rule:nonzero;stroke:#000000;stroke-width:1;stroke-linecap:butt;stroke-linejoin:miter;stroke-miterlimit:10;stroke-dasharray:none;stroke-opacity:1"
       transform="matrix(0.71945066,0,0,0.71945066,-339.11147,-375.14362)"
       clip-path="url(#clipPath150)" />
    <path
       id="path151"
       d="m 694,615 c -6e-5,0.66302 -0.12695,1.30078 -0.38074,1.91333 -0.25372,0.61255 -0.61499,1.15326 -1.0838,1.62219 -0.46887,0.46881 -1.00958,0.83008 -1.62213,1.08386 C 690.30072,619.87311 689.66296,620 689,620 c -0.66302,0 -1.30084,-0.12689 -1.91345,-0.38062 -0.61261,-0.25378 -1.15332,-0.61505 -1.62213,-1.08386 -0.46888,-0.46893 -0.8302,-1.00964 -1.08393,-1.62219 C 684.12677,616.30078 683.99994,615.66302 684,615 c -6e-5,-0.66309 0.12677,-1.3009 0.38049,-1.91345 0.25373,-0.61255 0.61505,-1.15326 1.08393,-1.62207 0.46881,-0.46887 1.00952,-0.83014 1.62213,-1.08386 C 687.69916,610.12689 688.33698,610 689,610 c 0.66296,0 1.30072,0.12689 1.91333,0.38062 0.61255,0.25372 1.15326,0.61499 1.62213,1.08386 0.46881,0.46881 0.83008,1.00952 1.0838,1.62207 0.25379,0.61255 0.38068,1.25036 0.38074,1.91345 z"
       style="fill:#ffffff;fill-opacity:1;fill-rule:nonzero;stroke:#000000;stroke-width:1;stroke-linecap:butt;stroke-linejoin:miter;stroke-miterlimit:10;stroke-dasharray:none;stroke-opacity:1"
       transform="matrix(0.71945066,0,0,0.71945066,-339.11147,-375.14362)"
       clip-path="url(#clipPath152)" />
    <path
       id="path153"
       d="m 714,615 c -6e-5,0.66302 -0.12695,1.30078 -0.38068,1.91333 -0.25372,0.61255 -0.61499,1.15326 -1.0838,1.62219 -0.46887,0.46881 -1.00958,0.83008 -1.62213,1.08386 C 710.30084,619.87311 709.66302,620 709,620 c -0.66309,0 -1.3009,-0.12689 -1.91351,-0.38062 -0.61255,-0.25378 -1.1532,-0.61505 -1.62201,-1.08386 -0.46887,-0.46893 -0.8302,-1.00964 -1.08393,-1.62219 C 704.12683,616.30078 703.99994,615.66302 704,615 c -6e-5,-0.66309 0.12683,-1.3009 0.38055,-1.91345 0.25373,-0.61255 0.61506,-1.15326 1.08393,-1.62207 0.46881,-0.46887 1.00946,-0.83014 1.62201,-1.08386 C 707.6991,610.12689 708.33691,610 709,610 c 0.66302,0 1.30084,0.12689 1.91339,0.38062 0.61255,0.25372 1.15326,0.61499 1.62213,1.08386 0.46881,0.46881 0.83008,1.00952 1.0838,1.62207 0.25373,0.61255 0.38062,1.25036 0.38068,1.91345 z"
       style="fill:#ffffff;fill-opacity:1;fill-rule:nonzero;stroke:#000000;stroke-width:1;stroke-linecap:butt;stroke-linejoin:miter;stroke-miterlimit:10;stroke-dasharray:none;stroke-opacity:1"
       transform="matrix(0.71945066,0,0,0.71945066,-339.11147,-375.14362)"
       clip-path="url(#clipPath154)" />
    <path
       id="path155"
       d="m 554.00024,584.42999 3,10e-4 -4.8e-4,1 -3,-10e-4 m 6.00048,-0.99737 3,10e-4 -4.8e-4,1 -3,-10e-4 m 6.00048,-0.99738 3,10e-4 -4.8e-4,1 -3,-10e-4 m 6.00048,-0.99737 3,10e-4 -4.8e-4,1 -3,-10e-4 m 6.00048,-0.99738 3,0.001 -4.8e-4,1 -3,-0.001 m 6.00048,-0.99737 3,10e-4 -4.8e-4,1 -3,-10e-4 m 6.00048,-0.99738 3,10e-4 -4.8e-4,1 -3,-10e-4 m 6.00048,-0.99738 3,10e-4 -4.8e-4,1 -3,-10e-4 m 6.00048,-0.99737 3,10e-4 -4.8e-4,1 -3,-10e-4 m 6.00048,-0.99738 3,10e-4 -4.8e-4,1 -3,-10e-4 m 6.00048,-0.99737 3,10e-4 -4.8e-4,1 -3,-10e-4 m 6.00048,-0.99738 3,0.001 -4.8e-4,1 -3,-0.001 m 6.00048,-0.99737 3,10e-4 -4.8e-4,1 -3,-10e-4 m 6.00048,-0.99738 3,10e-4 -4.8e-4,1 -3,-10e-4 m 6.00048,-0.99737 3,0.001 -4.8e-4,1 -3,-0.001 m 6.00048,-0.99738 3,10e-4 -4.8e-4,1 -3,-10e-4 m 6.00048,-0.99738 3,10e-4 -4.8e-4,1 -3,-10e-4 m 6.00048,-0.99737 3,10e-4 -4.8e-4,1 -3,-10e-4 m 6.00048,-0.99738 3,0.001 -4.8e-4,1 -3,-0.001 m 6.00048,-0.99737 3,10e-4 -4.8e-4,1 -3,-10e-4 m 6.00048,-0.99738 3,10e-4 -4.8e-4,1 -3,-10e-4 m 6.00048,-0.99737 3,0.001 -4.8e-4,1 -3,-0.001 m 6.00048,-0.99738 3,10e-4 -4.8e-4,1 -3,-10e-4 m 6.00048,-0.99737 3,10e-4 -4.8e-4,1 -3,-10e-4 m 6.00048,-0.99738 3,10e-4 -4.8e-4,1 -3,-10e-4 m 6.00048,-0.99737 3,10e-4 -4.8e-4,1 -3,-10e-4 m 6.00048,-0.99738 3,10e-4 -4.8e-4,1 -3,-10e-4"
       style="fill:#e03c31;fill-opacity:1;fill-rule:nonzero;stroke:none"
       transform="matrix(0.71945066,0,0,0.71945066,-339.11147,-375.14362)"
       clip-path="url(#clipPath156)" />
  </g>
</svg>
