<?xml version="1.0" encoding="UTF-8" standalone="no"?>
<!-- Created with Inkscape (http://www.inkscape.org/) -->

<svg
   version="1.1"
   id="svg1"
   width="104.28796"
   height="98.893738"
   viewBox="0 0 104.28796 98.893738"
   xmlns="http://www.w3.org/2000/svg"
   xmlns:svg="http://www.w3.org/2000/svg">
  <defs
     id="defs1">
    <clipPath
       clipPathUnits="userSpaceOnUse"
       id="clipPath6">
      <path
         d="m 78.125,103.125 h 2393.75 v 3093.75 H 78.125 Z"
         transform="matrix(0.35593755,0,0,0.35593755,-29.424669,-38.318364)"
         clip-rule="evenodd"
         id="path6" />
    </clipPath>
    <clipPath
       clipPathUnits="userSpaceOnUse"
       id="clipPath8">
      <path
         d="m 78.125,103.125 h 2393.75 v 3093.75 H 78.125 Z"
         transform="matrix(0.35593755,0,0,0.35593755,-29.424669,-38.318364)"
         clip-rule="evenodd"
         id="path8" />
    </clipPath>
    <clipPath
       clipPathUnits="userSpaceOnUse"
       id="clipPath10">
      <path
         d="m 78.125,103.125 h 2393.75 v 3093.75 H 78.125 Z"
         transform="matrix(25.296062,0,0,-25.296062,-3192.7426,69913.597)"
         clip-rule="evenodd"
         id="path10" />
    </clipPath>
    <clipPath
       clipPathUnits="userSpaceOnUse"
       id="clipPath12">
      <path
         d="m 78.125,103.125 h 2393.75 v 3093.75 H 78.125 Z"
         transform="matrix(35.779454,0,0,-35.779454,-5466.3997,98137.528)"
         clip-rule="evenodd"
         id="path12" />
    </clipPath>
    <clipPath
       clipPathUnits="userSpaceOnUse"
       id="clipPath14">
      <path
         d="m 78.125,103.125 h 2393.75 v 3093.75 H 78.125 Z"
         transform="matrix(35.779454,0,0,-35.779454,-5855.3996,98137.528)"
         clip-rule="evenodd"
         id="path14" />
    </clipPath>
    <clipPath
       clipPathUnits="userSpaceOnUse"
       id="clipPath16">
      <path
         d="m 78.125,103.125 h 2393.75 v 3093.75 H 78.125 Z"
         transform="matrix(35.779454,0,0,-35.779454,-6355.3996,98137.528)"
         clip-rule="evenodd"
         id="path16" />
    </clipPath>
    <clipPath
       clipPathUnits="userSpaceOnUse"
       id="clipPath18">
      <path
         d="m 78.125,103.125 h 2393.75 v 3093.75 H 78.125 Z"
         transform="matrix(35.779454,0,0,-35.779454,-5466.3997,99336.254)"
         clip-rule="evenodd"
         id="path18" />
    </clipPath>
    <clipPath
       clipPathUnits="userSpaceOnUse"
       id="clipPath20">
      <path
         d="m 78.125,103.125 h 2393.75 v 3093.75 H 78.125 Z"
         transform="matrix(0.35593755,0,0,0.35593755,-29.424669,-38.318364)"
         clip-rule="evenodd"
         id="path20" />
    </clipPath>
    <clipPath
       clipPathUnits="userSpaceOnUse"
       id="clipPath22">
      <path
         d="m 78.125,103.125 h 2393.75 v 3093.75 H 78.125 Z"
         transform="matrix(0.35593755,0,0,0.35593755,-29.424669,-38.318364)"
         clip-rule="evenodd"
         id="path22" />
    </clipPath>
    <clipPath
       clipPathUnits="userSpaceOnUse"
       id="clipPath24">
      <path
         d="m 78.125,103.125 h 2393.75 v 3093.75 H 78.125 Z"
         transform="matrix(25.305724,0,0,-25.305724,-7530.816,74763.283)"
         clip-rule="evenodd"
         id="path24" />
    </clipPath>
    <clipPath
       clipPathUnits="userSpaceOnUse"
       id="clipPath26">
      <path
         d="m 78.125,103.125 h 2393.75 v 3093.75 H 78.125 Z"
         transform="matrix(30.373325,0,0,-30.373325,-5028.2358,85898.463)"
         clip-rule="evenodd"
         id="path26" />
    </clipPath>
    <clipPath
       clipPathUnits="userSpaceOnUse"
       id="clipPath28">
      <path
         d="m 78.125,103.125 h 2393.75 v 3093.75 H 78.125 Z"
         transform="matrix(0.35593755,0,0,0.35593755,-29.424669,-38.318364)"
         clip-rule="evenodd"
         id="path28" />
    </clipPath>
    <clipPath
       clipPathUnits="userSpaceOnUse"
       id="clipPath30">
      <path
         d="m 78.125,103.125 h 2393.75 v 3093.75 H 78.125 Z"
         transform="matrix(0.35593755,0,0,0.35593755,-29.424669,-38.318364)"
         clip-rule="evenodd"
         id="path30" />
    </clipPath>
    <clipPath
       clipPathUnits="userSpaceOnUse"
       id="clipPath32">
      <path
         d="m 78.125,103.125 h 2393.75 v 3093.75 H 78.125 Z"
         transform="matrix(0.35593755,0,0,0.35593755,-29.424669,-38.318364)"
         clip-rule="evenodd"
         id="path32" />
    </clipPath>
    <clipPath
       clipPathUnits="userSpaceOnUse"
       id="clipPath34">
      <path
         d="m 78.125,103.125 h 2393.75 v 3093.75 H 78.125 Z"
         transform="matrix(0.35593755,0,0,0.35593755,-29.424669,-38.318364)"
         clip-rule="evenodd"
         id="path34" />
    </clipPath>
  </defs>
  <g
     id="g2"
     transform="translate(-871.44409,-851.67151)">
    <path
       id="path5"
       d="m 40,965 -2.27,-0.02"
       style="fill:none;stroke:#000000;stroke-width:1;stroke-linecap:butt;stroke-linejoin:miter;stroke-miterlimit:10;stroke-dasharray:none;stroke-opacity:1"
       transform="matrix(0.89903407,0,0,0.89903407,862.45378,34.449515)"
       clip-path="url(#clipPath6)" />
    <path
       id="path7"
       d="m 10,909 h 116 v 110 H 10 Z"
       style="fill:#ffffff;fill-opacity:1;fill-rule:nonzero;stroke:none"
       transform="matrix(0.89903407,0,0,0.89903407,862.45378,34.449515)"
       clip-path="url(#clipPath8)" />
    <path
       id="path9"
       d="m 40,442 94,4 c 62.66667,2.66666 94.33333,4 95,4 h 6 V 273 165 c 0,-50 1,-80.333336 3,-91 2,-10.666668 7.33333,-18 16,-22 9.33334,-4 26,-6 50,-6 h 15 c 22,0 42.33334,7 61,21 18.66666,14 31.66666,32 39,54 l 1,2 c 2.66666,8 4.33334,33.33333 5,76 0,1.33333 0,4 0,8 0,17.33333 0,31.33333 0,42 v 67 c 0,25.33334 -0.66666,41 -2,47 -1.33334,6 -5.66666,10.33334 -13,13 -9.33334,2.66666 -23,4 -41,4 h -13 v 62 l 198,8 V 267 c 0,-122 0.66669,-184.666664 2,-188 3.33331,-11.333336 21.33331,-17 54,-17 h 13 V 31 c 0,-20.666668 -0.33331,-31 -1,-31 -12.66669,0 -44.33331,-1 -95,-3 -50.66666,-2 -82.33334,-3 -95,-3 -0.66666,0 -1,10.3333321 -1,31 V 56 L 420,45 C 388.66666,19 359.33334,3.666667 332,-1 319.33334,-4.3333335 302.33334,-6 281,-6 232.33333,-6 193.66667,0.66666603 165,14 136.33333,27.333334 117.66666,51.666664 109,87 l -2,11 -1,132 c 0,85.33334 -0.66666,130.66666 -2,136 -5.333336,9.33334 -23.333328,14 -54,14 H 37 v 62 z"
       style="fill:#000000;fill-opacity:1;fill-rule:nonzero;stroke:#000000;stroke-width:1;stroke-linecap:butt;stroke-linejoin:miter;stroke-miterlimit:10;stroke-dasharray:none;stroke-opacity:0.0285"
       transform="matrix(0.01265019,0,0,-0.01265019,876.3888,884.42028)"
       clip-path="url(#clipPath10)" />
    <path
       id="path11"
       d="m 94,250 c 0,46 3.333336,89.66666 10,131 6.66666,41.33334 14.33334,77 23,107 8.66667,30 21,59.33331 37,88 16,28.66669 28.66667,51 38,67 9.33333,16 23.33333,33.33331 42,52 18.66666,18.66669 29.66666,30 33,34 3.33334,4 11.66666,11 25,21 h 13 4 c 9.33334,0 14,-3 14,-9 0,-2 -5.66666,-9 -17,-21 -11.33334,-12 -25,-29.66669 -41,-53 -16,-23.33331 -32.33333,-52 -49,-86 -16.66667,-34 -30.66667,-80 -42,-138 -11.33333,-58 -17,-122.33331 -17,-193 0,-70.66667 5.66667,-134.66666 17,-192 11.33333,-57.33333588 25,-103.666664 41,-139 16,-35.33334 32.33334,-64 49,-86 16.66666,-22 30.66666,-39.66667 42,-53 11.33334,-13.33333 17,-20.33333 17,-21 0,-6 -5,-9 -15,-9 h -3 -13 l -28,24 C 211.33333,-169.33333 165.66667,-98.666672 137,-14 108.33333,70.666672 94,158.66666 94,250 Z"
       style="fill:#000000;fill-opacity:1;fill-rule:nonzero;stroke:#000000;stroke-width:1;stroke-linecap:butt;stroke-linejoin:miter;stroke-miterlimit:10;stroke-dasharray:none;stroke-opacity:0.0201"
       transform="matrix(0.00894368,0,0,-0.00894368,884.88973,877.71065)"
       clip-path="url(#clipPath12)" />
    <path
       id="path13"
       d="m 109,429 c -18,0 -32.333336,6 -43,18 -10.666668,12 -16,26.66666 -16,44 0,47.33331 17.666664,88.33331 53,123 35.33334,34.66669 79.33333,52 132,52 60.66666,0 111.33334,-18.66669 152,-56 40.66666,-37.33331 61.33334,-85.66669 62,-145 0,-28.66666 -6.66666,-56 -20,-82 -13.33334,-26 -29.33334,-48.66666 -48,-68 -18.66666,-19.33334 -45.33334,-44 -80,-74 -24,-20.66667 -57.33333,-51.33333 -100,-92 l -59,-56 76,-1 c 104.66669,0 160.33334,1.666664 167,5 4.66666,1.333336 12.66666,31 24,89 v 3 h 40 v -3 C 448.33334,184 444,153.66667 436,95 428,36.333332 423,5.666667 421,3 V 0 H 50 v 19 12 c 0,4.666668 2,9.666668 6,15 4,5.333332 14,17 30,35 19.33334,21.33334 36,40 50,56 6,6.66667 17.33333,19 34,37 16.66667,18 28,30.33333 34,37 6,6.66667 15.66667,17.66667 29,33 13.33333,15.33334 22.66667,26.66666 28,34 5.33334,7.33334 13,17.33334 23,30 10,12.66666 17,23.33334 21,32 4,8.66666 9,18.33334 15,29 6,10.66666 10.33334,21.33334 13,32 2.66666,10.66666 5,20.66666 7,30 2,9.33334 3,20.33334 3,33 0,42 -11.33334,78.33331 -34,109 -22.66666,30.66669 -55,46 -97,46 -22,0 -41.33333,-5.66669 -58,-17 -16.66667,-11.33331 -28.33334,-22.33331 -35,-33 -6.66666,-10.66669 -10,-17 -10,-19 0,-0.66669 1.66666,-1 5,-1 12,0 24.33333,-4.66669 37,-14 12.66667,-9.33331 19,-24.66666 19,-46 0,-16.66666 -5.33333,-30.66666 -16,-42 -10.66667,-11.33334 -25.66667,-17.33334 -45,-18 z"
       style="fill:#000000;fill-opacity:1;fill-rule:nonzero;stroke:#000000;stroke-width:1;stroke-linecap:butt;stroke-linejoin:miter;stroke-miterlimit:10;stroke-dasharray:none;stroke-opacity:0.0201"
       transform="matrix(0.00894368,0,0,-0.00894368,888.36882,877.71065)"
       clip-path="url(#clipPath14)" />
    <path
       id="path15"
       d="m 60,749 4,1 c 3.333336,0 6.666664,0 10,0 h 12 l 28,-24 c 62.66667,-56.66669 108.33333,-127.33331 137,-212 28.66666,-84.66669 43,-172.66666 43,-264 0,-45.33334 -3.33334,-89 -10,-131 -6.66666,-42 -14.33334,-77.666664 -23,-107 -8.66667,-29.333334 -21,-58.666664 -37,-88 -16,-29.33334 -28.66667,-51.66666 -38,-67 -9.33333,-15.33333 -23,-32.33333 -41,-51 -18,-18.66667 -28.66666,-29.66667 -32,-33 -3.33334,-3.33333 -11,-9.66667 -23,-19 -2,-2 -3.333336,-3.33333 -4,-4 H 74 c -5.333336,0 -9,0 -11,0 -2,0 -3.666668,1 -5,3 -1.333332,2 -2.333332,5 -3,9 0.666668,0.66667 4.333332,5 11,13 103.33334,107.33334 155,265.666656 155,475 0,209.33334 -51.66666,367.66669 -155,475 -6.666668,8 -10.333332,12.33331 -11,13 0,5.33331 1.666668,9 5,11 z"
       style="fill:#000000;fill-opacity:1;fill-rule:nonzero;stroke:#000000;stroke-width:1;stroke-linecap:butt;stroke-linejoin:miter;stroke-miterlimit:10;stroke-dasharray:none;stroke-opacity:0.0201"
       transform="matrix(0.00894368,0,0,-0.00894368,892.84066,877.71065)"
       clip-path="url(#clipPath16)" />
    <path
       id="path17"
       d="m 121,647 c 0,6.66669 1.33334,14.33331 4,23 2.66666,8.66669 6.66667,13 12,13 0.66667,0 24.66666,1.66669 72,5 47.33334,3.33331 71.66666,5.33331 73,6 8,0 12,-2.66669 12,-8 0,-4.66669 -16.66666,-74.33331 -50,-209 -33.33334,-132 -50,-200.33334 -50,-205 12.66667,6.66666 22.33333,13 29,19 16,12 39,33 69,63 30,30 53.33334,50.33334 70,61 26.66666,18 52,27 76,27 20,0 35.66666,-6.33334 47,-19 11.33334,-12.66666 17.33334,-30.66666 18,-54 0,-16.66666 -2.33334,-30.66666 -7,-42 -4.66666,-11.33334 -11,-19.66666 -19,-25 -8,-5.33334 -15,-9 -21,-11 -6,-2 -12,-3 -18,-3 -13.33334,0 -24,3.66666 -32,11 -8,7.33334 -12,17 -12,29 0,16.66666 5.33334,30.33334 16,41 10.66666,10.66666 21.33334,17.66666 32,21 l 16,3 c -8,8 -16,12 -24,12 h -4 c -21.33334,-2 -42.33334,-10.33334 -63,-25 -20.66666,-14.66666 -45,-36 -73,-64 -28,-28 -50,-48.33334 -66,-61 1.33333,-0.66667 6.33333,-1.66667 15,-3 8.66667,-1.33333 16.66666,-3.33333 24,-6 7.33334,-2.66667 16,-5.33333 26,-8 10,-2.66667 19,-7.33333 27,-14 8,-6.66667 15.33334,-12.66667 22,-18 6.66666,-5.33333 12.33334,-14 17,-26 4.66666,-12 6.66666,-23 6,-33 0,-11.33333 -1.66666,-25 -5,-41 -3.33334,-16 -5.33334,-29.333336 -6,-40 0,-26.666668 9,-40 27,-40 32,0 58,39.666664 78,119 1.33334,5.33333 8,8 20,8 h 4 c 10.66666,0 16,-3 16,-9 0,-3.33333 -1,-8 -3,-14 -27.33334,-94 -66.66666,-141 -118,-141 -30,0 -54.33334,8.666666 -73,26 -18.66666,17.333336 -28,42.333332 -28,75 0,12 1,22.33334 3,31 2,8.66667 3,16.66667 3,24 0,14.66667 -4.66666,27.33333 -14,38 -9.33334,10.66667 -21,18.33333 -35,23 -14,4.66667 -25.33333,8.33333 -34,11 -8.66667,2.66667 -14.66667,3.66667 -18,3 h -2 c -8,-28 -15,-55 -21,-81 -6,-26 -10.66667,-45.333336 -14,-58 -3.33333,-12.666664 -6.33333,-25 -9,-37 -2.66667,-12 -5,-20 -7,-24 -2,-4 -4.33334,-8.333333 -7,-13 -2.66666,-4.666667 -6.33334,-7.66666663 -11,-9 -8.66666,-6 -18,-9 -28,-9 -11.333336,0 -20,3.333333 -26,10 -6,6.666667 -9,12.333333 -9,17 0,6.666668 12.333332,60 37,160 24.66667,100 49,198.33331 73,295 l 37,145 c 0.66667,8.66669 -1.66667,14 -7,16 -5.33333,2 -18.33333,3.66669 -39,5 h -5 c -6.66667,0 -11,0 -13,0 -2,0 -4.33334,1 -7,3 -2.66666,2 -3.66666,4.33331 -3,7 z"
       style="fill:#000000;fill-opacity:1;fill-rule:nonzero;stroke:#000000;stroke-width:1;stroke-linecap:butt;stroke-linejoin:miter;stroke-miterlimit:10;stroke-dasharray:none;stroke-opacity:0.0201"
       transform="matrix(0.00894368,0,0,-0.00894368,884.88973,888.43167)"
       clip-path="url(#clipPath18)" />
    <path
       id="path19"
       d="m 40,1000 h 73.63"
       style="fill:none;stroke:#000000;stroke-width:1;stroke-linecap:butt;stroke-linejoin:miter;stroke-miterlimit:10;stroke-dasharray:none;stroke-opacity:1"
       transform="matrix(0.89903407,0,0,0.89903407,862.45378,34.449515)"
       clip-path="url(#clipPath20)" />
    <path
       id="path21"
       d="m 118.88,1000 -7,3.5 1.75,-3.5 -1.75,-3.5 z"
       style="fill:#000000;fill-opacity:1;fill-rule:nonzero;stroke:#000000;stroke-width:1;stroke-linecap:butt;stroke-linejoin:miter;stroke-miterlimit:10;stroke-dasharray:none;stroke-opacity:1"
       transform="matrix(0.89903407,0,0,0.89903407,862.45378,34.449515)"
       clip-path="url(#clipPath22)" />
    <path
       id="path23"
       d="m 121,647 c 0,6.66669 1.33334,14.33331 4,23 2.66666,8.66669 6.66667,13 12,13 0.66667,0 24.66666,1.66669 72,5 47.33334,3.33331 71.66666,5.33331 73,6 8,0 12,-2.66669 12,-8 0,-4.66669 -16.66666,-74.33331 -50,-209 -33.33334,-132 -50,-200.33334 -50,-205 12.66667,6.66666 22.33333,13 29,19 16,12 39,33 69,63 30,30 53.33334,50.33334 70,61 26.66666,18 52,27 76,27 20,0 35.66666,-6.33334 47,-19 11.33334,-12.66666 17.33334,-30.66666 18,-54 0,-16.66666 -2.33334,-30.66666 -7,-42 -4.66666,-11.33334 -11,-19.66666 -19,-25 -8,-5.33334 -15,-9 -21,-11 -6,-2 -12,-3 -18,-3 -13.33334,0 -24,3.66666 -32,11 -8,7.33334 -12,17 -12,29 0,16.66666 5.33334,30.33334 16,41 10.66666,10.66666 21.33334,17.66666 32,21 l 16,3 c -8,8 -16,12 -24,12 h -4 c -21.33334,-2 -42.33334,-10.33334 -63,-25 -20.66666,-14.66666 -45,-36 -73,-64 -28,-28 -50,-48.33334 -66,-61 1.33333,-0.66667 6.33333,-1.66667 15,-3 8.66667,-1.33333 16.66666,-3.33333 24,-6 7.33334,-2.66667 16,-5.33333 26,-8 10,-2.66667 19,-7.33333 27,-14 8,-6.66667 15.33334,-12.66667 22,-18 6.66666,-5.33333 12.33334,-14 17,-26 4.66666,-12 6.66666,-23 6,-33 0,-11.33333 -1.66666,-25 -5,-41 -3.33334,-16 -5.33334,-29.333336 -6,-40 0,-26.666668 9,-40 27,-40 32,0 58,39.666664 78,119 1.33334,5.33333 8,8 20,8 h 4 c 10.66666,0 16,-3 16,-9 0,-3.33333 -1,-8 -3,-14 -27.33334,-94 -66.66666,-141 -118,-141 -30,0 -54.33334,8.666666 -73,26 -18.66666,17.333336 -28,42.333332 -28,75 0,12 1,22.33334 3,31 2,8.66667 3,16.66667 3,24 0,14.66667 -4.66666,27.33333 -14,38 -9.33334,10.66667 -21,18.33333 -35,23 -14,4.66667 -25.33333,8.33333 -34,11 -8.66667,2.66667 -14.66667,3.66667 -18,3 h -2 c -8,-28 -15,-55 -21,-81 -6,-26 -10.66667,-45.333336 -14,-58 -3.33333,-12.666664 -6.33333,-25 -9,-37 -2.66667,-12 -5,-20 -7,-24 -2,-4 -4.33334,-8.333333 -7,-13 -2.66666,-4.666667 -6.33334,-7.66666663 -11,-9 -8.66666,-6 -18,-9 -28,-9 -11.333336,0 -20,3.333333 -26,10 -6,6.666667 -9,12.333333 -9,17 0,6.666668 12.333332,60 37,160 24.66667,100 49,198.33331 73,295 l 37,145 c 0.66667,8.66669 -1.66667,14 -7,16 -5.33333,2 -18.33333,3.66669 -39,5 h -5 c -6.66667,0 -11,0 -13,0 -2,0 -4.33334,1 -7,3 -2.66666,2 -3.66666,4.33331 -3,7 z"
       style="fill:#000000;fill-opacity:1;fill-rule:nonzero;stroke:#000000;stroke-width:1;stroke-linecap:butt;stroke-linejoin:miter;stroke-miterlimit:10;stroke-dasharray:none;stroke-opacity:0.0285"
       transform="matrix(0.01264536,0,0,-0.01264536,931.22988,945.40863)"
       clip-path="url(#clipPath24)" />
    <path
       id="path25"
       d="m 96,585 c 37.33334,54 88.33333,81 153,81 32,0 64,-8.66669 96,-26 32,-17.33331 58,-48 78,-92 24.66666,-55.33334 37,-131.33331 37,-228 C 460,216.66666 445.66666,137.66667 417,83 403.66666,55 385.33334,32.666668 362,16 338.66666,-0.66666794 318.33334,-11 301,-15 c -17.33334,-4 -34.33334,-6.333334 -51,-7 -17.33333,0 -34.66667,2 -52,6 -17.33333,4 -37.66667,14.666666 -61,32 C 113.66666,33.333336 95.333336,55.666664 82,83 53.333332,137.66667 39,216.66666 39,320 39,436 58,524.33331 96,585 Z m 225,12 c -20,21.33331 -43.66666,32 -71,32 -28,0 -52,-10.66669 -72,-32 -16.66667,-17.33331 -27.66667,-41.33331 -33,-72 -5.33333,-30.66666 -8,-94.66666 -8,-192 0,-105.33334 2.66667,-174.66666 8,-208 5.33333,-33.333336 17.33333,-59.666664 36,-79 18.66667,-20 41.66667,-30 69,-30 26.66666,0 49.33334,10 68,30 19.33334,20 31.33334,48 36,84 4.66666,36 7.33334,103.66666 8,203 0,96.66669 -2.66666,160.33334 -8,191 -5.33334,30.66669 -16.33334,55 -33,73 z"
       style="fill:#000000;fill-opacity:1;fill-rule:nonzero;stroke:#000000;stroke-width:1;stroke-linecap:butt;stroke-linejoin:miter;stroke-miterlimit:10;stroke-dasharray:none;stroke-opacity:0.0237"
       transform="matrix(0.01053556,0,0,-0.01053556,888.97528,904.98841)"
       clip-path="url(#clipPath26)" />
    <path
       id="path27"
       d="m 40,1000 c 20,0 33.333336,-13.16669 40,-39.5 6.666664,-26.33331 20.33333,-39.5 41,-39.5"
       style="fill:none;stroke:#000000;stroke-width:1;stroke-linecap:butt;stroke-linejoin:miter;stroke-miterlimit:10;stroke-dasharray:none;stroke-opacity:1"
       transform="matrix(0.89903407,0,0,0.89903407,862.45378,34.449515)"
       clip-path="url(#clipPath28)" />
    <path
       id="path29"
       d="m 40.000626,964.40002 1,10e-4 -0.0013,1 -1,-10e-4 m 2.001252,-0.99749 0.999996,0.001 -0.0013,1 -0.999997,-0.001 m 2.001248,-0.9975 1,10e-4 -0.0013,1 -1,-10e-4 m 2.001251,-0.9975 1,0.001 -0.0013,1 -1,-0.001 m 2.001247,-0.9975 1,10e-4 -0.0013,1 -1,-10e-4 m 2.001251,-0.99749 1,10e-4 -0.0013,1 -1,-10e-4 m 2.001251,-0.9975 1,10e-4 -0.0013,1 -1,-10e-4 m 2.001251,-0.9975 0.999996,10e-4 -0.0013,1 -0.999996,-10e-4 m 2.001247,-0.9975 1,10e-4 -0.0013,1 -1,-10e-4 m 2.001247,-0.99749 1,10e-4 -0.0013,1 -1,-10e-4 m 2.001251,-0.99756 1,10e-4 -0.0013,1 -1,-10e-4 m 2.001251,-0.9975 1,10e-4 -0.0013,1 -1,-10e-4 m 2.001251,-0.9975 1,10e-4 -0.0013,1 -1,-10e-4 m 2.001251,-0.99749 1,10e-4 -0.0013,1 -1,-10e-4 m 2.001251,-0.9975 0.999993,0.001 -0.0013,1 -0.999993,-0.001 m 2.001244,-0.9975 1,10e-4 -0.0013,1 -1,-10e-4 m 2.001251,-0.9975 1,10e-4 -0.0013,1 -1,-10e-4 m 2.001251,-0.9975 0.999992,10e-4 -0.0013,1 -0.999992,-10e-4 m 2.001243,-0.99749 1,10e-4 -0.0013,1 -1,-10e-4 m 2.001251,-0.9975 1,0.001 -0.0013,1 -1,-0.001 m 2.001251,-0.9975 1,10e-4 -0.0013,1 -1,-10e-4 m 2.001251,-0.9975 1,0.001 -0.0013,1 -1,-0.001 m 2.001251,-0.99749 1,10e-4 -0.0013,1 -1,-10e-4 m 2.001251,-0.9975 1,10e-4 -0.0013,1 -1,-10e-4 m 2.001251,-0.9975 1,10e-4 -0.0013,1 -1,-10e-4 m 2.001251,-0.9975 0.999992,10e-4 -0.0013,1 -0.999992,-10e-4 m 2.001243,-0.99749 1,0.001 -0.0013,1 -1,-0.001 m 2.001251,-0.9975 1,10e-4 -0.0013,1 -1,-10e-4 m 2.001251,-0.9975 0.999993,0.001 -0.0013,1 -0.999993,-0.001 m 2.001244,-0.9975 1,10e-4 -0.0013,1 -1,-10e-4 m 2.001251,-0.99755 0.999999,0.001 -0.001,1 -1,-0.001 m 2.00125,-0.9975 1,10e-4 -10e-4,1 -1,-10e-4 m 2.00125,-0.9975 1,0.001 -0.001,1 -1,-0.001 m 2.00125,-0.9975 1,10e-4 -0.001,1 -1,-10e-4 m 2.00125,-0.99749 1,10e-4 -0.001,1 -1,-10e-4 m 2.00124,-0.9975 1,10e-4 -10e-4,1 -1,-10e-4 m 2.00125,-0.9975 1,10e-4 -0.001,1 -1,-10e-4 m 2.00125,-0.9975 1,10e-4 -0.001,1 -1,-10e-4 m 2.00125,-0.99749 1,10e-4 -10e-4,1 -1,-10e-4 m 2.00125,-0.9975 1,0.001 -0.001,1 -1,-0.001 M 120.0016,964.5 h 6e-5 l -0.001,1 h -6e-5"
       style="fill:#e00c04;fill-opacity:1;fill-rule:nonzero;stroke:none"
       transform="matrix(0.89903407,0,0,0.89903407,862.45378,34.449515)"
       clip-path="url(#clipPath30)" />
    <path
       id="path31"
       d="M 40,1000 V 926.37"
       style="fill:none;stroke:#000000;stroke-width:1;stroke-linecap:butt;stroke-linejoin:miter;stroke-miterlimit:10;stroke-dasharray:none;stroke-opacity:1"
       transform="matrix(0.89903407,0,0,0.89903407,862.45378,34.449515)"
       clip-path="url(#clipPath32)" />
    <path
       id="path33"
       d="m 40,921.12 3.5,7 -3.5,-1.75 -3.5,1.75 z"
       style="fill:#000000;fill-opacity:1;fill-rule:nonzero;stroke:#000000;stroke-width:1;stroke-linecap:butt;stroke-linejoin:miter;stroke-miterlimit:10;stroke-dasharray:none;stroke-opacity:1"
       transform="matrix(0.89903407,0,0,0.89903407,862.45378,34.449515)"
       clip-path="url(#clipPath34)" />
  </g>
</svg>
